<?xml version="1.0" encoding="UTF-8"?>
<svg id="Camada_1" data-name="Camada 1" xmlns="http://www.w3.org/2000/svg" xmlns:xlink="http://www.w3.org/1999/xlink" viewBox="0 0 1449.56 1449.56">
  <defs>
    <style>
      .cls-1 {
        fill: none;
      }

      .cls-2 {
        fill: #56af31;
      }

      .cls-2, .cls-3 {
        fill-rule: evenodd;
      }

      .cls-4 {
        clip-path: url(#clippath);
      }

      .cls-3 {
        fill: #171a1b;
      }
    </style>
    <clipPath id="clippath">
      <rect class="cls-1" x="-.02" y=".02" width="1449.56" height="1449.56"/>
    </clipPath>
  </defs>
  <g class="cls-4">
    <path class="cls-3" d="M845.36,827.09l2.1-5.02c1.13.78,2.54,1.44,4.22,1.96,1.68.52,3.19.79,4.52.79,2.35,0,4.25-.62,5.67-1.84,1.43-1.22,2.14-2.78,2.14-4.66,0-1.42-.39-2.73-1.18-3.94-.8-1.22-2.8-2.54-6-3.97l-3.57-1.57c-3.02-1.34-5.13-2.92-6.32-4.75-1.21-1.84-1.8-4.04-1.8-6.62,0-3.13,1.17-5.73,3.5-7.79,2.34-2.06,5.34-3.09,9.01-3.09,4.89,0,8.3.75,10.22,2.26l-1.78,4.99c-.81-.56-2.04-1.09-3.69-1.6-1.65-.52-3.18-.77-4.59-.77-2.05,0-3.67.55-4.85,1.66-1.18,1.11-1.77,2.53-1.77,4.26,0,1.07.22,2.05.64,2.93.42.88,1.01,1.61,1.76,2.21.75.59,2.3,1.42,4.64,2.5l3.63,1.63c3.01,1.35,5.13,2.97,6.35,4.85,1.22,1.89,1.82,4.27,1.82,7.18,0,3.15-1.33,5.83-4,8.02-2.67,2.2-6.24,3.29-10.71,3.29-2.15,0-4.13-.26-5.93-.79-77.83-15.27-137.36-75.95-174.32-170.07-.64.12-1.3.17-1.98.17h-46.93c-.28,0-.55,0-.83-.03h-6.81c-12.95,0-17.19,1.12-17.19,14.39v19.52c23.91,0,47.83-.07,71.75-.07,6.23,0,11.33,5.22,11.33,11.6v23.21c0,6.38-5.09,11.6-11.33,11.6-23.89,0-47.73.13-71.75.13v26.04c1.07,8.74,5.76,9.58,16.93,9.58h6.81c.27-.02.55-.03.82-.03h46.93c6.23,0,11.32,5.22,11.32,11.6v23.2c0,6.38-5.09,11.6-11.32,11.6l-4.39.08h-69.58c-17.43,0-41.5-1.51-42.44-32.36-.2-6.33-.34-13.43-.45-21.07h-.06v-4.55s-.06-4-.06-4h.04c-.1-39.77-.1-85.35.79-114.59.94-30.85,25.02-32.36,42.44-32.36h69.69c.7,0,1.42.01,2.17.04l2.11.04c1.05,0,2.07.15,3.04.44,10.26,1.54,22.45,7.14,28.21,24.8,1.75,5.37,3.57,10.64,5.43,15.81,33.41,92.58,84.11,152.03,135.59,173.16ZM894.8,786.98c.98,0,1.83.32,2.52.99.7.65,1.04,1.45,1.04,2.36s-.34,1.73-1.04,2.39c-.69.66-1.54.99-2.52.99s-1.8-.32-2.5-.99c-.69-.65-1.04-1.45-1.04-2.39s.34-1.73,1.03-2.38c.68-.65,1.52-.97,2.51-.97ZM891.65,829.26v-26.1h-4.44v-4.59h10.18v30.68h-5.75ZM916.71,827.42l2.03-5.15c3.2,1.98,5.78,2.98,7.74,2.98,3.54,0,5.31-1.42,5.31-4.24,0-2.02-1.71-3.77-5.14-5.21-2.64-1.14-4.41-2.02-5.33-2.61-.92-.58-1.71-1.26-2.38-2.01-.68-.76-1.17-1.56-1.51-2.4-.33-.85-.5-1.76-.5-2.74,0-2.52.97-4.49,2.9-5.91,1.94-1.41,4.47-2.11,7.59-2.11,2.35,0,5.32.7,8.91,2.11l-1.63,5.05c-2.28-1.72-4.57-2.58-6.86-2.58-1.37,0-2.53.32-3.46.92-.94.61-1.4,1.39-1.4,2.32,0,1.97,1.17,3.45,3.54,4.47l4.11,1.77c2.52,1.09,4.35,2.32,5.5,3.73,1.15,1.4,1.72,3.13,1.72,5.24,0,2.75-1.01,4.91-3.06,6.46-2.03,1.56-4.85,2.34-8.45,2.34-3.41,0-6.61-.8-9.61-2.42ZM958.25,802.88h-3.75v-4.3h3.75v-6.41l5.73-2.1v8.51h8.89v4.3h-8.89v15.24c0,2.58.47,4.42,1.38,5.5.92,1.09,2.39,1.64,4.42,1.64,1.47,0,2.99-.35,4.56-1.07l.85,4.79c-2.37.57-4.98.86-7.82.86-2.57,0-4.72-.91-6.49-2.71-1.76-1.81-2.64-4.08-2.64-6.83v-17.42ZM1020.28,814.45h-23.33c0,3.6,1.04,6.35,3.12,8.28,1.84,1.68,4.19,2.52,7.07,2.52,3.28,0,6.02-.91,8.22-2.72l2.41,3.92c-.89.84-2.25,1.57-4.08,2.18-2.29.8-4.85,1.21-7.67,1.21-4.06,0-7.52-1.31-10.36-3.93-3.15-2.89-4.75-6.76-4.75-11.63s1.63-9.13,4.87-12.17c2.9-2.74,6.33-4.1,10.3-4.1,4.61,0,8.23,1.23,10.85,3.7,2.53,2.37,3.8,5.5,3.8,9.41,0,1.21-.15,2.32-.45,3.33ZM1006.36,802.59c-2.57,0-4.72.79-6.45,2.36-1.65,1.49-2.58,3.34-2.81,5.56h17.92c0-2.2-.72-4.03-2.18-5.49-1.59-1.62-3.76-2.42-6.49-2.42ZM1076.54,829.26v-19.42c0-4.83-2.21-7.26-6.61-7.26-1.39,0-2.69.41-3.9,1.22-1.21.81-2.03,1.73-2.48,2.77v22.68h-5.74v-21.8c0-1.51-.6-2.69-1.79-3.56-1.21-.87-2.79-1.31-4.77-1.31-1.14,0-2.37.42-3.67,1.26-1.3.84-2.22,1.77-2.76,2.78v22.63h-5.73v-30.68h3.74l1.9,3.56c2.22-2.76,4.99-4.13,8.31-4.13,4.63,0,7.88,1.36,9.72,4.1.65-1.16,1.84-2.14,3.6-2.93,1.76-.78,3.56-1.17,5.4-1.17,3.35,0,5.94.94,7.77,2.82,1.84,1.89,2.75,4.53,2.75,7.92v20.51h-5.74ZM1121.03,825.74c-2.3,2.73-5.82,4.1-10.54,4.1-2.55,0-4.75-.88-6.61-2.62-1.86-1.75-2.79-3.92-2.79-6.53,0-3.11,1.44-5.74,4.31-7.89,2.87-2.15,6.52-3.23,10.98-3.23,1.21,0,2.58.25,4.11.74,0-4.96-2.33-7.44-7-7.44-3.59,0-6.35.91-8.28,2.75l-2.42-4.56c1.09-.84,2.6-1.55,4.52-2.16,1.93-.61,3.77-.9,5.52-.9,4.69,0,8.11,1.01,10.23,3.03,2.12,2.03,3.19,5.24,3.19,9.66v11c0,2.69.85,4.49,2.54,5.38v2.73c-2.34,0-4.08-.32-5.24-.95-1.17-.63-1.99-1.67-2.5-3.12ZM1120.48,814.19c-1.82-.38-3.08-.58-3.81-.58-2.9,0-5.27.71-7.09,2.12-1.84,1.42-2.76,3.09-2.76,5.02,0,3.19,1.98,4.78,5.95,4.78,2.9,0,5.46-1.31,7.7-3.92v-7.42ZM1145.45,827.42l2.03-5.15c3.2,1.98,5.78,2.98,7.74,2.98,3.53,0,5.31-1.42,5.31-4.24,0-2.02-1.71-3.77-5.13-5.21-2.64-1.14-4.41-2.02-5.33-2.61-.92-.58-1.71-1.26-2.38-2.01-.68-.76-1.18-1.56-1.52-2.4-.33-.85-.49-1.76-.49-2.74,0-2.52.97-4.49,2.9-5.91,1.94-1.41,4.46-2.11,7.59-2.11,2.35,0,5.32.7,8.91,2.11l-1.63,5.05c-2.28-1.72-4.57-2.58-6.86-2.58-1.37,0-2.53.32-3.47.92-.94.61-1.4,1.39-1.4,2.32,0,1.97,1.18,3.45,3.54,4.47l4.1,1.77c2.51,1.09,4.35,2.32,5.5,3.73,1.15,1.4,1.72,3.13,1.72,5.24,0,2.75-1.01,4.91-3.06,6.46-2.03,1.56-4.85,2.34-8.45,2.34-3.4,0-6.61-.8-9.61-2.42ZM468.6,741.36v19.53c0,13.27,4.6,14.39,18.66,14.39,19.73,0,28.53-.03,48.26-.03,6.76,0,12.29,5.22,12.29,11.6v23.21c0,6.38-5.53,11.6-12.29,11.6l-4.76.08h-64.56c-18.91,0-45.03-1.51-46.05-32.36-1.42-43.14-.75-121.81-.75-164.97,0-6.38,5.53-11.6,12.28-11.6h24.57c6.76,0,12.3,5.22,12.29,11.6l.05,70.49v46.46ZM328.13,693.18v-19.52c0-13.27,4.24-14.39,17.2-14.39h6.8c.27.02.55.03.83.03h46.93c6.23,0,11.32-5.22,11.32-11.6v-23.2c0-6.38-5.09-11.6-11.32-11.6l-4.39-.08h-69.58c-17.43,0-41.5,1.51-42.44,32.36-1.31,43.14-.69,121.81-.69,164.97,0,6.38,5.1,11.6,11.32,11.6h22.65c6.23,0,11.33-5.22,11.33-11.6,0-23.49.05-46.99.05-70.49,24.02,0,47.87-.13,71.75-.13,6.23,0,11.32-5.22,11.32-11.6v-23.21c0-6.38-5.09-11.6-11.32-11.6-23.92,0-47.84.07-71.75.07Z"/>
    <path class="cls-2" d="M1139.58,669.49c-.18-4.92-2.03-9.03-5.73-12.52-3.64-3.43-7.89-5.11-13.03-5.11h-5.79c-5.21,0-9.51,1.86-13.25,5.17-3.73,3.44-5.51,7.47-5.51,12.38v60.86c0,5.74,1.89,10.71,5.93,15.02,3.99,4.24,8.82,6.76,14.74,7.56h1.97c5.87-.8,10.64-3.36,14.58-7.56,4.06-4.32,6.09-9.24,6.09-15.02v-60.78ZM1050.43,735.75c.05.26.11.53.17.79.12.6.18.55.18,1.48v24.8c0,6.32-4.13,10.31-10.68,10.31h-5.32c-6.55,0-10.68-3.99-10.68-10.31v-19.78h-.16v-4.87c0-5.03-1.82-9.2-5.59-12.75-3.6-3.57-7.85-5.36-13.01-5.36h-24.56v42.76c0,6.25-4,10.31-10.52,10.31h-5.48c-6.52,0-10.52-4.06-10.52-10.31v-120.8c0-6.25,4-10.31,10.52-10.31h41.33c12.35.34,22.95,4.82,31.48,13.39,8.73,8.43,13.2,18.71,13.2,30.64,0,7.6-1.84,14.81-5.76,21.41-2.5,4.19-5.55,7.93-9.15,11.15,3.23,2.58,6.02,5.61,8.37,9.07,3.78,5.57,5.79,11.76,6.2,18.39ZM976.55,652.19v47.11c12.4,0,33.19,2.29,42.7-6.88,9.51-9.19,9.5-24,0-33.18-8.94-8.62-30.36-7.04-42.7-7.04ZM900.66,719.55v.52h-29.29v42.76c0,6.25-4,10.31-10.52,10.31h-5.48c-6.52,0-10.53-4.06-10.53-10.31v-120.8c0-1.45.21-2.78.63-3.98-31.65,36.58-45.67,90.88-69.2,135.82-11.76-13.73-23-29.69-33.47-47.78,26.13-62.52,51.67-125.39,135.43-129.36,17.26-.82,34.55-.09,51.82,0v.25c-35.86,2.57-60.8,16.11-79.7,35.71,1.44-.64,3.12-.98,5.01-.98h41.33c12.35.34,22.95,4.82,31.47,13.39,8.74,8.43,13.21,18.71,13.21,30.64s-4.49,22.19-13.03,30.77c-7.72,7.56-16.99,11.99-27.68,13.03ZM885.24,652.19h-13.87v47.11h19.07c6.74,0,12.34-2.29,17.11-6.88,4.8-4.64,7.14-10.11,7.14-16.67s-2.37-11.91-7.14-16.52c-4.8-4.64-10.47-6.89-17.26-6.89h-5.04v-.15ZM1122.86,773.14h-10.02c-.82,0-1.65-.04-2.46-.15-10.64,0-22.01-6.24-29.52-14.32-7.52-8.09-11.27-17.64-11.27-28.4,0-1.01-.03-2.18.15-3.26v-57.6c0-10.29,3.78-19.27,11.5-26.56,7.7-7.26,17.2-10.92,28.13-11.14h17.34c10.77.22,20.14,3.95,27.75,11.14,7.7,7.26,11.58,16.23,11.82,26.53v60.89c0,10.78-3.91,20.32-11.49,28.46-8.93,9.21-19.8,14.41-31.93,14.41ZM766.55,790.85c-23.3,37.04-56.69,64.1-118.72,62.64-13.07-.31-26.14-.18-39.21-.08v-.17c69.09-4.03,98.66-47.66,121.54-97.84,11.26,13.48,23.4,25.34,36.4,35.45Z"/>
  </g>
</svg>