<svg id="Upload_Glyph_Style" viewBox="0 0 512 512" xmlns="http://www.w3.org/2000/svg" data-name="Upload Glyph Style"><path d="m437.28 362.56c-17.76 0-33.76 6.56-46.56 16.8l-66.4-66.4a89.672 89.672 0 0 0 20.32-48.96h63.52a43.36 43.36 0 1 0 0-16h-63.52a89.666 89.666 0 0 0 -20.32-48.96l59.36-59.36a77.757 77.757 0 0 0 49.44 18.08 78.88 78.88 0 1 0 -78.88-78.88 77.753 77.753 0 0 0 18.08 49.439l-59.36 59.361a89.673 89.673 0 0 0 -48.96-20.321v-63.519a43.36 43.36 0 1 0 -16 0v63.519a89.669 89.669 0 0 0 -49.12 20.481l-37.12-37.12a67.582 67.582 0 1 0 -49.28 21.44 66.148 66.148 0 0 0 36.96-11.04l38.24 38.08a88.5 88.5 0 0 0 -20.32 48.8h-63.52a43.359 43.359 0 1 0 0 16h63.52a89.672 89.672 0 0 0 20.32 48.96l-20.8 20.96a100.5 100.5 0 0 0 -65.6-24.32c-55.84 0-101.28 45.44-101.28 101.12a101.2 101.2 0 1 0 178.08-65.6l20.96-20.8a89.666 89.666 0 0 0 48.96 20.32v45.92a43.36 43.36 0 1 0 16 0v-45.92a89.666 89.666 0 0 0 48.96-20.321l66.4 66.4c-10.24 12.8-16.8 28.8-16.8 46.559a74.72 74.72 0 1 0 74.72-74.719zm-67.04-283.68a62.881 62.881 0 1 1 110.4 40.8 48.62 48.62 0 0 0 -24.8-32.8 30.6 30.6 0 0 0 8.16-20.64 30.8 30.8 0 1 0 -61.6 0 29.857 29.857 0 0 0 8.16 20.64 48.376 48.376 0 0 0 -24.96 32.8 62.781 62.781 0 0 1 -15.36-40.8zm-236.64 31.84a26.633 26.633 0 0 0 6.24-16.96 27.28 27.28 0 0 0 -54.56 0 26.633 26.633 0 0 0 6.24 16.96 42.743 42.743 0 0 0 -19.52 25.44 51.236 51.236 0 0 1 -11.2-31.681 51.76 51.76 0 1 1 103.52 0 51.236 51.236 0 0 1 -11.2 31.681 42.743 42.743 0 0 0 -19.52-25.44zm52.8 300a84.811 84.811 0 0 1 -24.64 59.84 60.844 60.844 0 0 0 -34.88-48.64 38 38 0 1 0 -51.36 0 61.174 61.174 0 0 0 -34.88 48.64 85.151 85.151 0 1 1 145.76-59.84zm134.4-187.68a103.774 103.774 0 0 0 -22.56-9.28 103.8 103.8 0 0 0 -9.28-22.56 72.893 72.893 0 0 1 31.84 31.84zm-64.8-40c8.64 0 17.76 10.239 24.16 27.04a166.612 166.612 0 0 0 -48.32 0c6.4-16.801 15.52-27.04 24.16-27.04zm-72.96 72.96c0-8.641 10.24-17.76 27.04-24.16a166.705 166.705 0 0 0 0 48.32c-16.8-6.4-27.04-15.52-27.04-24.16zm8.16 32.96a103.823 103.823 0 0 0 22.56 9.28 103.823 103.823 0 0 0 9.28 22.56 72.9 72.9 0 0 1 -31.84-31.84zm22.56-75.2a103.774 103.774 0 0 0 -22.56 9.28 72.893 72.893 0 0 1 31.84-31.84 103.8 103.8 0 0 0 -9.28 22.56zm42.24 115.2c-8.64 0-17.76-10.24-24.16-27.04a166.705 166.705 0 0 0 48.32 0c-6.4 16.8-15.52 27.04-24.16 27.04zm28.96-44a155.529 155.529 0 0 1 -57.92 0 155.529 155.529 0 0 1 0-57.92 155.473 155.473 0 0 1 57.92 0 155.529 155.529 0 0 1 0 57.92zm4 35.84a103.823 103.823 0 0 0 9.28-22.56 103.823 103.823 0 0 0 22.56-9.28 72.9 72.9 0 0 1 -31.84 31.84zm12.96-40.64a166.705 166.705 0 0 0 0-48.32c16.8 6.4 27.04 15.519 27.04 24.16s-10.24 17.76-27.04 24.16zm180.32 194.56a46.538 46.538 0 0 0 -22.88-30.08 29.441 29.441 0 1 0 -44.16 0 45.817 45.817 0 0 0 -22.72 30.08 58.641 58.641 0 1 1 89.76 0z"/></svg>