<svg id="Layer_1" enable-background="new 0 0 512 512" viewBox="0 0 512 512" xmlns="http://www.w3.org/2000/svg"><path d="m296.92 48.41h-89.46c-9.89 0-18.03 8.14-18.03 18.03v58.85c0 9.92 8.14 18.03 18.03 18.03 3.63 0 6.58 2.95 6.58 6.55v15.31l18.23-19.45c1.19-1.45 3.03-2.41 5.07-2.41h59.58c9.92 0 18.06-8.11 18.06-18.03v-58.85c0-9.9-8.14-18.03-18.06-18.03zm-81.1 37.87c-3.32 0-5.98-2.66-5.98-5.98s2.66-6.01 5.98-6.01h33.99c3.32 0 5.98 2.69 5.98 6.01s-2.66 5.98-5.98 5.98zm0 26.67c-3.32 0-5.98-2.69-5.98-6.01s2.66-6.01 5.98-6.01h62.19c3.32 0 6.01 2.69 6.01 6.01s-2.69 6.01-6.01 6.01zm-42.18 140.01c-8.62 5.95-19.08 9.44-30.36 9.44-11.31 0-21.8-3.51-30.44-9.5-12.44 1.67-23.22 5.87-30.64 12.64-6.86 6.21-10.94 14.77-10.94 25.74l-.09 59.27h20.47v-53.06c0-3.32 2.69-6.01 6.01-6.01s5.98 2.69 5.98 6.01v53.06h79.46v-67.1c0-2.86 2.04-5.39 4.96-5.9 43.88-7.71 70.89-35.94 81.38-79.17 2.61-10.8-9.18-19.45-18.71-13.63-2.72 1.67-4.85 4.37-5.64 7.74-4.22 17.38-11.85 33.14-24.92 44.22-14.66 12.5-29.08 16.79-46.52 16.25zm-30.36-84.42c-22.76 0-41.3 18.23-41.3 40.93 0 22.88 18.68 40.93 41.3 40.93 22.76 0 41.3-18.23 41.3-40.93s-18.53-40.93-41.3-40.93zm286.22 247.64c10.43 9.64 16.92 23.39 16.92 38.52v14.68h31.86v-14.68c0-22.25-18.23-40.45-40.45-40.45h-2.75c-1.81.76-3.66 1.42-5.58 1.93zm-35.21-55.19c-16.38-16.38-44.48-4.73-44.48 18.43 0 19.45 20.44 31.78 37.47 23.41 16.11-7.94 19.63-29.23 7.01-41.84zm-3.09 53.26c-4.71 2.04-9.89 3.2-15.34 3.2-5.47 0-10.66-1.16-15.34-3.2h-2.75c-22.25 0-40.48 18.2-40.48 40.45v14.68h117.1v-14.68c0-22.25-18.2-40.45-40.45-40.45zm15.36-57.35c9.81 13.38 9.81 31.61 0 44.99 17.23 10.09 39.23-2.24 39.23-22.48.01-20.21-21.99-32.6-39.23-22.51zm-118.34 5.67h-247.92v35.6h247.92zm-220.88 103.69h191.59v-56.1h-191.59zm192.08-160.98c13.44 7.09 19.25 20.04 19.7 35.83.09 3.29-2.52 6.04-5.81 6.15-3.32.08-6.07-2.52-6.15-5.84-.31-11.79-4.14-21.12-14.26-26.02-10.49 7.34-25.06-.17-25.06-13.04 0-14.14 17.18-21.26 27.18-11.25 3.63 3.63 5.36 8.9 4.4 14.17zm159.99-120.33h-86.51c-9.58 0-17.46 7.85-17.46 17.43v56.92c0 9.58 7.88 17.43 17.46 17.43h57.63c1.96 0 3.74.91 4.9 2.35l17.63 18.79v-14.8c0-3.51 2.83-6.35 6.35-6.35 9.58 0 17.43-7.85 17.43-17.43v-56.92c0-9.56-7.85-17.42-17.43-17.42zm-6.86 30.22c3.32 0 6.01 2.69 6.01 5.98 0 3.32-2.69 6.01-6.01 6.01h-33.96c-3.32 0-6.01-2.69-6.01-6.01 0-3.29 2.69-5.98 6.01-5.98zm0 26.65c3.32 0 6.01 2.69 6.01 6.01s-2.69 5.98-6.01 5.98h-62.19c-3.32 0-6.01-2.66-6.01-5.98s2.69-6.01 6.01-6.01z"/></svg>