<svg id="bold" enable-background="new 0 0 24 24" height="512" viewBox="0 0 24 24" width="512" xmlns="http://www.w3.org/2000/svg"><path d="m.856 20.081c-.076 0-.119-.001-.127-.001-.414-.012-.74-.357-.729-.77.011-.415.358-.75.77-.729.042 0 4.207.091 8.768-1.612 6.033-2.252 9.888-6.424 11.456-12.399.105-.4.515-.639.916-.535.4.105.64.515.535.916-3.87 14.748-19.986 15.13-21.589 15.13z"/><path d="m23.25 8.098c-.064 0-.13-.008-.194-.025l-4.098-1.098c-.293-.079-.51-.326-.549-.627-.04-.3.106-.596.369-.747l2.598-1.5c.358-.207.817-.085 1.024.274l1.5 2.598c.152.263.13.591-.054.832-.145.188-.367.293-.596.293z"/><path d="m21.75 24c-.552 0-1-.448-1-1v-12c0-.552.448-1 1-1s1 .448 1 1v12c0 .552-.448 1-1 1z"/><path d="m15.75 24c-.552 0-1-.448-1-1v-5c0-.552.448-1 1-1s1 .448 1 1v5c0 .552-.448 1-1 1z"/><path d="m9.75 24c-.552 0-1-.448-1-1v-2c0-.552.448-1 1-1s1 .448 1 1v2c0 .552-.448 1-1 1z"/><path d="m3.75 24c-.552 0-1-.448-1-1v-.5c0-.552.448-1 1-1s1 .448 1 1v.5c0 .552-.448 1-1 1z"/><path d="m14.854.147c-.097-.096-.24-.151-.363-.147-2.827.053-6.125 1.703-8.219 4.1-2.266.081-4.156.764-5.335 1.943-.128.128-.177.315-.128.489s.188.308.365.351l2.129.51-.013.014c-.178.197-.17.5.018.688l3.597 3.597c.097.098.225.146.354.146.12 0 .239-.042.334-.128l.014-.013.51 2.129c.042.176.176.316.351.365.045.013.09.019.136.019.131 0 .258-.051.354-.146 1.18-1.18 1.862-3.07 1.943-5.336 2.4-2.101 4.047-5.395 4.1-8.219.001-.135-.051-.266-.147-.362z"/><path d="m1.716 10.347c-.671.671-1.53 3.458-1.695 4.01-.053.176-.004.367.125.497.096.095.223.146.354.146.048 0 .096-.007.144-.021.552-.165 3.338-1.023 4.01-1.695.81-.81.81-2.127 0-2.938-.812-.81-2.13-.809-2.938.001z"/></svg>