<?xml version="1.0" encoding="UTF-8"?>
<svg id="Layer_1" data-name="Layer 1" xmlns="http://www.w3.org/2000/svg" xmlns:xlink="http://www.w3.org/1999/xlink" viewBox="0 0 595.28 503.89">
  <defs>
    <style>
      .cls-1 {
        fill: url(#radial-gradient);
      }

      .cls-2 {
        fill: url(#radial-gradient-3);
      }

      .cls-3 {
        fill: url(#radial-gradient-2);
      }

      .cls-4 {
        fill: url(#radial-gradient-4);
      }

      .cls-5 {
        fill: #373435;
      }
    </style>
    <radialGradient id="radial-gradient" cx="297.74" cy="165.82" fx="297.74" fy="165.82" r="40.28" gradientUnits="userSpaceOnUse">
      <stop offset="0" stop-color="#008785"/>
      <stop offset="1" stop-color="#006a68"/>
    </radialGradient>
    <radialGradient id="radial-gradient-2" cx="294.12" cy="190.29" fx="294.12" fy="190.29" r="38.69" xlink:href="#radial-gradient"/>
    <radialGradient id="radial-gradient-3" cx="287.28" cy="207.07" fx="287.28" fy="207.07" r="32.35" xlink:href="#radial-gradient"/>
    <radialGradient id="radial-gradient-4" cx="283.93" cy="228.17" fx="283.93" fy="228.17" r="24.2" xlink:href="#radial-gradient"/>
  </defs>
  <path class="cls-5" d="M465.09,341.14c0,2.86-1.99,4.29-5.97,4.29-1.46,0-2.75-.17-3.87-.5l.41-1.82c1.3.45,2.53.67,3.7.67,2.63,0,3.94-.74,3.94-2.23,0-.75-.34-1.39-1.02-1.92-.46-.36-1.35-.83-2.69-1.43-1.41-.63-2.39-1.2-2.96-1.73-.78-.73-1.17-1.64-1.17-2.73s.4-2.08,1.2-2.8c.89-.8,2.14-1.2,3.77-1.2,1.84,0,3.1.12,3.78.36l-.28,1.84c-1.17-.37-2.42-.55-3.74-.55-1.99,0-2.98.66-2.98,1.99,0,.64.29,1.18.86,1.61.37.27,1.19.68,2.46,1.23,1.44.62,2.49,1.22,3.13,1.78.97.85,1.45,1.89,1.45,3.13M448.74,337.54c0-1.99-.53-3.54-1.57-4.63-1.05-1.09-2.26-1.64-3.62-1.64-1.27,0-2.39.57-3.38,1.73-.99,1.15-1.48,2.69-1.48,4.61s.53,3.55,1.58,4.64c1.06,1.1,2.26,1.64,3.62,1.64,1.27,0,2.39-.58,3.38-1.75.99-1.17,1.48-2.7,1.48-4.6ZM450.8,337.27c0,2.5-.73,4.49-2.19,5.99-1.46,1.5-3.15,2.24-5.06,2.24s-3.45-.68-4.84-2.06c-1.39-1.37-2.08-3.23-2.08-5.56,0-2.52.73-4.53,2.19-6.01,1.46-1.48,3.15-2.22,5.07-2.22s3.45.69,4.84,2.06c1.39,1.37,2.08,3.23,2.08,5.56ZM429.93,337.48c0-1.72-.55-3.15-1.64-4.3-1.09-1.15-2.78-1.73-5.07-1.73-.32,0-.77.04-1.33.12.06,1.8.09,3.65.09,5.55,0,2.09.04,4.21.13,6.36.62.12,1.21.18,1.78.18,2.04,0,3.56-.6,4.55-1.81.99-1.21,1.49-2.66,1.49-4.36ZM431.94,336.96c0,2.2-.7,4.12-2.1,5.77-1.4,1.65-3.34,2.48-5.8,2.48-.8,0-2.14-.06-4.02-.16.11-2.4.17-5.04.17-7.93,0-2.72-.06-5.11-.17-7.17h1.27c.31,0,.78,0,1.42-.03.63-.02,1.05-.04,1.25-.04,2.73,0,4.74.67,6.04,2.01,1.3,1.34,1.95,3.03,1.95,5.06ZM411.12,338.65c-1.82-4.54-2.73-6.95-2.73-7.23h-.13c0,.24-.94,2.65-2.82,7.23h5.67ZM415.56,345.05h-2.45c0-.52-.49-2.14-1.46-4.88h-6.69c-.96,2.69-1.44,4.32-1.44,4.88h-2.34c0-.28,1-2.76,2.99-7.42,1.99-4.65,2.99-7.21,2.99-7.68h2.69c0,.46.95,2.98,2.85,7.57,1.9,4.59,2.85,7.1,2.85,7.52ZM396.72,345.05h-2.2c.11-2.5.17-5.15.17-7.93s-.06-5.12-.17-7.17h2.2c-.11,2.11-.16,4.5-.16,7.17,0,2.8.06,5.44.16,7.93ZM389.56,343.2l-.15,1.73c-.95.28-1.99.43-3.11.43-2.66,0-4.66-.73-5.99-2.18-1.34-1.46-2.01-3.24-2.01-5.34,0-2.2.75-4.1,2.24-5.7,1.49-1.6,3.5-2.39,6.02-2.39.7,0,1.43.1,2.2.31l-.32,1.84c-.89-.28-1.68-.42-2.38-.42-1.87,0-3.29.58-4.25,1.74-.97,1.16-1.45,2.58-1.45,4.25s.55,3.17,1.67,4.39c1.12,1.22,2.65,1.83,4.62,1.83.75,0,1.72-.17,2.92-.5ZM371.56,337.54c0-1.99-.53-3.54-1.57-4.63-1.05-1.09-2.26-1.64-3.62-1.64-1.27,0-2.39.57-3.38,1.73-.99,1.15-1.48,2.69-1.48,4.61s.53,3.55,1.58,4.64c1.06,1.1,2.26,1.64,3.62,1.64,1.27,0,2.39-.58,3.38-1.75.99-1.17,1.48-2.7,1.48-4.6ZM373.62,337.27c0,2.5-.73,4.49-2.19,5.99-1.46,1.5-3.15,2.24-5.07,2.24s-3.45-.68-4.84-2.06c-1.39-1.37-2.08-3.23-2.08-5.56,0-2.52.73-4.53,2.19-6.01,1.46-1.48,3.15-2.22,5.06-2.22s3.45.69,4.84,2.06c1.39,1.37,2.08,3.23,2.08,5.56ZM354.99,341.14c0,2.86-1.99,4.29-5.97,4.29-1.46,0-2.75-.17-3.87-.5l.41-1.82c1.3.45,2.53.67,3.7.67,2.63,0,3.94-.74,3.94-2.23,0-.75-.34-1.39-1.02-1.92-.46-.36-1.35-.83-2.69-1.43-1.41-.63-2.39-1.2-2.96-1.73-.78-.73-1.17-1.64-1.17-2.73s.4-2.08,1.2-2.8c.89-.8,2.14-1.2,3.77-1.2,1.84,0,3.1.12,3.78.36l-.28,1.84c-1.17-.37-2.42-.55-3.74-.55-1.99,0-2.98.66-2.98,1.99,0,.64.29,1.18.86,1.61.37.27,1.19.68,2.46,1.23,1.44.62,2.49,1.22,3.13,1.78.97.85,1.45,1.89,1.45,3.13ZM340.71,341.14c0,2.86-1.99,4.29-5.97,4.29-1.46,0-2.75-.17-3.87-.5l.41-1.82c1.3.45,2.53.67,3.7.67,2.63,0,3.94-.74,3.94-2.23,0-.75-.34-1.39-1.02-1.92-.46-.36-1.35-.83-2.69-1.43-1.41-.63-2.39-1.2-2.96-1.73-.78-.73-1.17-1.64-1.17-2.73s.4-2.08,1.2-2.8c.89-.8,2.14-1.2,3.77-1.2,1.84,0,3.1.12,3.78.36l-.28,1.84c-1.17-.37-2.42-.55-3.74-.55-1.99,0-2.98.66-2.98,1.99,0,.64.29,1.18.86,1.61.37.27,1.19.68,2.46,1.23,1.44.62,2.49,1.22,3.13,1.78.97.85,1.45,1.89,1.45,3.13ZM323,338.65c-1.82-4.54-2.73-6.95-2.73-7.23h-.13c0,.24-.94,2.65-2.82,7.23h5.67ZM327.44,345.05h-2.45c0-.52-.49-2.14-1.46-4.88h-6.69c-.96,2.69-1.44,4.32-1.44,4.88h-2.34c0-.28,1-2.76,2.99-7.42,1.99-4.65,2.99-7.21,2.99-7.68h2.69c0,.46.95,2.98,2.85,7.57,1.9,4.59,2.85,7.1,2.85,7.52ZM304.87,343.3l-.07,1.75h-9.34c.11-2.4.16-5.04.16-7.93,0-2.72-.06-5.11-.16-7.17h8.76l-.1,1.73c-2.13-.09-4.38-.14-6.76-.14.05,1.2.07,2.82.07,4.86,2.05,0,3.89-.04,5.49-.14v1.73c-1.71-.07-3.55-.11-5.49-.11,0,1.99.04,3.85.1,5.59,2.57,0,5.01-.06,7.33-.17ZM284.83,341.14c0,2.86-1.99,4.29-5.97,4.29-1.46,0-2.75-.17-3.87-.5l.41-1.82c1.3.45,2.53.67,3.7.67,2.63,0,3.94-.74,3.94-2.23,0-.75-.34-1.39-1.02-1.92-.46-.36-1.35-.83-2.69-1.43-1.41-.63-2.39-1.2-2.96-1.73-.78-.73-1.17-1.64-1.17-2.73s.4-2.08,1.2-2.8c.89-.8,2.15-1.2,3.77-1.2,1.84,0,3.1.12,3.78.36l-.28,1.84c-1.17-.37-2.42-.55-3.74-.55-1.99,0-2.98.66-2.98,1.99,0,.64.29,1.18.86,1.61.37.27,1.19.68,2.46,1.23,1.44.62,2.49,1.22,3.13,1.78.97.85,1.45,1.89,1.45,3.13ZM270.93,343.3l-.07,1.75h-9.34c.11-2.4.16-5.04.16-7.93,0-2.72-.06-5.11-.16-7.17h8.76l-.1,1.73c-2.13-.09-4.38-.14-6.76-.14.05,1.2.07,2.82.07,4.86,2.05,0,3.89-.04,5.49-.14v1.73c-1.71-.07-3.55-.11-5.49-.11,0,1.99.04,3.85.1,5.59,2.57,0,5.01-.06,7.33-.17ZM252.87,334.17c0-1.84-1.24-2.76-3.73-2.76-.89,0-1.63.05-2.24.15.06,1.35.08,3.17.08,5.48.46.02.91.02,1.33.02,3.04,0,4.55-.97,4.55-2.9ZM256.42,345.05h-2.24c-.74-2.22-1.28-3.69-1.62-4.4-.44-.91-.93-1.49-1.47-1.75-.44-.21-1.21-.31-2.33-.31-.66,0-1.24,0-1.75.02,0,2.5.04,4.65.14,6.45h-2.16c.11-2.4.17-5.04.17-7.93,0-2.72-.06-5.11-.17-7.17h1.63c.35,0,.79,0,1.32-.03.53-.02,1.14-.04,1.83-.04,3.38,0,5.08,1.17,5.08,3.5,0,1.94-.95,3.3-2.85,4.09v.11c.85.26,1.54.85,2.07,1.77.44.78,1.22,2.67,2.35,5.68ZM237.45,337.54c0-1.99-.53-3.54-1.57-4.63-1.05-1.09-2.26-1.64-3.62-1.64-1.27,0-2.39.57-3.38,1.73-.99,1.15-1.48,2.69-1.48,4.61s.53,3.55,1.58,4.64c1.06,1.1,2.26,1.64,3.62,1.64,1.27,0,2.39-.58,3.38-1.75.99-1.17,1.48-2.7,1.48-4.6ZM239.51,337.27c0,2.5-.73,4.49-2.19,5.99-1.46,1.5-3.15,2.24-5.06,2.24s-3.45-.68-4.84-2.06c-1.39-1.37-2.08-3.23-2.08-5.56,0-2.52.73-4.53,2.19-6.01,1.46-1.48,3.15-2.22,5.07-2.22s3.45.69,4.84,2.06c1.39,1.37,2.08,3.23,2.08,5.56ZM221.78,329.95l-.05,1.64c-1.53-.08-3.11-.12-4.74-.12-.02,1.48-.02,3.37-.02,5.65,0,2.52.04,5.16.12,7.93h-2.12c.09-2.64.14-5.28.14-7.93,0-2.25-.02-4.13-.07-5.65-1.14,0-2.75.05-4.82.14l.06-1.66h11.52ZM207.03,343.3l-.07,1.75h-9.34c.11-2.4.16-5.04.16-7.93,0-2.72-.06-5.11-.16-7.17h8.76l-.1,1.73c-2.12-.09-4.38-.14-6.76-.14.05,1.2.07,2.82.07,4.86,2.05,0,3.89-.04,5.49-.14v1.73c-1.71-.07-3.55-.11-5.49-.11,0,1.99.04,3.85.1,5.59,2.57,0,5.01-.06,7.33-.17ZM188.97,334.17c0-1.84-1.24-2.76-3.73-2.76-.89,0-1.63.05-2.24.15.06,1.35.08,3.17.08,5.48.46.02.91.02,1.33.02,3.04,0,4.55-.97,4.55-2.9ZM192.52,345.05h-2.24c-.74-2.22-1.28-3.69-1.62-4.4-.44-.91-.93-1.49-1.47-1.75-.44-.21-1.21-.31-2.33-.31-.66,0-1.24,0-1.75.02,0,2.5.04,4.65.14,6.45h-2.16c.11-2.4.17-5.04.17-7.93,0-2.72-.06-5.11-.17-7.17h1.63c.35,0,.79,0,1.32-.03.53-.02,1.14-.04,1.83-.04,3.38,0,5.08,1.17,5.08,3.5,0,1.94-.95,3.3-2.85,4.09v.11c.85.26,1.54.85,2.07,1.77.44.78,1.22,2.67,2.35,5.68ZM172.44,334.17c0-1.84-1.24-2.76-3.73-2.76-.89,0-1.63.05-2.24.15.06,1.35.08,3.17.08,5.48.46.02.91.02,1.33.02,3.03,0,4.55-.97,4.55-2.9ZM175.99,345.05h-2.24c-.74-2.22-1.28-3.69-1.62-4.4-.44-.91-.93-1.49-1.47-1.75-.44-.21-1.21-.31-2.33-.31-.66,0-1.24,0-1.75.02,0,2.5.04,4.65.14,6.45h-2.16c.11-2.4.17-5.04.17-7.93,0-2.72-.06-5.11-.17-7.17h1.63c.35,0,.79,0,1.32-.03.53-.02,1.14-.04,1.83-.04,3.38,0,5.08,1.17,5.08,3.5,0,1.94-.95,3.3-2.85,4.09v.11c.85.26,1.54.85,2.07,1.77.44.78,1.22,2.67,2.35,5.68ZM157.02,337.54c0-1.99-.53-3.54-1.57-4.63-1.05-1.09-2.26-1.64-3.62-1.64-1.27,0-2.39.57-3.38,1.73-.99,1.15-1.48,2.69-1.48,4.61s.53,3.55,1.58,4.64c1.06,1.1,2.26,1.64,3.62,1.64,1.27,0,2.39-.58,3.38-1.75.99-1.17,1.48-2.7,1.48-4.6ZM159.08,337.27c0,2.5-.73,4.49-2.19,5.99-1.46,1.5-3.15,2.24-5.06,2.24s-3.45-.68-4.84-2.06c-1.39-1.37-2.08-3.23-2.08-5.56,0-2.52.73-4.53,2.19-6.01,1.46-1.48,3.15-2.22,5.06-2.22s3.45.69,4.84,2.06c1.39,1.37,2.08,3.23,2.08,5.56ZM140.96,343.2l-.15,1.73c-.95.28-1.99.43-3.11.43-2.66,0-4.66-.73-5.99-2.18-1.34-1.46-2.01-3.24-2.01-5.34,0-2.2.75-4.1,2.24-5.7,1.49-1.6,3.5-2.39,6.02-2.39.7,0,1.43.1,2.2.31l-.32,1.84c-.89-.28-1.68-.42-2.38-.42-1.87,0-3.29.58-4.25,1.74-.97,1.16-1.45,2.58-1.45,4.25s.55,3.17,1.67,4.39c1.12,1.22,2.65,1.83,4.62,1.83.75,0,1.72-.17,2.92-.5Z"/>
  <path class="cls-5" d="M465.57,298.94c0,7.84-5.63,11.74-16.88,11.74-3.83,0-7.39-.45-10.67-1.37l1.47-6.71c3.25,1.13,6.31,1.68,9.2,1.68,3.2,0,5.51-.31,6.9-.92,1.41-.63,2.11-1.67,2.11-3.13,0-1.53-.67-2.81-1.99-3.85-1.14-.92-3.46-2.12-6.94-3.61-3.16-1.35-5.52-2.84-7.06-4.44-1.94-2.02-2.91-4.52-2.91-7.49,0-3.45,1.27-6.13,3.83-8.08,2.55-1.94,6.23-2.91,11.02-2.91,3.93,0,7.22.33,9.89,1l-1.12,6.67c-2.7-.98-5.62-1.47-8.77-1.47-4.73,0-7.09,1.26-7.09,3.78,0,1.34.54,2.43,1.65,3.27.96.72,3.06,1.73,6.28,3.04,3.43,1.38,5.99,2.9,7.69,4.56,2.27,2.23,3.4,4.97,3.4,8.24M425.09,290.19c0-4.18-1.08-7.58-3.22-10.19-2.14-2.61-4.79-3.91-7.93-3.91-2.93,0-5.42,1.31-7.46,3.94-2.04,2.63-3.07,5.94-3.07,9.95s1.08,7.56,3.23,10.17c2.15,2.61,4.79,3.92,7.92,3.92,2.92,0,5.41-1.31,7.46-3.95,2.04-2.64,3.07-5.95,3.07-9.94ZM433.38,289.32c0,6.15-1.88,11.25-5.65,15.3-3.76,4.04-8.42,6.06-13.97,6.06s-9.71-1.86-13.28-5.57c-3.57-3.71-5.34-8.44-5.34-14.17,0-6.15,1.88-11.25,5.64-15.3,3.77-4.04,8.43-6.06,13.98-6.06s9.71,1.85,13.28,5.56c3.56,3.7,5.34,8.43,5.34,14.18ZM380.89,281.97c0-3.99-2.56-5.98-7.69-5.98-1.88,0-3.55.13-4.99.42.22,3.1.33,7.15.33,12.13,1.1.04,2.03.06,2.79.06,6.38,0,9.56-2.22,9.56-6.64ZM392.16,309.61h-8.89c-2.33-7.09-4.11-11.47-5.35-13.13-1.24-1.66-3.24-2.49-6.01-2.49-1.16,0-2.27.01-3.33.02,0,5.15.09,10.35.27,15.6h-8.35c.26-6.05.39-12.87.39-20.46s-.13-13.52-.39-18.67h5.2c.6,0,1.86-.02,3.76-.08,1.92-.06,3.68-.09,5.31-.09,9.19,0,13.79,3.15,13.79,9.44,0,4.99-2.63,8.46-7.87,10.42v.45c2.02.56,3.79,2.14,5.31,4.74,1.53,2.6,3.58,7.34,6.16,14.26ZM352.49,270.48c-.18,6.74-.27,13.47-.27,20.2,0,13.3-5.46,19.96-16.35,19.96-5.4,0-9.45-1.48-12.18-4.42-2.72-2.94-4.08-8.24-4.08-15.87,0-6.73-.09-13.35-.28-19.87h8.51c-.27,6.78-.4,13.3-.4,19.6,0,5.51.71,9.28,2.11,11.32,1.39,2.04,3.56,3.07,6.48,3.07,3.07,0,5.28-1.02,6.65-3.05,1.36-2.04,2.04-5.84,2.04-11.41,0-6.11-.13-12.63-.39-19.54h8.14ZM312.72,308.58c-4.77,1.23-8.76,1.84-11.97,1.84-6.88,0-12.11-1.89-15.66-5.66-3.56-3.77-5.33-8.36-5.33-13.75,0-5.66,1.94-10.6,5.81-14.78,3.88-4.19,9.25-6.28,16.12-6.28,3.23,0,6.07.29,8.53.87l-.98,7.09c-3.15-.82-5.97-1.23-8.48-1.23-4.23,0-7.37,1.3-9.46,3.89-2.09,2.6-3.13,5.76-3.13,9.52s1.17,7.16,3.5,10c2.34,2.85,5.56,4.27,9.66,4.27,1.14,0,2.46-.11,3.97-.36-.3-2.23-.45-4.41-.45-6.55s-.22-4.6-.64-7.29h8.51c-.16,3.08-.25,6.19-.25,9.31,0,2.26.08,5.3.25,9.13ZM275.12,302.99l-.25,6.62h-25.57c.26-6.05.39-12.87.39-20.46s-.13-13.52-.39-18.67h24.4l-.33,6.59c-6.01-.32-11.47-.48-16.35-.48.2,2.79.3,6.07.3,9.86,4.18,0,8.67-.11,13.44-.33v6.28c-4.69-.19-9.17-.3-13.44-.3,0,4.06.08,7.88.25,11.42,5.49,0,11.33-.16,17.55-.51ZM242.66,298.94c0,7.84-5.63,11.74-16.88,11.74-3.83,0-7.39-.45-10.67-1.37l1.47-6.71c3.25,1.13,6.31,1.68,9.2,1.68,3.2,0,5.51-.31,6.9-.92,1.41-.63,2.11-1.67,2.11-3.13,0-1.53-.67-2.81-1.99-3.85-1.14-.92-3.46-2.12-6.94-3.61-3.16-1.35-5.52-2.84-7.06-4.44-1.94-2.02-2.91-4.52-2.91-7.49,0-3.45,1.27-6.13,3.83-8.08,2.55-1.94,6.23-2.91,11.02-2.91,3.93,0,7.22.33,9.89,1l-1.12,6.67c-2.7-.98-5.62-1.47-8.77-1.47-4.73,0-7.09,1.26-7.09,3.78,0,1.34.54,2.43,1.65,3.27.96.72,3.06,1.73,6.28,3.04,3.43,1.38,5.99,2.9,7.69,4.56,2.27,2.23,3.4,4.97,3.4,8.24ZM191.6,302.99l-.25,6.62h-25.57c.26-6.05.39-12.87.39-20.46s-.13-13.52-.39-18.67h24.4l-.33,6.59c-6.01-.32-11.47-.48-16.35-.48.2,2.79.3,6.07.3,9.86,4.18,0,8.67-.11,13.44-.33v6.28c-4.69-.19-9.17-.3-13.44-.3,0,4.06.08,7.88.25,11.42,5.49,0,11.33-.16,17.55-.51ZM155.96,303.24c2.05,0,3.72,1.67,3.72,3.72s-1.66,3.72-3.72,3.72-3.72-1.67-3.72-3.72,1.66-3.72,3.72-3.72ZM149.99,270.48c-.24,5.98-.36,13.34-.36,22.12,0,6.67-1.37,11.41-4.11,14.22-2.33,2.4-5.95,3.6-10.85,3.6-1.76,0-3.52-.2-5.26-.63l.54-6.46c1.34.59,2.69.9,4.03.9,2.62,0,4.52-.57,5.7-1.71,1.7-1.65,2.55-4.75,2.55-9.32,0-9.15-.14-16.73-.45-22.72h8.21Z"/>
  <g>
    <path class="cls-1" d="M343.38,131.87c0,1.68,0,3.27,0,4.86.04,14.13.16,28.26.07,42.38-.04,6.13-.28,12.28-1.62,18.32-.15.69-.39,1.36-.68,2.34-1.8-7.04-7.17-10-12.91-12.49-6.17-2.67-12.72-4.04-19.34-5.07-6.63-1.02-13.38-1.29-19.85-3.34-7.5-2.38-14.6-5.51-20.69-10.63-3.13-2.63-5.62-5.85-6.73-8.64,5.82,6.06,13.47,7.85,21.23,9.29,6.01,1.12,12.11,1.45,18.21,1.2,8.84-.37,17.54-1.53,25.67-5.3,2.07-.96,4.1-2.21,5.82-3.69,4.15-3.57,4.1-7.77.09-11.49-2.53-2.34-5.6-3.8-8.8-4.95-6.37-2.29-12.94-3.54-19.72-3.92-9.95-.55-19.85.01-29.71,1.24-7.19.89-14.34,2.04-21.51,3.06-.27.04-.55,0-.91,0v-13.19h91.38Z"/>
    <path class="cls-3" d="M251.88,155.51c2.21,4.86,4.77,9.39,8.06,13.5,7.03,8.77,16.2,14.38,26.65,18.12,6.24,2.23,12.71,3.51,19.19,4.81,6.84,1.37,13.62,2.99,19.94,6.01,2.21,1.06,4.38,2.34,6.29,3.87,4.47,3.57,5.44,8.11,3.12,13.36-1.63,3.7-4.18,6.75-7.1,9.9.19-1.14.39-2,.48-2.87.38-3.85-1.12-6.92-3.96-9.42-2.97-2.6-6.45-4.32-10.18-5.37-5.24-1.48-10.56-2.65-15.86-3.89-10.36-2.43-20.23-5.99-28.86-12.44-9.78-7.32-15.53-17.04-17.2-29.15-.29-2.13-.37-4.29-.55-6.43Z"/>
    <path class="cls-2" d="M252.05,178.19c1.22,2.37,2.38,4.76,3.66,7.09,6.19,11.24,15.77,18.03,28.04,21.24,6.42,1.68,12.87,3.26,19.26,5.06,4.72,1.33,9.32,3.08,13.45,5.79,1.68,1.1,3.27,2.45,4.58,3.96,2.1,2.41,2.23,5.2.68,8.01-1.54,2.79-3.93,4.75-6.51,6.62-.14-.29-.26-.46-.31-.64-1.24-4.48-4.16-7.54-8.16-9.68-4.43-2.37-9.27-3.55-14.07-4.86-5.56-1.52-11.24-2.7-16.6-4.75-13.62-5.21-21.37-15.32-23.46-29.74-.39-2.68-.55-5.38-.81-8.08.08,0,.17-.01.25-.02Z"/>
    <path class="cls-4" d="M311.27,238.78c-.36.3-.61.53-.89.74-3.93,2.93-7.87,5.86-11.81,8.79-.49.36-.87.69-1.55.18-8.53-6.5-17.2-12.83-25.62-19.48-6.91-5.45-11.86-12.43-14.67-20.84-.06-.19-.1-.38-.16-.59.06.01.15,0,.17.04,4.32,7.49,10.76,12.59,18.61,15.85,6.53,2.72,13.25,5.01,19.88,7.49,5.16,1.93,10.19,4.13,14.87,7.05.36.23.71.48,1.15.78Z"/>
  </g>
</svg>