<?xml version="1.0" encoding="UTF-8"?>
<svg id="Camada_1" data-name="Camada 1" xmlns="http://www.w3.org/2000/svg" viewBox="0 0 1920 1080">
  <defs>
    <style>
      .cls-1 {
        fill: #f18e1a;
      }

      .cls-2 {
        fill: #0f5c8c;
      }

      .cls-3 {
        fill: #e84e1b;
      }
    </style>
  </defs>
  <g>
    <g>
      <path class="cls-3" d="M873.86,616.24c-1.39,0-2.43-.3-3.12-.89-.69-.59-1.04-1.31-1.04-2.14,0-.92.38-1.65,1.14-2.19.76-.54,1.97-.81,3.64-.81h2.92v1.75h-2.4c-.71,0-1.22.1-1.53.3-.3.2-.45.46-.45.8,0,.38.16.66.47.86.31.2.74.3,1.28.3s.97-.1,1.36-.31c.39-.21.68-.51.88-.91l.45,1.47c-.19.54-.6.97-1.22,1.3-.62.32-1.41.48-2.39.48ZM877.27,616.11v-1.94l-.26-.41v-3.47c0-.65-.21-1.13-.62-1.45-.41-.32-1.04-.48-1.88-.48-.56,0-1.14.09-1.72.27-.58.18-1.08.41-1.49.7l-1.17-2.12c.61-.42,1.35-.73,2.24-.94.89-.21,1.76-.31,2.63-.31,1.75,0,3.11.36,4.06,1.09.95.73,1.43,1.85,1.43,3.37v5.69h-3.21Z"/>
      <path class="cls-3" d="M896.36,629.61c-1.99,0-3.73-.38-5.23-1.12-1.49-.75-2.65-1.77-3.47-3.08-.82-1.3-1.23-2.79-1.23-4.45s.39-3.16,1.18-4.47c.79-1.31,1.89-2.34,3.31-3.08,1.42-.74,3.01-1.11,4.79-1.11s3.25.35,4.63,1.06c1.37.71,2.46,1.71,3.26,3,.8,1.29,1.2,2.84,1.2,4.66,0,.19-.01.4-.03.64-.02.24-.04.46-.07.67h-14.19v-2.84h11.53l-1.98.84c.02-.87-.15-1.64-.52-2.28-.37-.65-.88-1.15-1.53-1.51-.65-.36-1.41-.55-2.27-.55s-1.63.18-2.29.55c-.66.36-1.17.87-1.54,1.53s-.55,1.43-.55,2.33v.75c0,.94.22,1.75.65,2.44.43.69,1.03,1.21,1.79,1.58.76.36,1.67.55,2.73.55.91,0,1.72-.14,2.42-.41.7-.27,1.35-.68,1.93-1.22l2.69,2.81c-.8.87-1.81,1.55-3.02,2.01-1.21.47-2.61.7-4.19.7Z"/>
      <path class="cls-3" d="M915.68,629.61c-1.65,0-3.13-.36-4.45-1.08s-2.36-1.72-3.12-3.01c-.76-1.29-1.14-2.81-1.14-4.56s.38-3.27,1.14-4.56c.76-1.29,1.8-2.3,3.12-3.01,1.32-.72,2.8-1.08,4.45-1.08,1.47,0,2.76.31,3.86.94s1.96,1.57,2.57,2.84.91,2.89.91,4.87-.29,3.58-.88,4.87c-.58,1.29-1.42,2.24-2.52,2.86-1.09.61-2.41.92-3.95.92ZM916.53,625.61c.84,0,1.6-.18,2.27-.55.67-.36,1.21-.9,1.61-1.61.4-.71.6-1.54.6-2.5s-.2-1.81-.6-2.5-.94-1.21-1.61-1.58c-.67-.36-1.43-.55-2.27-.55s-1.57.18-2.24.55-1.21.89-1.61,1.58c-.4.69-.6,1.52-.6,2.5s.2,1.79.6,2.5c.4.71.94,1.24,1.61,1.61.67.36,1.42.55,2.24.55ZM921.14,629.36v-3.44l.1-5-.32-4.97v-9.78h5.07v23.18h-4.84Z"/>
      <path class="cls-3" d="M933.18,610.21c-.95,0-1.72-.26-2.31-.78-.58-.52-.88-1.17-.88-1.94s.29-1.42.88-1.94c.58-.52,1.35-.78,2.31-.78s1.69.24,2.29.73.89,1.12.89,1.89c0,.81-.29,1.48-.88,2.01-.58.53-1.35.8-2.31.8ZM930.65,629.36v-16.81h5.07v16.81h-5.07Z"/>
      <path class="cls-3" d="M948.87,629.61c-1.88,0-3.55-.37-5.02-1.11-1.46-.74-2.61-1.77-3.44-3.08-.83-1.31-1.25-2.8-1.25-4.47s.42-3.18,1.25-4.47c.83-1.29,1.98-2.31,3.44-3.06,1.46-.75,3.13-1.12,5.02-1.12s3.45.37,4.82,1.11c1.37.74,2.36,1.79,2.97,3.14l-3.9,2.06c-.48-.79-1.05-1.37-1.72-1.73-.67-.36-1.41-.55-2.21-.55-.84,0-1.61.18-2.31.55-.69.36-1.24.89-1.66,1.58s-.62,1.52-.62,2.5.21,1.82.62,2.52c.41.7.96,1.23,1.66,1.59.69.36,1.46.55,2.31.55s1.54-.18,2.21-.55c.67-.36,1.24-.95,1.72-1.76l3.9,2.06c-.61,1.33-1.6,2.37-2.97,3.12-1.38.75-2.98,1.12-4.82,1.12ZM947.01,636.61c-.56,0-1.11-.06-1.64-.19-.53-.13-.99-.29-1.38-.5l.78-2.06c.32.15.66.26,1.01.34.35.08.72.12,1.14.12.61,0,1.03-.09,1.28-.28.25-.19.37-.43.37-.72,0-.27-.12-.49-.37-.66-.25-.17-.65-.25-1.22-.25h-1.1l.84-3.31h2.7l-.45,1.81c.97.1,1.68.4,2.13.89.44.49.67,1.05.67,1.67,0,.98-.43,1.74-1.3,2.3s-2.01.83-3.44.83Z"/>
      <path class="cls-3" d="M965,629.61c-1.34,0-2.5-.22-3.47-.67-.97-.45-1.73-1.06-2.26-1.83-.53-.77-.8-1.63-.8-2.59s.25-1.85.76-2.61c.51-.76,1.31-1.35,2.42-1.76s2.55-.62,4.35-.62h4.61v2.81h-4.09c-1.19,0-2.01.19-2.45.56-.44.38-.67.84-.67,1.41,0,.62.25,1.12.76,1.48.51.36,1.2.55,2.06.55s1.64-.19,2.32-.56,1.16-.95,1.45-1.72l.78,2.28c-.37,1.04-1.04,1.85-2.01,2.42-.97.57-2.23.86-3.77.86ZM970.33,629.36v-3.28l-.32-.72v-5.87c0-1.04-.33-1.85-.99-2.44-.66-.58-1.67-.87-3.04-.87-.93,0-1.85.14-2.74.42-.9.28-1.67.66-2.32,1.14l-1.79-3.41c.95-.67,2.1-1.17,3.44-1.52,1.34-.34,2.71-.51,4.09-.51,2.66,0,4.73.6,6.2,1.81,1.47,1.21,2.21,3.09,2.21,5.65v9.59h-4.74ZM969.61,610.52c-.56,0-1.06-.1-1.49-.31-.43-.21-.82-.44-1.17-.7-.35-.26-.67-.49-.97-.69s-.61-.3-.91-.3c-.45,0-.82.15-1.09.45-.27.3-.43.73-.47,1.3h-2.57c.04-1.4.4-2.5,1.07-3.33.67-.82,1.58-1.23,2.73-1.23.56,0,1.07.1,1.51.3.44.2.84.43,1.19.69.35.26.67.5.96.7.29.21.59.31.89.31.45,0,.82-.15,1.1-.45s.43-.71.45-1.23h2.57c-.02,1.33-.37,2.42-1.06,3.25-.68.83-1.6,1.25-2.74,1.25Z"/>
      <path class="cls-3" d="M988.06,629.61c-1.84,0-3.48-.38-4.92-1.12-1.44-.75-2.57-1.77-3.39-3.08-.82-1.3-1.23-2.79-1.23-4.45s.41-3.18,1.23-4.48c.82-1.3,1.95-2.32,3.39-3.06,1.44-.74,3.08-1.11,4.92-1.11s3.52.37,4.97,1.11c1.45.74,2.59,1.76,3.41,3.06.82,1.3,1.23,2.8,1.23,4.48s-.41,3.18-1.23,4.47c-.82,1.29-1.96,2.31-3.41,3.06-1.45.75-3.11,1.12-4.97,1.12ZM988.06,625.61c.87,0,1.63-.18,2.29-.55.66-.36,1.19-.9,1.59-1.61.4-.71.6-1.54.6-2.5s-.2-1.81-.6-2.5c-.4-.69-.93-1.21-1.59-1.58-.66-.36-1.41-.55-2.26-.55s-1.6.18-2.27.55c-.67.36-1.21.89-1.61,1.58-.4.69-.6,1.52-.6,2.5s.2,1.79.6,2.5c.4.71.94,1.24,1.61,1.61.67.36,1.42.55,2.24.55Z"/>
      <path class="cls-3" d="M852.86,606.09c1.54-1.24,3.58-1.85,6.1-1.85,1.72,0,3.19.29,4.42.87,1.23.58,2.15,1.36,2.77,2.35.62.99.94,2.1.94,3.35,0,1.43-.38,2.64-1.15,3.62-.77.99-1.68,1.65-2.74,1.99v.14c1.37.41,2.43,1.13,3.2,2.18.77,1.04,1.15,2.38,1.15,4.01,0,1.36-.32,2.57-.97,3.64-.65,1.07-1.6,1.9-2.86,2.5-1.26.6-2.77.9-4.54.9-2.66,0-4.83-.65-6.5-1.94-1.67-1.29-2.56-3.2-2.65-5.71h4.81c.05,1.11.44,2,1.18,2.67.74.67,1.76,1,3.06,1,1.2,0,2.13-.32,2.77-.97.65-.65.97-1.48.97-2.5,0-1.36-.45-2.33-1.34-2.92-.9-.59-2.29-.88-4.17-.88h-1.02v-3.91h1.02c3.35,0,5.02-1.08,5.02-3.23,0-.97-.3-1.73-.9-2.28s-1.47-.82-2.6-.82-1.96.29-2.56.87c-.6.58-.95,1.31-1.04,2.19h-4.84c.12-2.27.95-4.02,2.49-5.25Z"/>
    </g>
    <g>
      <path class="cls-2" d="M527.44,640.11v-31.18h1.99l15.04,24.99h-1.06l15-24.99h1.94l.05,31.18h-2.31l-.05-27.75h.65l-14.21,23.61h-1.16l-14.26-23.61h.69v27.75h-2.32Z"/>
      <path class="cls-2" d="M566.27,640.11l14.91-31.18h2.36l14.91,31.18h-2.55l-14.07-29.75h1.02l-14.03,29.75h-2.55ZM571.74,631.34l.79-1.92h19.4l.79,1.92h-20.97Z"/>
      <path class="cls-2" d="M604.32,640.11v-31.18h11.62c2.72,0,5.05.42,6.99,1.25,1.94.83,3.44,2.03,4.49,3.59,1.05,1.56,1.57,3.45,1.57,5.68s-.53,4.03-1.57,5.59c-1.05,1.56-2.55,2.76-4.49,3.61-1.94.85-4.27,1.27-6.99,1.27h-10.32l1.06-1.07v11.27h-2.36ZM606.69,628.98l-1.06-1.07h10.32c3.49,0,6.13-.74,7.94-2.23,1.81-1.48,2.71-3.56,2.71-6.24s-.9-4.79-2.71-6.26c-1.81-1.47-4.45-2.21-7.94-2.21h-10.32l1.06-1.11v19.11ZM626.82,640.11l-8.42-11.31h2.68l8.43,11.31h-2.69Z"/>
      <path class="cls-2" d="M637.65,640.11v-31.18h2.36v31.18h-2.36Z"/>
      <path class="cls-2" d="M651.31,640.11v-31.18h1.99l23.1,28.37h-1.06v-28.37h2.36v31.18h-1.94l-23.15-28.37h1.06v28.37h-2.36Z"/>
      <path class="cls-2" d="M702.83,640.34c-2.44,0-4.69-.39-6.76-1.18-2.07-.79-3.87-1.89-5.39-3.32-1.53-1.43-2.71-3.1-3.54-5.01-.83-1.91-1.25-4.02-1.25-6.3s.42-4.39,1.25-6.3c.83-1.92,2.02-3.59,3.56-5.01,1.54-1.43,3.34-2.53,5.39-3.32,2.05-.79,4.31-1.18,6.78-1.18s4.52.36,6.53,1.07c2.01.71,3.72,1.78,5.14,3.21l-1.48,1.51c-1.42-1.34-2.97-2.29-4.65-2.85-1.68-.56-3.51-.85-5.49-.85-2.1,0-4.04.34-5.83,1.02-1.79.68-3.35,1.65-4.68,2.9-1.33,1.25-2.35,2.7-3.08,4.36-.73,1.66-1.09,3.47-1.09,5.43s.36,3.77,1.09,5.43c.72,1.66,1.75,3.12,3.08,4.36,1.33,1.25,2.88,2.21,4.68,2.9,1.79.68,3.73,1.02,5.83,1.02,1.91,0,3.73-.28,5.44-.85,1.71-.56,3.28-1.5,4.7-2.81l1.34,1.74c-1.45,1.34-3.19,2.34-5.21,3.01-2.02.67-4.14,1-6.37,1ZM712.14,636.1v-11.45h2.27v11.67l-2.27-.22Z"/>
      <path class="cls-2" d="M719.36,640.11l14.91-31.18h2.36l14.91,31.18h-2.55l-14.07-29.75h1.02l-14.03,29.75h-2.55ZM724.82,631.34l.79-1.92h19.4l.79,1.92h-20.97ZM732.83,606.4l6.43-5.26h3.33l-7.27,5.26h-2.5Z"/>
      <path class="cls-2" d="M754.03,629.16v-2h11.9v2h-11.9Z"/>
      <path class="cls-2" d="M774.44,640.11v-31.18h11.62c2.72,0,5.05.42,6.99,1.25,1.94.83,3.44,2.03,4.49,3.59,1.05,1.56,1.57,3.45,1.57,5.68s-.53,4.04-1.57,5.61c-1.05,1.57-2.55,2.78-4.49,3.61-1.94.83-4.27,1.25-6.99,1.25h-10.32l1.06-1.07v11.27h-2.36ZM776.8,628.98l-1.06-1.11h10.32c3.49,0,6.13-.73,7.94-2.2,1.81-1.47,2.71-3.54,2.71-6.21s-.9-4.79-2.71-6.26c-1.81-1.47-4.45-2.21-7.94-2.21h-10.32l1.06-1.11v19.11Z"/>
      <path class="cls-2" d="M807.08,640.11v-31.18h11.62c2.72,0,5.05.42,6.99,1.25,1.94.83,3.44,2.03,4.49,3.59,1.05,1.56,1.57,3.45,1.57,5.68s-.53,4.03-1.57,5.59c-1.05,1.56-2.55,2.76-4.49,3.61-1.94.85-4.27,1.27-6.99,1.27h-10.32l1.06-1.07v11.27h-2.36ZM809.44,628.98l-1.06-1.07h10.32c3.49,0,6.13-.74,7.94-2.23s2.71-3.56,2.71-6.24-.9-4.79-2.71-6.26c-1.81-1.47-4.45-2.21-7.94-2.21h-10.32l1.06-1.11v19.11ZM829.57,640.11l-8.42-11.31h2.68l8.43,11.31h-2.69Z"/>
    </g>
    <g>
      <g>
        <polygon class="cls-3" points="265.44 451.81 287.37 451.81 295.1 451.81 334.3 451.81 334.3 430.34 265.44 430.34 265.44 451.81"/>
        <polygon class="cls-3" points="739.68 494.64 739.68 430.34 717.38 430.34 717.38 516.1 775.89 516.1 775.89 494.64 739.68 494.64"/>
        <polygon class="cls-3" points="402.87 479.8 369.84 430.35 345.66 430.35 345.66 516.11 367.99 516.11 367.99 466.96 400.34 516.11 425.23 516.11 425.23 430.35 402.87 430.35 402.87 479.8"/>
        <polygon class="cls-3" points="436.39 451.8 462.13 451.8 462.13 516.1 484.34 516.1 484.34 451.8 510.05 451.8 510.05 430.23 436.39 430.23 436.39 451.8"/>
        <path class="cls-3" d="M642.03,431.09l-34.25,85.01h24.07l4.41-10.72h41.67l4.32,10.72h23.98l-34.26-85.01h-29.94ZM644.74,484.04l12.3-30.25,12.33,30.25h-24.63Z"/>
        <path class="cls-3" d="M238.43,483.77c-3.96,6.71-11.39,10.88-19.38,10.88-12.3,0-22.3-9.63-22.3-21.46s10-21.46,22.3-21.46c8.11,0,15.59,4.25,19.52,11.09l.36.62,14.75-16.71.27-.31-.27-.32c-8.53-10.09-21.15-15.87-34.63-15.87-24.61,0-44.64,19.27-44.64,42.95s20.02,42.95,44.64,42.95c13.68,0,26.43-5.94,34.97-16.31l.27-.33-15.51-16.32-.35.59Z"/>
        <polygon class="cls-3" points="265.44 516.11 334.3 516.11 334.3 494.62 287.78 494.62 287.78 483.95 334.3 483.95 334.3 462.48 265.44 462.48 265.44 516.11"/>
        <path class="cls-3" d="M596.48,460.23c0-19.11-13.93-29.89-36.72-29.89h-38.55v85.76h22.38v-64.29h16.18c.5,0,2.11,0,2.46,0,.26,0,2.09.15,2.49.22,5.31.8,9.39,5.18,9.39,10.51,0,5.9-4.97,10.68-11.1,10.68-.11,0-.62.01-.78.01h-16.94l25.31,42.88h26.04l-15.86-27.03c10.1-5.02,15.71-15.72,15.71-28.83Z"/>
      </g>
      <g>
        <path class="cls-3" d="M365,537.75c-24.65,0-44.64,19.23-44.64,42.95s19.99,42.95,44.64,42.95,44.64-19.23,44.64-42.95-19.99-42.95-44.64-42.95ZM365,602.12c-12.3,0-22.26-9.59-22.26-21.42s9.97-21.42,22.26-21.42,22.26,9.59,22.26,21.42-9.97,21.42-22.26,21.42Z"/>
        <polygon class="cls-3" points="261.91 582.1 239.32 537.75 214.48 537.75 214.48 623.63 236.79 623.63 236.79 581.59 254.19 615.05 269.84 615.05 286.84 581.78 286.96 623.63 309.2 623.63 309.2 537.75 284.53 537.75 261.91 582.1"/>
        <rect class="cls-3" x="181.07" y="537.76" width="22.26" height="20.45"/>
        <rect class="cls-3" x="181.2" y="578.88" width="22.18" height="44.55"/>
        <path class="cls-3" d="M495.48,561.27c.11-.61.18-1.21.19-1.81,0-.03.01-.07.01-.1,0,0,0,0,0-.01,0,0,0,0,0,0,0-.01,0-.02,0-.04-.03-11.37-9.25-20.63-20.89-21.33-.23-.04-.8-.07-.94-.07-3.98-.07-10.16,0-12.78,0h-40.23v85.76h41.71c2.58,0,5.67.03,8.32,0,1.15-.01,2.25.03,3.16-.02.6-.03,1.06-.06,1.47-.09,11.32-1.02,20.18-10.18,20.18-21.34s-9.62-21.04-21.6-21.4c.07-.02.14-.05.2-.07,11.22-.44,20.21-8.83,21.2-19.48ZM464.07,606.87h-20.87v-17.82h17c1.03,0,3.54.03,3.87.03,5.11,0,9.25,3.98,9.25,8.9s-4.14,8.9-9.25,8.9ZM464.15,572.2h-20.95v-17.64h20.95c5.06,0,9.17,3.95,9.17,8.82s-4.1,8.82-9.17,8.82Z"/>
      </g>
    </g>
    <g>
      <path class="cls-1" d="M527.86,586.09h32.01v3.28h-35.79v-49.91h34.68v3.28h-30.9v43.35ZM527.41,562.42h28.09v3.21h-28.09v-3.21Z"/>
      <path class="cls-1" d="M565.43,589.37l21.05-27.17v2.85l-19.64-25.6h4.45l17.34,22.53h-1.63l17.34-22.53h4.22l-19.49,25.31v-2.42l20.9,27.02h-4.45l-18.67-24.1h1.56l-18.53,24.1h-4.45Z"/>
      <path class="cls-1" d="M618.78,589.37v-49.91h18.6c4.35,0,8.08.67,11.19,2,3.11,1.33,5.51,3.24,7.19,5.74,1.68,2.5,2.52,5.53,2.52,9.09s-.84,6.47-2.52,8.98c-1.68,2.52-4.08,4.45-7.19,5.78-3.11,1.33-6.84,2-11.19,2h-16.53l1.7-1.71v18.04h-3.78ZM622.56,571.55l-1.7-1.78h16.53c5.58,0,9.82-1.18,12.71-3.53,2.89-2.35,4.34-5.67,4.34-9.95s-1.44-7.66-4.34-10.02c-2.89-2.35-7.13-3.53-12.71-3.53h-16.53l1.7-1.78v30.59Z"/>
      <path class="cls-1" d="M674.81,586.09h32.01v3.28h-35.79v-49.91h34.68v3.28h-30.9v43.35ZM674.36,562.42h28.09v3.21h-28.09v-3.21Z"/>
      <path class="cls-1" d="M720.61,589.37v-49.91h18.6c4.35,0,8.08.67,11.19,2,3.11,1.33,5.51,3.24,7.19,5.74,1.68,2.5,2.52,5.53,2.52,9.09s-.84,6.45-2.52,8.95c-1.68,2.5-4.08,4.42-7.19,5.78-3.11,1.35-6.84,2.03-11.19,2.03h-16.53l1.7-1.71v18.04h-3.78ZM724.38,571.55l-1.7-1.71h16.53c5.58,0,9.82-1.19,12.71-3.57,2.89-2.38,4.34-5.7,4.34-9.98s-1.45-7.66-4.34-10.02c-2.89-2.35-7.13-3.53-12.71-3.53h-16.53l1.7-1.78v30.59ZM756.62,589.37l-13.49-18.11h4.3l13.49,18.11h-4.3Z"/>
      <path class="cls-1" d="M773.96,589.37v-49.91h3.78v49.91h-3.78Z"/>
      <path class="cls-1" d="M799.6,586.09h32.01v3.28h-35.79v-49.91h34.68v3.28h-30.9v43.35ZM799.16,562.42h28.09v3.21h-28.09v-3.21Z"/>
      <path class="cls-1" d="M845.4,589.37v-49.91h3.19l36.98,45.42h-1.7v-45.42h3.78v49.91h-3.11l-37.05-45.42h1.7v45.42h-3.78Z"/>
      <path class="cls-1" d="M927.66,589.73c-3.85,0-7.42-.63-10.71-1.89-3.29-1.26-6.14-3.03-8.56-5.31-2.42-2.28-4.3-4.96-5.63-8.02-1.33-3.07-2-6.43-2-10.09s.67-7.02,2-10.09c1.33-3.07,3.22-5.74,5.67-8.02,2.45-2.28,5.3-4.05,8.56-5.31,3.26-1.26,6.82-1.89,10.67-1.89,3.66,0,7.08.57,10.26,1.71,3.19,1.14,5.92,2.88,8.19,5.21l-2.37,2.35c-2.22-2.09-4.68-3.6-7.37-4.53-2.69-.93-5.55-1.39-8.56-1.39-3.31,0-6.39.55-9.23,1.64-2.84,1.09-5.31,2.64-7.41,4.63-2.1,2-3.73,4.33-4.89,6.99-1.16,2.66-1.74,5.56-1.74,8.7s.58,6.04,1.74,8.7c1.16,2.66,2.79,4.99,4.89,6.99,2.1,2,4.57,3.54,7.41,4.63,2.84,1.09,5.92,1.64,9.23,1.64,3.01,0,5.87-.46,8.56-1.39,2.69-.93,5.15-2.46,7.37-4.6l2.37,2.35c-2.27,2.33-5,4.08-8.19,5.24-3.19,1.17-6.61,1.75-10.26,1.75Z"/>
      <path class="cls-1" d="M962.56,586.09h32.01v3.28h-35.79v-49.91h34.68v3.28h-30.9v43.35ZM962.11,562.42h28.09v3.21h-28.09v-3.21Z"/>
    </g>
  </g>
  <g>
    <g>
      <g>
        <path class="cls-3" d="M1251.73,525.46v-8.53c0-2.58-2.19-4.62-4.87-4.46-14.78.86-28.42,5.63-39.76,13.18-2.95-4.01-6.22-7.85-9.81-11.48,14.14-9.39,31.25-15.23,49.78-16.03,2.47-.11,4.42-2.07,4.42-4.45v-8.52c0-2.53-2.19-4.57-4.82-4.47-23.23.91-45.17,8.43-63.33,21.53h0c-18.16-13.1-40.1-20.62-63.33-21.53-2.63-.1-4.82,1.93-4.82,4.47v8.52c0,2.38,1.95,4.34,4.42,4.45,18.53.8,35.64,6.64,49.78,16.03-3.59,3.64-6.86,7.48-9.81,11.48-11.34-7.55-24.99-12.31-39.76-13.18-2.67-.16-4.87,1.89-4.87,4.46v8.53c0,2.36,1.92,4.28,4.37,4.45,11.63.79,22.32,4.73,31.06,10.87-2.33,4.74-4.28,9.64-5.8,14.67-6.43-5.86-14.86-9.82-24.25-10.89-2.82-.32-5.14,1.7-5.14,4.44v8.6c0,2.23,1.72,4.06,4,4.42,9.84,1.53,17.63,8.59,19.35,17.53.41,2.14,2.27,3.74,4.53,3.74h15.68c0-10.07,1.91-19.73,5.42-28.71,4.99,7.18,8.18,15.51,8.95,24.46.2,2.38,2.21,4.24,4.7,4.24h5.53s5.53,0,5.53,0c2.49,0,4.49-1.86,4.7-4.24.77-8.95,3.95-17.28,8.95-24.46,3.5,8.97,5.42,18.64,5.42,28.71h15.68c2.26,0,4.12-1.6,4.53-3.74,1.72-8.94,9.51-16,19.35-17.53,2.29-.36,4-2.19,4-4.42v-8.6c0-2.73-2.32-4.76-5.14-4.44-9.39,1.07-17.82,5.03-24.25,10.89-1.52-5.03-3.47-9.93-5.8-14.67,8.75-6.15,19.44-10.08,31.06-10.87,2.45-.17,4.37-2.08,4.37-4.45ZM1183.33,551.31h0c-2.74-5-6.09-9.66-9.97-13.9,2.94-4.22,6.29-8.18,9.97-11.86h0c3.68,3.67,7.03,7.63,9.97,11.86-3.88,4.23-7.24,8.9-9.97,13.89Z"/>
        <path class="cls-3" d="M1221.57,597.61h-76.48c-2.56,0-4.64,2-4.64,4.46v8.49c0,2.47,2.1,4.48,4.66,4.48h76.43c2.56,0,4.66-2.02,4.66-4.48v-8.49c0-2.46-2.08-4.46-4.64-4.46Z"/>
        <path class="cls-3" d="M1193.43,476.25l-7.75-10.11c-.59-.77-1.45-1.16-2.34-1.21-.89.05-1.75.45-2.34,1.21l-7.75,10.11c-.5.65-.5,1.53,0,2.18l7.75,10.11c.59.77,1.45,1.16,2.34,1.21.89-.05,1.75-.45,2.34-1.21l7.75-10.11c.5-.65.5-1.53,0-2.18Z"/>
      </g>
      <g>
        <path class="cls-3" d="M1344.35,509.42h15.29v23.2c-3.25,2.17-7.26,3.96-12.04,5.37-4.78,1.41-9.31,2.12-13.58,2.12-6.09,0-11.59-1.29-16.48-3.87-4.9-2.58-8.74-6.12-11.53-10.63-2.79-4.5-4.18-9.58-4.18-15.22s1.44-10.64,4.31-15.14c2.87-4.5,6.86-8.03,11.96-10.58,5.1-2.55,10.8-3.83,17.12-3.83,4.55,0,9.11.79,13.67,2.36,4.55,1.58,8.43,3.72,11.62,6.43l-10.08,11.56c-2.05-1.9-4.46-3.42-7.22-4.56-2.76-1.14-5.45-1.71-8.07-1.71-2.85,0-5.42.68-7.73,2.04-2.31,1.36-4.11,3.22-5.42,5.58-1.31,2.36-1.96,4.98-1.96,7.86s.67,5.59,2.01,7.98c1.34,2.39,3.17,4.26,5.51,5.62,2.33,1.36,4.92,2.04,7.77,2.04,2.56,0,5.58-.79,9.05-2.36v-14.25Z"/>
        <path class="cls-3" d="M1403.53,538.98l-7.94-15.39h-9.39v15.39h-17.76v-57.07h27.93c8.03,0,14.25,1.76,18.66,5.29,4.41,3.53,6.62,8.52,6.62,14.98,0,4.18-.87,7.8-2.6,10.87-1.74,3.07-4.23,5.5-7.47,7.29l12.13,18.64h-20.16ZM1386.2,510.56h10.16c2.68,0,4.74-.68,6.19-2.04,1.45-1.36,2.18-3.31,2.18-5.86s-.73-4.41-2.18-5.74c-1.45-1.33-3.52-1.99-6.19-1.99h-10.16v15.63Z"/>
        <path class="cls-3" d="M1450.08,523.1c1.94,1.95,4.36,2.93,7.26,2.93s5.18-.96,7-2.89c1.82-1.93,2.73-4.52,2.73-7.78v-33.46h17.76v33.46c0,4.99-1.13,9.35-3.37,13.07-2.25,3.72-5.45,6.59-9.61,8.63-4.16,2.04-9,3.05-14.52,3.05s-10.48-1.02-14.69-3.05c-4.21-2.04-7.47-4.91-9.78-8.63-2.31-3.72-3.46-8.07-3.46-13.07v-33.46h17.76v33.46c0,3.2.97,5.78,2.9,7.73Z"/>
        <path class="cls-3" d="M1539.12,487.2c4.24,3.53,6.36,8.52,6.36,14.98,0,6.79-2.12,12.05-6.36,15.8-4.24,3.75-10.24,5.62-17.98,5.62l-9.4.08v15.31h-17.76v-57.07h27.16c7.74,0,13.74,1.76,17.98,5.29ZM1526.48,508.53c1.45-1.36,2.18-3.31,2.18-5.86s-.73-4.41-2.18-5.74c-1.45-1.33-3.52-1.99-6.19-1.99h-8.54v15.63h8.54c2.68,0,4.74-.68,6.19-2.04Z"/>
        <path class="cls-3" d="M1598.22,484.67c4.98,2.55,8.88,6.07,11.7,10.54,2.82,4.48,4.23,9.51,4.23,15.1s-1.41,10.73-4.23,15.27c-2.82,4.53-6.72,8.09-11.7,10.67-4.98,2.58-10.55,3.87-16.7,3.87s-11.79-1.29-16.74-3.87c-4.95-2.58-8.84-6.13-11.66-10.67-2.82-4.53-4.23-9.62-4.23-15.27s1.41-10.63,4.23-15.1c2.82-4.48,6.7-7.99,11.66-10.54,4.95-2.55,10.53-3.83,16.74-3.83s11.71,1.28,16.7,3.83ZM1574.48,496.97c-2.25,1.36-4.04,3.22-5.38,5.58-1.34,2.36-2.01,4.98-2.01,7.86s.67,5.51,2.01,7.9c1.34,2.39,3.13,4.27,5.38,5.66,2.25,1.38,4.68,2.08,7.3,2.08s4.94-.69,7.13-2.08c2.19-1.38,3.91-3.26,5.17-5.62,1.25-2.36,1.88-5.01,1.88-7.94s-.63-5.5-1.88-7.86c-1.25-2.36-2.96-4.22-5.12-5.58-2.16-1.36-4.56-2.04-7.17-2.04s-5.05.68-7.3,2.04Z"/>
        <path class="cls-3" d="M1305.23,558h17.76v42.91h25.11v14.17h-42.87v-57.07Z"/>
        <path class="cls-3" d="M1398.15,615.07l-3.5-9.12h-24.17l-3.59,9.12h-18.28l25.54-57.07h18.28l24.68,57.07h-18.96ZM1375.43,593.58h14.52l-7.17-18.64-7.35,18.64Z"/>
        <path class="cls-3" d="M1421.47,558h19.05l16.06,31.67,15.97-31.67h19.05v57.07h-15.63v-33.87l-13.67,28.25h-11.53l-13.67-28.25v33.87h-15.63v-57.07Z"/>
        <path class="cls-3" d="M1545.48,615.07l-3.5-9.12h-24.17l-3.59,9.12h-18.28l25.54-57.07h18.28l24.68,57.07h-18.96ZM1522.76,593.58h14.52l-7.17-18.64-7.35,18.64Z"/>
        <path class="cls-3" d="M1611.88,561.54c4.87,2.36,8.64,5.7,11.32,10.01,2.68,4.31,4.01,9.3,4.01,14.94s-1.37,10.64-4.1,14.98c-2.73,4.34-6.58,7.69-11.53,10.06-4.95,2.36-10.68,3.54-17.17,3.54h-25.62v-57.07h26.22c6.38,0,12,1.18,16.87,3.54ZM1605.35,597.65c2.5-2.77,3.76-6.43,3.76-10.99s-1.34-8.25-4.01-11.07c-2.68-2.82-6.15-4.23-10.42-4.23h-8.11v30.45h8.97c4.04,0,7.32-1.38,9.82-4.15Z"/>
        <path class="cls-3" d="M1668.98,615.07l-7.94-15.39h-9.39v15.39h-17.76v-57.07h27.93c8.03,0,14.25,1.76,18.66,5.29,4.41,3.53,6.62,8.52,6.62,14.98,0,4.18-.87,7.8-2.61,10.87-1.74,3.07-4.23,5.5-7.47,7.29l12.13,18.64h-20.16ZM1651.64,586.66h10.16c2.68,0,4.74-.68,6.19-2.04,1.45-1.36,2.18-3.31,2.18-5.86s-.73-4.41-2.18-5.74c-1.45-1.33-3.52-1.99-6.19-1.99h-10.16v15.63Z"/>
        <path class="cls-3" d="M1695.8,558h48.94v13.03h-31.17v8.96h28.27v13.03h-28.27v9.04h32.03v13.03h-49.79v-57.07Z"/>
      </g>
    </g>
    <g>
      <path class="cls-3" d="M1309.85,446.11l-.65,3.52h4.75l-.38,2.1h-4.75l-.67,3.67h5.35l-.4,2.16h-8.2l2.5-13.59h8.18l-.38,2.14h-5.35Z"/>
      <path class="cls-3" d="M1337.29,444.65c.95.43,1.68,1.05,2.18,1.86.5.8.76,1.76.76,2.86,0,.49-.05.97-.14,1.44-.24,1.36-.76,2.55-1.57,3.57-.8,1.02-1.82,1.8-3.04,2.36-1.22.56-2.59.84-4.08.84h-4.93l2.5-13.57h4.93c1.31,0,2.43.22,3.38.65ZM1335.37,454.14c.95-.8,1.56-1.92,1.83-3.34.07-.43.1-.8.1-1.11,0-1.09-.33-1.93-1-2.53-.67-.6-1.64-.89-2.92-.89h-1.98l-1.66,9.08h1.98c1.48,0,2.7-.4,3.65-1.21Z"/>
      <path class="cls-3" d="M1357.12,444l-2.48,13.57h-2.85l2.5-13.57h2.83Z"/>
      <path class="cls-3" d="M1377.24,454.71c.65-.32,1.19-.8,1.64-1.42h3.25c-.66,1.24-1.57,2.24-2.72,3s-2.43,1.21-3.83,1.35l-.14.8c.66,0,1.2.14,1.63.43.42.28.64.71.64,1.26,0,.08-.01.22-.04.43-.12.7-.47,1.24-1.06,1.61s-1.26.56-2.01.56h-2.87l.3-1.59h2.4c.32,0,.57-.05.75-.14.17-.09.29-.25.34-.49.05-.23,0-.39-.14-.48-.15-.08-.39-.13-.73-.13h-1.25l.4-2.27c-1.02-.1-1.92-.4-2.7-.89-.77-.49-1.37-1.13-1.79-1.92-.42-.79-.63-1.68-.63-2.68,0-.45.04-.91.12-1.38.24-1.33.77-2.53,1.59-3.59s1.82-1.88,3.01-2.47c1.19-.59,2.46-.88,3.81-.88,1.58,0,2.89.39,3.94,1.17,1.05.78,1.68,1.85,1.9,3.23h-3.25c-.22-.62-.59-1.09-1.11-1.41-.53-.32-1.17-.48-1.94-.48-.82,0-1.59.18-2.29.54-.71.36-1.3.88-1.78,1.56-.48.67-.8,1.45-.96,2.33-.07.42-.1.76-.1,1.03,0,1.05.31,1.88.94,2.49.63.61,1.48.91,2.56.91.77,0,1.48-.16,2.12-.49Z"/>
      <path class="cls-3" d="M1403.7,454.98h-5.64l-1.39,2.59h-2.97l7.58-13.59h3.29l2.57,13.59h-2.99l-.44-2.59ZM1403.34,452.86l-1.01-5.75-3.11,5.75h4.12ZM1400.68,440.99c.52-.42,1.11-.63,1.79-.63.27,0,.5.04.71.13.2.08.42.2.65.36.19.13.35.22.49.28.14.06.29.09.46.09.51,0,.86-.28,1.05-.84h1.51c-.3.86-.7,1.49-1.21,1.91-.51.42-1.1.63-1.78.63-.28,0-.52-.04-.71-.13-.19-.08-.41-.2-.67-.36-.19-.13-.35-.23-.49-.29-.14-.06-.29-.1-.45-.1-.48,0-.83.28-1.03.86h-1.52c.28-.86.68-1.49,1.2-1.91Z"/>
      <path class="cls-3" d="M1423.32,456.97c-.91-.49-1.61-1.16-2.11-2.02-.5-.86-.75-1.85-.75-2.96,0-1.56.36-2.95,1.08-4.2.72-1.24,1.72-2.22,2.99-2.92,1.27-.71,2.7-1.06,4.29-1.06,1.2,0,2.25.24,3.16.72.91.48,1.61,1.15,2.11,2.01.5.86.75,1.84.75,2.94,0,1.58-.36,2.99-1.07,4.24-.71,1.24-1.71,2.22-2.99,2.93-1.28.71-2.72,1.06-4.32,1.06-1.19,0-2.23-.24-3.14-.73ZM1429.55,454.45c.77-.49,1.37-1.16,1.8-1.99.42-.84.64-1.75.64-2.73,0-1.06-.31-1.9-.93-2.51s-1.49-.91-2.61-.91c-1,0-1.88.25-2.66.74-.78.49-1.37,1.15-1.8,1.98-.42.83-.64,1.74-.64,2.72,0,1.06.31,1.9.92,2.52.61.62,1.48.92,2.6.92,1.01,0,1.9-.25,2.68-.74Z"/>
    </g>
  </g>
  <rect class="cls-3" x="1055.24" y="418.58" width="4.39" height="242.85"/>
</svg>