<?xml version="1.0" encoding="UTF-8"?>
<svg id="Camada_1" data-name="Camada 1" xmlns="http://www.w3.org/2000/svg" viewBox="0 0 1920 1080">
  <defs>
    <style>
      .cls-1 {
        fill: #f18e1a;
      }

      .cls-2 {
        fill: #0f5c8c;
      }

      .cls-3 {
        fill: #e84e1b;
      }
    </style>
  </defs>
  <g>
    <g>
      <path class="cls-3" d="M1336.96,619.21c-1.81,0-3.18-.39-4.08-1.17-.91-.78-1.36-1.71-1.36-2.8,0-1.2.5-2.15,1.49-2.86.99-.71,2.58-1.06,4.76-1.06h3.83v2.29h-3.15c-.94,0-1.6.13-2,.39-.4.26-.6.61-.6,1.04,0,.49.21.87.62,1.12.41.26.97.39,1.68.39s1.28-.14,1.79-.41c.51-.27.89-.67,1.15-1.19l.6,1.92c-.26.71-.79,1.28-1.59,1.7-.81.42-1.85.63-3.13.63ZM1341.42,619.05v-2.54l-.34-.53v-4.54c0-.85-.27-1.48-.81-1.9-.54-.42-1.36-.63-2.47-.63-.74,0-1.49.12-2.25.35-.76.23-1.42.54-1.96.92l-1.53-2.78c.79-.55,1.77-.95,2.93-1.23,1.16-.27,2.31-.41,3.45-.41,2.3,0,4.07.48,5.32,1.43,1.25.96,1.87,2.43,1.87,4.42v7.45h-4.21Z"/>
      <path class="cls-3" d="M1366.43,636.72c-2.61,0-4.89-.49-6.85-1.47-1.96-.98-3.47-2.32-4.55-4.03-1.08-1.7-1.62-3.65-1.62-5.83s.52-4.13,1.55-5.85c1.04-1.72,2.48-3.06,4.34-4.03,1.86-.97,3.95-1.45,6.27-1.45s4.26.46,6.06,1.39c1.8.93,3.22,2.24,4.27,3.93,1.05,1.69,1.57,3.72,1.57,6.1,0,.25-.01.53-.04.84-.03.31-.06.61-.09.88h-18.58v-3.72h15.1l-2.59,1.1c.03-1.15-.2-2.14-.68-2.99-.48-.85-1.15-1.51-2-1.98-.85-.48-1.84-.72-2.98-.72s-2.13.24-3,.72c-.86.48-1.54,1.15-2.02,2.01-.48.86-.72,1.88-.72,3.05v.98c0,1.23.28,2.29.85,3.19.57.9,1.35,1.59,2.34,2.07s2.18.72,3.57.72c1.19,0,2.25-.18,3.17-.53.92-.35,1.76-.89,2.53-1.6l3.53,3.68c-1.05,1.15-2.37,2.02-3.95,2.64-1.59.61-3.42.92-5.49.92Z"/>
      <path class="cls-3" d="M1391.73,636.72c-2.15,0-4.1-.47-5.83-1.41-1.73-.94-3.09-2.26-4.08-3.95-.99-1.69-1.49-3.68-1.49-5.97s.5-4.28,1.49-5.97c.99-1.69,2.35-3.01,4.08-3.95,1.73-.94,3.67-1.41,5.83-1.41,1.93,0,3.61.41,5.06,1.23,1.45.82,2.57,2.06,3.36,3.72s1.19,3.79,1.19,6.38-.38,4.69-1.15,6.38c-.76,1.69-1.86,2.94-3.3,3.74-1.43.81-3.15,1.21-5.17,1.21ZM1392.84,631.49c1.11,0,2.1-.24,2.98-.72.88-.48,1.58-1.18,2.1-2.11.52-.93.79-2.02.79-3.27s-.26-2.37-.79-3.27-1.23-1.59-2.1-2.07c-.88-.48-1.87-.72-2.98-.72s-2.06.24-2.93.72c-.88.48-1.58,1.17-2.1,2.07-.53.9-.79,1.99-.79,3.27s.26,2.35.79,3.27c.52.93,1.23,1.63,2.1,2.11.88.48,1.86.72,2.93.72ZM1398.88,636.4v-4.5l.13-6.55-.42-6.51v-12.81h6.63v30.36h-6.34Z"/>
      <path class="cls-3" d="M1414.65,611.31c-1.25,0-2.25-.34-3.02-1.02-.76-.68-1.15-1.53-1.15-2.54s.38-1.85,1.15-2.54c.77-.68,1.77-1.02,3.02-1.02s2.22.32,3,.96,1.17,1.47,1.17,2.48c0,1.06-.38,1.94-1.15,2.64-.77.7-1.77,1.04-3.02,1.04ZM1411.34,636.4v-22.01h6.63v22.01h-6.63Z"/>
      <path class="cls-3" d="M1435.19,636.72c-2.47,0-4.66-.48-6.57-1.45-1.91-.97-3.42-2.31-4.51-4.03-1.09-1.72-1.64-3.67-1.64-5.85s.55-4.16,1.64-5.85c1.09-1.69,2.59-3.03,4.51-4.01,1.91-.98,4.1-1.47,6.57-1.47s4.51.48,6.32,1.45c1.8.97,3.1,2.34,3.89,4.11l-5.1,2.7c-.62-1.04-1.38-1.79-2.25-2.27-.88-.48-1.84-.72-2.89-.72-1.11,0-2.11.24-3.02.72s-1.63,1.17-2.17,2.07c-.54.9-.81,1.99-.81,3.27s.27,2.38.81,3.29c.54.91,1.26,1.61,2.17,2.09.91.48,1.91.72,3.02.72s2.01-.24,2.89-.72c.88-.48,1.63-1.25,2.25-2.31l5.1,2.7c-.79,1.75-2.09,3.11-3.89,4.09-1.8.98-3.91,1.47-6.32,1.47ZM1432.77,645.89c-.74,0-1.45-.08-2.15-.24-.69-.16-1.3-.38-1.81-.66l1.02-2.7c.42.19.86.34,1.32.45.45.11.95.16,1.49.16.79,0,1.35-.12,1.68-.37.33-.25.49-.56.49-.94,0-.35-.16-.64-.49-.86-.33-.22-.86-.33-1.59-.33h-1.45l1.11-4.34h3.53l-.6,2.37c1.28.14,2.2.52,2.78,1.17.58.64.87,1.37.87,2.19,0,1.28-.57,2.28-1.7,3.01-1.13.72-2.64,1.08-4.51,1.08Z"/>
      <path class="cls-3" d="M1456.33,636.72c-1.76,0-3.27-.29-4.55-.88-1.28-.59-2.26-1.38-2.96-2.39-.69-1.01-1.04-2.14-1.04-3.4s.33-2.42,1-3.42c.67-.99,1.72-1.77,3.17-2.31s3.34-.82,5.7-.82h6.04v3.68h-5.36c-1.56,0-2.63.24-3.21.74-.58.49-.87,1.1-.87,1.84,0,.82.33,1.47,1,1.94.67.48,1.57.72,2.7.72s2.15-.24,3.04-.74c.89-.49,1.52-1.24,1.89-2.25l1.02,2.99c-.48,1.36-1.36,2.42-2.64,3.17-1.28.75-2.92,1.12-4.93,1.12ZM1463.3,636.4v-4.3l-.42-.94v-7.69c0-1.36-.43-2.43-1.3-3.19-.87-.76-2.19-1.15-3.98-1.15-1.22,0-2.42.18-3.59.55-1.18.37-2.19.87-3.04,1.49l-2.34-4.46c1.25-.87,2.75-1.53,4.51-1.99,1.76-.45,3.54-.67,5.36-.67,3.49,0,6.19.79,8.12,2.37,1.93,1.58,2.89,4.05,2.89,7.41v12.56h-6.21ZM1462.36,611.72c-.74,0-1.39-.14-1.96-.41-.57-.27-1.08-.58-1.53-.92-.45-.34-.88-.64-1.28-.9s-.79-.39-1.19-.39c-.6,0-1.07.2-1.43.59-.35.4-.56.96-.62,1.7h-3.36c.06-1.83.52-3.28,1.4-4.36.88-1.08,2.07-1.62,3.57-1.62.74,0,1.4.13,1.98.39.58.26,1.1.56,1.55.9.45.34.87.65,1.25.92.38.27.77.41,1.17.41.6,0,1.08-.2,1.45-.59s.57-.93.6-1.62h3.36c-.03,1.75-.49,3.16-1.38,4.25-.89,1.09-2.09,1.64-3.59,1.64Z"/>
      <path class="cls-3" d="M1486.52,636.72c-2.41,0-4.56-.49-6.44-1.47-1.89-.98-3.37-2.32-4.44-4.03-1.08-1.7-1.62-3.65-1.62-5.83s.54-4.17,1.62-5.87c1.08-1.7,2.56-3.04,4.44-4.01,1.88-.97,4.03-1.45,6.44-1.45s4.61.48,6.51,1.45c1.9.97,3.39,2.31,4.47,4.01,1.08,1.71,1.62,3.66,1.62,5.87s-.54,4.16-1.62,5.85c-1.08,1.69-2.57,3.03-4.47,4.01-1.9.98-4.07,1.47-6.51,1.47ZM1486.52,631.49c1.13,0,2.13-.24,3-.72.86-.48,1.56-1.18,2.08-2.11.52-.93.79-2.02.79-3.27s-.26-2.37-.79-3.27c-.53-.9-1.22-1.59-2.08-2.07-.87-.48-1.85-.72-2.96-.72s-2.1.24-2.98.72c-.88.48-1.58,1.17-2.1,2.07-.53.9-.79,1.99-.79,3.27s.26,2.35.79,3.27c.52.93,1.23,1.63,2.1,2.11.88.48,1.86.72,2.93.72Z"/>
      <path class="cls-3" d="M1309.45,605.92c2.02-1.62,4.68-2.43,7.98-2.43,2.25,0,4.18.38,5.79,1.14,1.6.76,2.82,1.78,3.63,3.07.82,1.29,1.23,2.75,1.23,4.39,0,1.87-.5,3.45-1.5,4.74-1,1.29-2.2,2.16-3.59,2.61v.18c1.79.53,3.19,1.48,4.19,2.85,1,1.37,1.5,3.12,1.5,5.26,0,1.78-.42,3.37-1.27,4.77-.85,1.4-2.1,2.49-3.75,3.27-1.65.79-3.63,1.18-5.95,1.18-3.49,0-6.33-.85-8.52-2.54-2.19-1.69-3.35-4.19-3.47-7.48h6.3c.06,1.46.58,2.62,1.55,3.5.97.88,2.31,1.31,4,1.31,1.57,0,2.78-.42,3.63-1.27.85-.85,1.27-1.94,1.27-3.27,0-1.78-.59-3.06-1.76-3.83-1.17-.77-2.99-1.16-5.46-1.16h-1.34v-5.12h1.34c4.38,0,6.57-1.41,6.57-4.23,0-1.28-.39-2.27-1.18-2.98s-1.92-1.07-3.4-1.07-2.57.38-3.36,1.14c-.79.76-1.24,1.71-1.37,2.87h-6.34c.15-2.97,1.24-5.26,3.26-6.88Z"/>
    </g>
    <g>
      <path class="cls-2" d="M883.25,650.48v-40.83h2.61l19.7,32.73h-1.39l19.64-32.73h2.55l.06,40.83h-3.03l-.06-36.34h.85l-18.61,30.92h-1.52l-18.67-30.92h.91v36.34h-3.03Z"/>
      <path class="cls-2" d="M934.11,650.48l19.52-40.83h3.09l19.52,40.83h-3.33l-18.43-38.97h1.33l-18.37,38.97h-3.33ZM941.27,638.99l1.03-2.51h25.4l1.03,2.51h-27.46Z"/>
      <path class="cls-2" d="M983.95,650.48v-40.83h15.22c3.56,0,6.61.55,9.15,1.63,2.55,1.09,4.51,2.65,5.88,4.7,1.37,2.04,2.06,4.52,2.06,7.44s-.69,5.28-2.06,7.32c-1.37,2.04-3.33,3.62-5.88,4.73-2.55,1.11-5.6,1.66-9.15,1.66h-13.52l1.39-1.4v14.76h-3.09ZM987.04,635.9l-1.39-1.4h13.52c4.57,0,8.03-.97,10.4-2.92,2.36-1.94,3.55-4.67,3.55-8.17s-1.18-6.27-3.55-8.2c-2.36-1.93-5.83-2.89-10.4-2.89h-13.52l1.39-1.46v25.02ZM1013.41,650.48l-11.03-14.82h3.52l11.03,14.82h-3.52Z"/>
      <path class="cls-2" d="M1027.6,650.48v-40.83h3.09v40.83h-3.09Z"/>
      <path class="cls-2" d="M1045.48,650.48v-40.83h2.61l30.25,37.16h-1.39v-37.16h3.09v40.83h-2.55l-30.31-37.16h1.39v37.16h-3.09Z"/>
      <path class="cls-2" d="M1112.96,650.77c-3.19,0-6.14-.52-8.85-1.55-2.71-1.03-5.06-2.48-7.06-4.35-2-1.87-3.55-4.05-4.64-6.56-1.09-2.51-1.64-5.26-1.64-8.25s.55-5.75,1.64-8.25c1.09-2.51,2.65-4.7,4.67-6.56,2.02-1.87,4.37-3.32,7.06-4.35s5.65-1.55,8.88-1.55,5.92.47,8.55,1.4c2.63.93,4.87,2.33,6.73,4.2l-1.94,1.98c-1.86-1.75-3.89-2.99-6.09-3.73-2.2-.74-4.6-1.11-7.18-1.11-2.75,0-5.3.45-7.64,1.34-2.35.9-4.39,2.16-6.12,3.79-1.74,1.63-3.08,3.54-4.03,5.72-.95,2.18-1.43,4.55-1.43,7.12s.48,4.94,1.43,7.12c.95,2.18,2.29,4.08,4.03,5.72,1.74,1.63,3.78,2.9,6.12,3.79,2.34.9,4.89,1.34,7.64,1.34,2.51,0,4.88-.37,7.12-1.11,2.24-.74,4.29-1.96,6.15-3.68l1.76,2.28c-1.9,1.75-4.17,3.06-6.82,3.94-2.65.87-5.43,1.31-8.34,1.31ZM1125.15,645.23v-14.99h2.97v15.28l-2.97-.29Z"/>
      <path class="cls-2" d="M1134.6,650.48l19.52-40.83h3.09l19.52,40.83h-3.33l-18.43-38.97h1.33l-18.37,38.97h-3.33ZM1141.76,638.99l1.03-2.51h25.4l1.03,2.51h-27.46ZM1152.25,606.32l8.43-6.88h4.37l-9.52,6.88h-3.27Z"/>
      <path class="cls-2" d="M1180.01,636.13v-2.63h15.58v2.63h-15.58Z"/>
      <path class="cls-2" d="M1206.75,650.48v-40.83h15.22c3.56,0,6.61.55,9.15,1.63,2.55,1.09,4.51,2.65,5.88,4.7,1.37,2.04,2.06,4.52,2.06,7.44s-.69,5.29-2.06,7.35c-1.37,2.06-3.33,3.64-5.88,4.72-2.55,1.09-5.6,1.63-9.15,1.63h-13.52l1.39-1.4v14.76h-3.09ZM1209.84,635.9l-1.39-1.46h13.52c4.57,0,8.03-.96,10.4-2.89s3.55-4.64,3.55-8.14-1.18-6.27-3.55-8.2c-2.36-1.93-5.83-2.89-10.4-2.89h-13.52l1.39-1.46v25.02Z"/>
      <path class="cls-2" d="M1249.49,650.48v-40.83h15.22c3.56,0,6.61.55,9.15,1.63,2.55,1.09,4.51,2.65,5.88,4.7,1.37,2.04,2.06,4.52,2.06,7.44s-.69,5.28-2.06,7.32c-1.37,2.04-3.33,3.62-5.88,4.73-2.55,1.11-5.6,1.66-9.15,1.66h-13.52l1.39-1.4v14.76h-3.09ZM1252.58,635.9l-1.39-1.4h13.52c4.57,0,8.03-.97,10.4-2.92,2.36-1.94,3.55-4.67,3.55-8.17s-1.18-6.27-3.55-8.2c-2.36-1.93-5.83-2.89-10.4-2.89h-13.52l1.39-1.46v25.02ZM1278.96,650.48l-11.03-14.82h3.52l11.03,14.82h-3.52Z"/>
    </g>
    <g>
      <g>
        <polygon class="cls-3" points="540.12 403.86 568.84 403.86 578.97 403.86 630.3 403.86 630.3 375.75 540.12 375.75 540.12 403.86"/>
        <polygon class="cls-3" points="1161.22 459.96 1161.22 375.75 1132.02 375.75 1132.02 488.07 1208.65 488.07 1208.65 459.96 1161.22 459.96"/>
        <polygon class="cls-3" points="720.1 440.53 676.85 375.76 645.18 375.76 645.18 488.07 674.43 488.07 674.43 423.71 716.8 488.07 749.4 488.07 749.4 375.76 720.1 375.76 720.1 440.53"/>
        <polygon class="cls-3" points="764 403.85 797.72 403.85 797.72 488.07 826.81 488.07 826.81 403.85 860.48 403.85 860.48 375.59 764 375.59 764 403.85"/>
        <path class="cls-3" d="M1033.34,376.73l-44.86,111.34h31.53l5.77-14.04h54.58l5.66,14.04h31.4l-44.87-111.34h-39.21ZM1036.89,446.08l16.11-39.62,16.15,39.62h-32.26Z"/>
        <path class="cls-3" d="M504.74,445.72c-5.19,8.79-14.92,14.25-25.39,14.25-16.11,0-29.21-12.61-29.21-28.1s13.1-28.1,29.21-28.1c10.62,0,20.42,5.57,25.57,14.53l.47.82,19.31-21.88.36-.41-.35-.42c-11.17-13.21-27.7-20.79-45.35-20.79-32.23,0-58.46,25.23-58.46,56.25s26.23,56.25,58.46,56.25c17.92,0,34.62-7.78,45.8-21.36l.36-.43-20.31-21.38-.45.77Z"/>
        <polygon class="cls-3" points="540.12 488.07 630.3 488.07 630.3 459.93 569.37 459.93 569.37 445.95 630.3 445.95 630.3 417.84 540.12 417.84 540.12 488.07"/>
        <path class="cls-3" d="M973.67,414.89c0-25.03-18.25-39.15-48.09-39.15h-50.49v112.31h29.31v-84.2h21.19c.65.01,2.76,0,3.22,0,.34,0,2.73.19,3.26.28,6.96,1.04,12.3,6.78,12.3,13.77,0,7.72-6.51,13.98-14.53,13.98-.15,0-.82.01-1.03.01h-22.18l33.15,56.16h34.11l-20.77-35.4c13.23-6.57,20.57-20.59,20.57-37.76Z"/>
      </g>
      <g>
        <path class="cls-3" d="M670.51,516.42c-32.29,0-58.46,25.19-58.46,56.25s26.18,56.25,58.46,56.25,58.46-25.19,58.46-56.25-26.18-56.25-58.46-56.25ZM670.51,600.72c-16.1,0-29.16-12.56-29.16-28.05s13.05-28.05,29.16-28.05,29.16,12.56,29.16,28.05-13.05,28.05-29.16,28.05Z"/>
        <polygon class="cls-3" points="535.49 574.5 505.91 516.42 473.37 516.42 473.37 628.89 502.59 628.89 502.59 573.83 525.38 617.66 545.88 617.66 568.14 574.09 568.3 628.89 597.43 628.89 597.43 516.42 565.12 516.42 535.49 574.5"/>
        <rect class="cls-3" x="429.62" y="516.43" width="29.15" height="26.79"/>
        <rect class="cls-3" x="429.78" y="570.29" width="29.05" height="58.35"/>
        <path class="cls-3" d="M841.4,547.22c.15-.79.24-1.58.25-2.37,0-.04.01-.09.01-.13,0,0,0-.01,0-.02,0,0,0,0,0-.01,0-.02,0-.03,0-.05-.04-14.89-12.12-27.02-27.36-27.94-.3-.05-1.05-.09-1.22-.1-5.21-.09-13.31,0-16.73,0h-52.69v112.31h54.62c3.39,0,7.42.04,10.9.01,1.51-.01,2.94.04,4.14-.02.78-.04,1.39-.07,1.92-.12,14.83-1.34,26.43-13.33,26.43-27.95s-12.59-27.56-28.29-28.02c.09-.02.18-.06.27-.09,14.69-.57,26.47-11.56,27.77-25.51ZM800.27,606.94h-27.33v-23.34h22.26c1.35,0,4.64.03,5.07.03,6.69,0,12.11,5.22,12.11,11.65s-5.42,11.65-12.11,11.65ZM800.37,561.53h-27.44v-23.11h27.44c6.63,0,12.01,5.17,12.01,11.55s-5.38,11.55-12.01,11.55Z"/>
      </g>
    </g>
    <g>
      <path class="cls-1" d="M883.8,579.73h41.93v4.3h-46.88v-65.37h45.42v4.3h-40.47v56.78ZM883.22,548.73h36.78v4.2h-36.78v-4.2Z"/>
      <path class="cls-1" d="M933.01,584.02l27.56-35.58v3.74l-25.72-33.52h5.82l22.71,29.51h-2.14l22.71-29.51h5.53l-25.53,33.15v-3.17l27.37,35.39h-5.82l-24.46-31.56h2.04l-24.26,31.56h-5.82Z"/>
      <path class="cls-1" d="M1002.89,584.02v-65.37h24.36c5.69,0,10.58.87,14.66,2.61,4.08,1.74,7.21,4.25,9.41,7.52,2.2,3.27,3.3,7.24,3.3,11.91s-1.1,8.47-3.3,11.77c-2.2,3.3-5.34,5.82-9.41,7.56-4.08,1.74-8.96,2.61-14.66,2.61h-21.64l2.23-2.24v23.63h-4.95ZM1007.84,560.68l-2.23-2.33h21.64c7.31,0,12.86-1.54,16.65-4.62,3.79-3.08,5.68-7.42,5.68-13.03s-1.89-10.04-5.68-13.12c-3.79-3.08-9.33-4.62-16.65-4.62h-21.64l2.23-2.33v40.06Z"/>
      <path class="cls-1" d="M1076.26,579.73h41.93v4.3h-46.88v-65.37h45.42v4.3h-40.47v56.78ZM1075.68,548.73h36.78v4.2h-36.78v-4.2Z"/>
      <path class="cls-1" d="M1136.24,584.02v-65.37h24.36c5.69,0,10.58.87,14.66,2.61,4.08,1.74,7.21,4.25,9.41,7.52,2.2,3.27,3.3,7.24,3.3,11.91s-1.1,8.45-3.3,11.72c-2.2,3.27-5.34,5.79-9.41,7.56-4.08,1.77-8.96,2.66-14.66,2.66h-21.64l2.23-2.24v23.63h-4.95ZM1141.19,560.68l-2.23-2.24h21.64c7.31,0,12.86-1.56,16.65-4.67,3.78-3.11,5.68-7.47,5.68-13.07s-1.89-10.04-5.68-13.12c-3.79-3.08-9.33-4.62-16.65-4.62h-21.64l2.23-2.33v40.06ZM1183.41,584.02l-17.66-23.72h5.63l17.66,23.72h-5.63Z"/>
      <path class="cls-1" d="M1206.12,584.02v-65.37h4.95v65.37h-4.95Z"/>
      <path class="cls-1" d="M1239.7,579.73h41.93v4.3h-46.88v-65.37h45.42v4.3h-40.47v56.78ZM1239.12,548.73h36.78v4.2h-36.78v-4.2Z"/>
      <path class="cls-1" d="M1299.68,584.02v-65.37h4.17l48.43,59.49h-2.23v-59.49h4.95v65.37h-4.08l-48.53-59.49h2.23v59.49h-4.95Z"/>
      <path class="cls-1" d="M1407.41,584.49c-5.05,0-9.72-.82-14.02-2.47-4.3-1.65-8.04-3.97-11.21-6.96-3.17-2.99-5.63-6.49-7.38-10.51-1.75-4.02-2.62-8.42-2.62-13.21s.87-9.2,2.62-13.21c1.75-4.02,4.22-7.52,7.42-10.51,3.2-2.99,6.94-5.31,11.21-6.96,4.27-1.65,8.93-2.47,13.98-2.47,4.79,0,9.27.75,13.44,2.24,4.17,1.49,7.75,3.77,10.72,6.82l-3.11,3.08c-2.91-2.74-6.13-4.72-9.66-5.93-3.53-1.21-7.26-1.82-11.21-1.82-4.34,0-8.36.72-12.08,2.15-3.72,1.43-6.96,3.46-9.71,6.07-2.75,2.61-4.89,5.67-6.41,9.15-1.52,3.49-2.28,7.28-2.28,11.39s.76,7.91,2.28,11.39c1.52,3.49,3.65,6.54,6.41,9.15,2.75,2.61,5.98,4.64,9.71,6.07,3.72,1.43,7.75,2.15,12.08,2.15,3.95,0,7.68-.61,11.21-1.82,3.53-1.21,6.75-3.22,9.66-6.02l3.11,3.08c-2.98,3.05-6.55,5.34-10.72,6.86-4.17,1.53-8.65,2.29-13.44,2.29Z"/>
      <path class="cls-1" d="M1453.12,579.73h41.93v4.3h-46.88v-65.37h45.42v4.3h-40.47v56.78ZM1452.54,548.73h36.78v4.2h-36.78v-4.2Z"/>
    </g>
  </g>
  <g>
    <g>
      <g>
        <path class="cls-3" d="M467.53,680.01v-2.32c0-.7-.6-1.26-1.33-1.22-4.02.23-7.74,1.53-10.83,3.59-.8-1.09-1.69-2.14-2.67-3.13,3.85-2.56,8.51-4.15,13.56-4.37.67-.03,1.2-.56,1.2-1.21v-2.32c0-.69-.6-1.24-1.31-1.22-6.33.25-12.3,2.29-17.25,5.86h0c-4.95-3.57-10.92-5.62-17.25-5.86-.72-.03-1.31.53-1.31,1.22v2.32c0,.65.53,1.18,1.2,1.21,5.05.22,9.71,1.81,13.56,4.37-.98.99-1.87,2.04-2.67,3.13-3.09-2.06-6.81-3.35-10.83-3.59-.73-.04-1.33.51-1.33,1.22v2.32c0,.64.52,1.17,1.19,1.21,3.17.22,6.08,1.29,8.46,2.96-.64,1.29-1.17,2.62-1.58,3.99-1.75-1.6-4.05-2.68-6.61-2.97-.77-.09-1.4.46-1.4,1.21v2.34c0,.61.47,1.11,1.09,1.2,2.68.42,4.8,2.34,5.27,4.77.11.58.62,1.02,1.23,1.02h4.27c0-2.74.52-5.37,1.48-7.82,1.36,1.95,2.23,4.23,2.44,6.66.06.65.6,1.16,1.28,1.16h1.51s1.51,0,1.51,0c.68,0,1.22-.51,1.28-1.16.21-2.44,1.08-4.71,2.44-6.66.95,2.44,1.48,5.08,1.48,7.82h4.27c.62,0,1.12-.44,1.23-1.02.47-2.43,2.59-4.36,5.27-4.77.62-.1,1.09-.6,1.09-1.2v-2.34c0-.74-.63-1.3-1.4-1.21-2.56.29-4.85,1.37-6.61,2.97-.41-1.37-.94-2.7-1.58-3.99,2.38-1.67,5.29-2.75,8.46-2.96.67-.05,1.19-.57,1.19-1.21ZM448.9,687.05h0c-.75-1.36-1.66-2.63-2.72-3.78.8-1.15,1.71-2.23,2.72-3.23h0c1,1,1.91,2.08,2.72,3.23-1.06,1.15-1.97,2.42-2.72,3.78Z"/>
        <path class="cls-3" d="M459.32,699.66h-20.83c-.7,0-1.26.54-1.26,1.22v2.31c0,.67.57,1.22,1.27,1.22h20.82c.7,0,1.27-.55,1.27-1.22v-2.31c0-.67-.57-1.22-1.26-1.22Z"/>
        <path class="cls-3" d="M451.65,666.6l-2.11-2.75c-.16-.21-.4-.32-.64-.33-.24.01-.48.12-.64.33l-2.11,2.75c-.14.18-.14.42,0,.59l2.11,2.75c.16.21.4.32.64.33.24-.01.48-.12.64-.33l2.11-2.75c.14-.18.14-.42,0-.59Z"/>
      </g>
      <g>
        <path class="cls-3" d="M502.17,684.54h6.99v10.61c-1.48.99-3.32,1.81-5.51,2.46-2.19.65-4.26.97-6.21.97-2.79,0-5.3-.59-7.54-1.77-2.24-1.18-4-2.8-5.27-4.86-1.28-2.06-1.91-4.38-1.91-6.96s.66-4.87,1.97-6.93c1.31-2.06,3.14-3.67,5.47-4.84,2.33-1.17,4.94-1.75,7.83-1.75,2.08,0,4.17.36,6.25,1.08,2.08.72,3.85,1.7,5.31,2.94l-4.61,5.29c-.94-.87-2.04-1.56-3.3-2.09-1.26-.52-2.49-.78-3.69-.78-1.3,0-2.48.31-3.54.93-1.05.62-1.88,1.47-2.48,2.55-.6,1.08-.9,2.28-.9,3.59s.31,2.56.92,3.65c.61,1.09,1.45,1.95,2.52,2.57,1.07.62,2.25.93,3.55.93,1.17,0,2.55-.36,4.14-1.08v-6.52Z"/>
        <path class="cls-3" d="M529.24,698.06l-3.63-7.04h-4.3v7.04h-8.13v-26.1h12.77c3.67,0,6.52.81,8.54,2.42,2.02,1.61,3.03,3.9,3.03,6.85,0,1.91-.4,3.57-1.19,4.97-.79,1.4-1.93,2.51-3.42,3.33l5.55,8.53h-9.22ZM521.31,685.06h4.65c1.22,0,2.17-.31,2.83-.93.66-.62,1-1.51,1-2.68s-.33-2.02-1-2.63c-.66-.61-1.61-.91-2.83-.91h-4.65v7.15Z"/>
        <path class="cls-3" d="M550.53,690.8c.89.89,1.99,1.34,3.32,1.34s2.37-.44,3.2-1.32c.83-.88,1.25-2.07,1.25-3.56v-15.3h8.13v15.3c0,2.28-.51,4.28-1.54,5.98-1.03,1.7-2.49,3.02-4.39,3.95-1.9.93-4.12,1.4-6.64,1.4s-4.79-.47-6.72-1.4c-1.93-.93-3.42-2.25-4.47-3.95-1.05-1.7-1.58-3.69-1.58-5.98v-15.3h8.13v15.3c0,1.47.44,2.64,1.33,3.54Z"/>
        <path class="cls-3" d="M591.26,674.37c1.94,1.61,2.91,3.9,2.91,6.85,0,3.1-.97,5.51-2.91,7.22-1.94,1.71-4.68,2.57-8.22,2.57l-4.3.04v7h-8.13v-26.1h12.42c3.54,0,6.28.81,8.22,2.42ZM585.48,684.13c.66-.62,1-1.51,1-2.68s-.33-2.02-1-2.63c-.66-.61-1.61-.91-2.83-.91h-3.91v7.15h3.91c1.22,0,2.17-.31,2.83-.93Z"/>
        <path class="cls-3" d="M618.29,673.22c2.28,1.17,4.06,2.77,5.35,4.82,1.29,2.05,1.93,4.35,1.93,6.91s-.64,4.91-1.93,6.98c-1.29,2.07-3.07,3.7-5.35,4.88-2.28,1.18-4.82,1.77-7.64,1.77s-5.39-.59-7.66-1.77c-2.27-1.18-4.04-2.81-5.33-4.88-1.29-2.07-1.93-4.4-1.93-6.98s.64-4.86,1.93-6.91c1.29-2.05,3.07-3.66,5.33-4.82,2.27-1.17,4.82-1.75,7.66-1.75s5.36.58,7.64,1.75ZM607.43,678.84c-1.03.62-1.85,1.47-2.46,2.55-.61,1.08-.92,2.28-.92,3.59s.31,2.52.92,3.61c.61,1.09,1.43,1.96,2.46,2.59,1.03.63,2.14.95,3.34.95s2.26-.32,3.26-.95c1-.63,1.79-1.49,2.36-2.57.57-1.08.86-2.29.86-3.63s-.29-2.51-.86-3.59c-.57-1.08-1.35-1.93-2.34-2.55-.99-.62-2.08-.93-3.28-.93s-2.31.31-3.34.93Z"/>
        <path class="cls-3" d="M640.31,671.95h8.13v19.62h11.48v6.48h-19.61v-26.1Z"/>
        <path class="cls-3" d="M682.81,698.06l-1.6-4.17h-11.06l-1.64,4.17h-8.36l11.68-26.1h8.36l11.29,26.1h-8.67ZM672.42,688.23h6.64l-3.28-8.53-3.36,8.53Z"/>
        <path class="cls-3" d="M693.47,671.95h8.71l7.34,14.49,7.3-14.49h8.71v26.1h-7.15v-15.49l-6.25,12.92h-5.27l-6.25-12.92v15.49h-7.15v-26.1Z"/>
        <path class="cls-3" d="M750.19,698.06l-1.6-4.17h-11.05l-1.64,4.17h-8.36l11.68-26.1h8.36l11.29,26.1h-8.67ZM739.8,688.23h6.64l-3.28-8.53-3.36,8.53Z"/>
        <path class="cls-3" d="M780.57,673.57c2.23,1.08,3.95,2.61,5.18,4.58,1.22,1.97,1.84,4.25,1.84,6.83s-.63,4.87-1.88,6.85c-1.25,1.99-3.01,3.52-5.27,4.6-2.27,1.08-4.88,1.62-7.85,1.62h-11.72v-26.1h11.99c2.92,0,5.49.54,7.72,1.62ZM777.58,690.09c1.15-1.27,1.72-2.94,1.72-5.03s-.61-3.77-1.84-5.06c-1.22-1.29-2.81-1.94-4.77-1.94h-3.71v13.93h4.1c1.85,0,3.35-.63,4.49-1.9Z"/>
        <path class="cls-3" d="M806.68,698.06l-3.63-7.04h-4.3v7.04h-8.13v-26.1h12.77c3.67,0,6.52.81,8.54,2.42,2.02,1.61,3.03,3.9,3.03,6.85,0,1.91-.4,3.57-1.19,4.97-.79,1.4-1.93,2.51-3.42,3.33l5.55,8.53h-9.22ZM798.75,685.06h4.65c1.22,0,2.17-.31,2.83-.93.66-.62,1-1.51,1-2.68s-.33-2.02-1-2.63c-.66-.61-1.61-.91-2.83-.91h-4.65v7.15Z"/>
        <path class="cls-3" d="M818.95,671.95h22.38v5.96h-14.26v4.1h12.93v5.96h-12.93v4.13h14.65v5.96h-22.77v-26.1Z"/>
      </g>
    </g>
    <g>
      <path class="cls-3" d="M487.93,653.22l-.39,2.13h2.87l-.23,1.27h-2.87l-.4,2.22h3.24l-.24,1.31h-4.97l1.52-8.23h4.95l-.23,1.29h-3.24Z"/>
      <path class="cls-3" d="M504.55,652.33c.57.26,1.01.64,1.32,1.12.3.49.46,1.06.46,1.73,0,.3-.03.59-.09.87-.15.82-.46,1.54-.95,2.16-.49.62-1.1,1.09-1.84,1.43-.74.34-1.57.51-2.47.51h-2.98l1.52-8.21h2.98c.79,0,1.47.13,2.05.39ZM503.38,658.08c.57-.49.94-1.16,1.11-2.02.04-.26.06-.48.06-.67,0-.66-.2-1.17-.61-1.53-.4-.36-.99-.54-1.77-.54h-1.2l-1,5.5h1.2c.9,0,1.63-.24,2.21-.73Z"/>
      <path class="cls-3" d="M516.55,651.94l-1.5,8.21h-1.72l1.52-8.21h1.71Z"/>
      <path class="cls-3" d="M528.73,658.42c.39-.2.72-.48.99-.86h1.97c-.4.75-.95,1.36-1.64,1.82s-1.47.73-2.32.82l-.09.48c.4,0,.73.09.98.26.26.17.39.43.39.76,0,.05,0,.13-.02.26-.07.42-.29.75-.64.98s-.76.34-1.22.34h-1.74l.18-.96h1.46c.2,0,.35-.03.45-.08.11-.06.17-.15.21-.29.03-.14,0-.24-.09-.29-.09-.05-.24-.08-.44-.08h-.76l.24-1.38c-.62-.06-1.16-.24-1.63-.54-.47-.3-.83-.69-1.08-1.16-.25-.48-.38-1.02-.38-1.62,0-.27.02-.55.07-.84.15-.81.47-1.53.96-2.17s1.1-1.14,1.82-1.49c.72-.36,1.49-.54,2.31-.54.95,0,1.75.24,2.39.71.64.47,1.02,1.12,1.15,1.95h-1.97c-.13-.38-.35-.66-.67-.85-.32-.19-.71-.29-1.17-.29-.5,0-.96.11-1.39.33-.43.22-.79.53-1.08.94-.29.41-.48.88-.58,1.41-.04.25-.06.46-.06.62,0,.64.19,1.14.57,1.51.38.37.89.55,1.55.55.47,0,.89-.1,1.28-.29Z"/>
      <path class="cls-3" d="M544.75,658.59h-3.41l-.84,1.57h-1.8l4.59-8.23h1.99l1.55,8.23h-1.81l-.27-1.57ZM544.53,657.3l-.61-3.48-1.88,3.48h2.5ZM542.92,650.12c.31-.25.67-.38,1.08-.38.16,0,.31.03.43.08.12.05.25.12.39.22.11.08.21.14.3.17.09.04.18.05.28.05.31,0,.52-.17.64-.51h.92c-.18.52-.42.9-.73,1.16-.31.26-.67.38-1.08.38-.17,0-.31-.03-.43-.08-.11-.05-.25-.12-.4-.22-.11-.08-.21-.14-.3-.18-.09-.04-.18-.06-.27-.06-.29,0-.5.17-.62.52h-.92c.17-.52.41-.9.73-1.16Z"/>
      <path class="cls-3" d="M556.63,659.79c-.55-.29-.98-.7-1.28-1.22-.3-.52-.45-1.12-.45-1.79,0-.94.22-1.79.65-2.54.44-.75,1.04-1.34,1.81-1.77.77-.43,1.64-.64,2.6-.64.73,0,1.36.15,1.91.44.55.29.98.7,1.28,1.22.3.52.45,1.12.45,1.78,0,.96-.22,1.81-.65,2.57-.43.75-1.04,1.34-1.81,1.77-.77.43-1.65.64-2.62.64-.72,0-1.35-.15-1.9-.44ZM560.4,658.27c.47-.3.83-.7,1.09-1.21.26-.51.39-1.06.39-1.65,0-.64-.19-1.15-.56-1.52s-.9-.55-1.58-.55c-.6,0-1.14.15-1.61.45-.47.3-.83.7-1.09,1.2-.26.5-.38,1.05-.38,1.65,0,.64.19,1.15.56,1.52.37.37.9.56,1.57.56.61,0,1.15-.15,1.62-.45Z"/>
    </g>
  </g>
</svg>