<?xml version="1.0" encoding="UTF-8"?>
<svg id="Camada_1" data-name="Camada 1" xmlns="http://www.w3.org/2000/svg" viewBox="0 0 1920 1080">
  <defs>
    <style>
      .cls-1 {
        fill: #f18e1a;
      }

      .cls-2 {
        fill: #0f5c8c;
      }

      .cls-3 {
        fill: #e74b1d;
      }

      .cls-4 {
        fill: #e84e1b;
      }

      .cls-5 {
        fill: #1d1d1b;
      }

      .cls-6 {
        fill: #ffc200;
      }
    </style>
  </defs>
  <g>
    <g>
      <g>
        <path class="cls-4" d="M979.07,822.08c-1.39,0-2.43-.31-3.12-.93-.69-.62-1.04-1.36-1.04-2.23,0-.95.38-1.71,1.14-2.28.76-.56,1.97-.85,3.64-.85h2.93v1.82h-2.41c-.72,0-1.22.1-1.53.31-.3.21-.46.48-.46.83,0,.39.16.69.47.89.31.21.74.31,1.28.31s.98-.11,1.37-.32c.39-.22.68-.53.88-.94l.46,1.53c-.2.56-.6,1.01-1.22,1.35-.62.34-1.41.5-2.39.5ZM982.48,821.95v-2.02l-.26-.42v-3.61c0-.67-.21-1.18-.62-1.51-.41-.34-1.04-.5-1.89-.5-.56,0-1.14.09-1.72.28-.58.18-1.08.43-1.5.73l-1.17-2.21c.61-.43,1.35-.76,2.24-.98.89-.22,1.77-.33,2.63-.33,1.76,0,3.11.38,4.06,1.14.95.76,1.43,1.93,1.43,3.51v5.92h-3.22Z"/>
        <path class="cls-4" d="M1001.6,836c-1.99,0-3.74-.39-5.23-1.17-1.5-.78-2.65-1.85-3.48-3.2-.82-1.35-1.24-2.9-1.24-4.63s.39-3.28,1.19-4.65c.79-1.36,1.9-2.43,3.32-3.2,1.42-.77,3.02-1.15,4.8-1.15s3.26.37,4.63,1.1c1.38.74,2.46,1.78,3.27,3.12.8,1.34,1.2,2.96,1.2,4.84,0,.2-.01.42-.03.67-.02.25-.04.48-.07.7h-14.21v-2.96h11.54l-1.98.88c.02-.91-.15-1.7-.52-2.37-.37-.67-.88-1.2-1.53-1.58-.65-.38-1.41-.57-2.28-.57s-1.63.19-2.29.57c-.66.38-1.18.91-1.54,1.59s-.55,1.49-.55,2.42v.78c0,.98.22,1.82.65,2.54.43.72,1.03,1.26,1.79,1.64s1.67.57,2.73.57c.91,0,1.72-.14,2.42-.42.7-.28,1.35-.7,1.93-1.27l2.7,2.93c-.8.91-1.81,1.61-3.02,2.1-1.21.49-2.61.73-4.19.73Z"/>
        <path class="cls-4" d="M1020.94,836c-1.65,0-3.13-.37-4.45-1.12-1.32-.75-2.36-1.79-3.12-3.14-.76-1.34-1.14-2.93-1.14-4.75s.38-3.4,1.14-4.75c.76-1.34,1.8-2.39,3.12-3.14,1.32-.75,2.81-1.12,4.45-1.12,1.47,0,2.76.32,3.87.98s1.96,1.64,2.57,2.96c.61,1.32.91,3.01.91,5.07s-.29,3.73-.88,5.07c-.58,1.34-1.43,2.34-2.52,2.97-1.09.64-2.41.96-3.95.96ZM1021.79,831.84c.85,0,1.6-.19,2.28-.57.67-.38,1.21-.94,1.61-1.67.4-.74.6-1.6.6-2.6s-.2-1.89-.6-2.6c-.4-.72-.94-1.26-1.61-1.64-.67-.38-1.43-.57-2.28-.57s-1.57.19-2.24.57c-.67.38-1.21.93-1.61,1.64-.4.72-.6,1.58-.6,2.6s.2,1.86.6,2.6c.4.74.94,1.29,1.61,1.67.67.38,1.42.57,2.24.57ZM1026.4,835.74v-3.58l.1-5.2-.32-5.17v-10.18h5.07v24.12h-4.84Z"/>
        <path class="cls-4" d="M1038.46,815.81c-.95,0-1.72-.27-2.31-.81-.58-.54-.88-1.21-.88-2.02s.29-1.47.88-2.02c.59-.54,1.35-.81,2.31-.81s1.7.25,2.29.76.89,1.17.89,1.97c0,.84-.29,1.54-.88,2.1-.59.55-1.35.83-2.31.83ZM1035.93,835.74v-17.49h5.07v17.49h-5.07Z"/>
        <path class="cls-4" d="M1054.17,836c-1.89,0-3.56-.38-5.02-1.15-1.46-.77-2.61-1.84-3.45-3.2-.83-1.36-1.25-2.91-1.25-4.65s.42-3.3,1.25-4.65c.83-1.34,1.98-2.41,3.45-3.19,1.46-.78,3.14-1.17,5.02-1.17s3.45.39,4.83,1.15c1.38.77,2.37,1.86,2.97,3.27l-3.9,2.15c-.48-.82-1.05-1.43-1.72-1.8-.67-.38-1.41-.57-2.21-.57-.84,0-1.61.19-2.31.57s-1.25.93-1.66,1.64-.62,1.58-.62,2.6.21,1.89.62,2.62c.41.73.96,1.28,1.66,1.66.69.38,1.46.57,2.31.57s1.54-.19,2.21-.57c.67-.38,1.25-.99,1.72-1.84l3.9,2.15c-.61,1.39-1.6,2.47-2.97,3.25-1.38.78-2.99,1.17-4.83,1.17ZM1052.31,843.28c-.56,0-1.11-.06-1.64-.19-.53-.13-.99-.3-1.38-.52l.78-2.15c.32.15.66.27,1.01.36.35.09.73.13,1.14.13.61,0,1.03-.1,1.28-.29.25-.2.37-.44.37-.75,0-.28-.13-.51-.37-.68-.25-.17-.66-.26-1.22-.26h-1.1l.84-3.45h2.7l-.46,1.89c.98.11,1.69.42,2.13.93.44.51.67,1.09.67,1.74,0,1.02-.43,1.82-1.3,2.39s-2.02.86-3.45.86Z"/>
        <path class="cls-4" d="M1070.32,836c-1.34,0-2.5-.23-3.48-.7-.98-.47-1.73-1.1-2.26-1.9-.53-.8-.8-1.7-.8-2.7s.25-1.92.76-2.71c.51-.79,1.32-1.4,2.42-1.84s2.56-.65,4.36-.65h4.62v2.93h-4.1c-1.19,0-2.01.19-2.45.58-.44.39-.67.88-.67,1.46,0,.65.25,1.17.76,1.54.51.38,1.2.57,2.06.57s1.64-.19,2.32-.58,1.17-.99,1.45-1.79l.78,2.37c-.37,1.08-1.04,1.92-2.02,2.52-.98.6-2.23.89-3.77.89ZM1075.65,835.74v-3.41l-.32-.75v-6.11c0-1.08-.33-1.93-.99-2.54-.66-.61-1.67-.91-3.04-.91-.93,0-1.85.15-2.75.44-.9.29-1.67.69-2.32,1.19l-1.79-3.54c.95-.69,2.1-1.22,3.45-1.58,1.34-.36,2.71-.54,4.1-.54,2.67,0,4.74.63,6.21,1.89,1.47,1.26,2.21,3.22,2.21,5.88v9.98h-4.75ZM1074.94,816.14c-.56,0-1.06-.11-1.5-.33-.43-.22-.82-.46-1.17-.73-.35-.27-.67-.51-.98-.72s-.61-.31-.91-.31c-.46,0-.82.16-1.09.47-.27.31-.43.76-.47,1.35h-2.57c.04-1.45.4-2.61,1.07-3.46.67-.86,1.58-1.28,2.73-1.28.56,0,1.07.1,1.51.31.44.21.84.44,1.19.72.35.27.67.52.96.73.29.22.59.32.89.32.46,0,.82-.16,1.1-.47s.43-.74.46-1.28h2.57c-.02,1.39-.37,2.51-1.06,3.38-.68.87-1.6,1.3-2.75,1.3Z"/>
        <path class="cls-4" d="M1093.4,836c-1.84,0-3.48-.39-4.93-1.17-1.44-.78-2.57-1.85-3.4-3.2-.82-1.35-1.24-2.9-1.24-4.63s.41-3.31,1.24-4.66c.82-1.35,1.96-2.42,3.4-3.19,1.44-.77,3.08-1.15,4.93-1.15s3.52.39,4.97,1.15c1.45.77,2.59,1.83,3.41,3.19.82,1.35,1.24,2.91,1.24,4.66s-.41,3.31-1.24,4.65c-.82,1.34-1.96,2.41-3.41,3.19-1.45.78-3.11,1.17-4.97,1.17ZM1093.4,831.84c.87,0,1.63-.19,2.29-.57.66-.38,1.19-.94,1.59-1.67.4-.74.6-1.6.6-2.6s-.2-1.89-.6-2.6c-.4-.72-.93-1.26-1.59-1.64-.66-.38-1.41-.57-2.26-.57s-1.6.19-2.28.57c-.67.38-1.21.93-1.61,1.64-.4.72-.6,1.58-.6,2.6s.2,1.86.6,2.6c.4.74.94,1.29,1.61,1.67.67.38,1.42.57,2.24.57Z"/>
        <path class="cls-4" d="M958.04,811.53c1.54-1.29,3.58-1.93,6.1-1.93,1.72,0,3.2.3,4.42.9,1.23.6,2.15,1.42,2.78,2.44.63,1.03.94,2.19.94,3.49,0,1.49-.38,2.74-1.15,3.77-.77,1.03-1.68,1.72-2.74,2.07v.14c1.37.42,2.44,1.18,3.2,2.26.77,1.09,1.15,2.48,1.15,4.18,0,1.42-.32,2.68-.97,3.79-.65,1.11-1.6,1.98-2.87,2.6-1.26.63-2.78.94-4.55.94-2.67,0-4.84-.67-6.51-2.02-1.68-1.34-2.56-3.33-2.65-5.95h4.81c.05,1.16.44,2.08,1.19,2.78.74.7,1.76,1.04,3.06,1.04,1.2,0,2.13-.34,2.78-1.01.65-.67.97-1.54.97-2.6,0-1.42-.45-2.43-1.34-3.04-.9-.61-2.29-.92-4.18-.92h-1.03v-4.07h1.03c3.35,0,5.02-1.12,5.02-3.36,0-1.01-.3-1.8-.9-2.37s-1.47-.85-2.6-.85-1.96.3-2.57.9c-.6.6-.95,1.36-1.04,2.28h-4.85c.12-2.36.95-4.18,2.49-5.47Z"/>
      </g>
      <g>
        <path class="cls-2" d="M632.21,846.93v-32.44h1.99l15.06,26h-1.07l15.02-26h1.95l.05,32.44h-2.32l-.05-28.87h.65l-14.23,24.56h-1.16l-14.28-24.56h.7v28.87h-2.32Z"/>
        <path class="cls-2" d="M671.1,846.93l14.92-32.44h2.36l14.92,32.44h-2.55l-14.09-30.96h1.02l-14.04,30.96h-2.55ZM676.57,837.8l.79-1.99h19.42l.79,1.99h-21Z"/>
        <path class="cls-2" d="M709.2,846.93v-32.44h11.63c2.72,0,5.05.43,7,1.3,1.95.87,3.45,2.11,4.5,3.73,1.05,1.62,1.58,3.59,1.58,5.91s-.53,4.19-1.58,5.82c-1.05,1.62-2.55,2.87-4.5,3.75-1.95.88-4.28,1.32-7,1.32h-10.34l1.07-1.11v11.73h-2.36ZM711.56,835.34l-1.07-1.11h10.34c3.49,0,6.14-.77,7.95-2.32,1.81-1.54,2.71-3.71,2.71-6.49s-.9-4.98-2.71-6.51c-1.81-1.53-4.46-2.29-7.95-2.29h-10.34l1.07-1.16v19.88ZM731.72,846.93l-8.43-11.77h2.69l8.44,11.77h-2.69Z"/>
        <path class="cls-2" d="M742.57,846.93v-32.44h2.36v32.44h-2.36Z"/>
        <path class="cls-2" d="M756.24,846.93v-32.44h1.99l23.13,29.52h-1.07v-29.52h2.36v32.44h-1.95l-23.17-29.52h1.07v29.52h-2.36Z"/>
        <path class="cls-2" d="M807.83,847.16c-2.44,0-4.7-.41-6.77-1.23-2.07-.82-3.87-1.97-5.4-3.45-1.53-1.48-2.71-3.22-3.55-5.21-.83-1.99-1.25-4.18-1.25-6.56s.42-4.57,1.25-6.56c.83-1.99,2.02-3.73,3.57-5.21,1.54-1.48,3.34-2.63,5.4-3.45,2.06-.82,4.32-1.23,6.79-1.23s4.53.37,6.54,1.11c2.01.74,3.72,1.85,5.14,3.34l-1.48,1.58c-1.42-1.39-2.97-2.38-4.66-2.97-1.68-.59-3.51-.88-5.49-.88-2.1,0-4.05.36-5.84,1.07-1.79.71-3.35,1.72-4.68,3.01-1.33,1.3-2.36,2.81-3.08,4.54-.73,1.73-1.09,3.61-1.09,5.65s.36,3.92,1.09,5.65c.73,1.73,1.75,3.24,3.08,4.54,1.33,1.3,2.89,2.3,4.68,3.01,1.79.71,3.74,1.07,5.84,1.07,1.92,0,3.73-.29,5.45-.88,1.72-.59,3.28-1.56,4.7-2.92l1.34,1.81c-1.45,1.39-3.19,2.43-5.21,3.13-2.02.69-4.15,1.04-6.37,1.04ZM817.14,842.76v-11.91h2.27v12.14l-2.27-.23Z"/>
        <path class="cls-2" d="M824.37,846.93l14.92-32.44h2.36l14.92,32.44h-2.55l-14.09-30.96h1.02l-14.04,30.96h-2.55ZM829.84,837.8l.79-1.99h19.42l.79,1.99h-21ZM837.86,811.84l6.44-5.47h3.34l-7.28,5.47h-2.5Z"/>
        <path class="cls-2" d="M859.09,835.53v-2.09h11.91v2.09h-11.91Z"/>
        <path class="cls-2" d="M879.52,846.93v-32.44h11.63c2.72,0,5.05.43,7,1.3,1.95.87,3.45,2.11,4.5,3.73,1.05,1.62,1.58,3.59,1.58,5.91s-.53,4.2-1.58,5.84c-1.05,1.64-2.55,2.89-4.5,3.75-1.95.87-4.28,1.3-7,1.3h-10.34l1.07-1.11v11.73h-2.36ZM881.89,835.34l-1.07-1.16h10.34c3.49,0,6.14-.76,7.95-2.29s2.71-3.68,2.71-6.47-.9-4.98-2.71-6.51c-1.81-1.53-4.46-2.29-7.95-2.29h-10.34l1.07-1.16v19.88Z"/>
        <path class="cls-2" d="M912.2,846.93v-32.44h11.63c2.72,0,5.05.43,7,1.3,1.95.87,3.45,2.11,4.5,3.73,1.05,1.62,1.58,3.59,1.58,5.91s-.53,4.19-1.58,5.82c-1.05,1.62-2.55,2.87-4.5,3.75-1.95.88-4.28,1.32-7,1.32h-10.34l1.07-1.11v11.73h-2.36ZM914.56,835.34l-1.07-1.11h10.34c3.49,0,6.14-.77,7.95-2.32,1.81-1.54,2.71-3.71,2.71-6.49s-.9-4.98-2.71-6.51c-1.81-1.53-4.46-2.29-7.95-2.29h-10.34l1.07-1.16v19.88ZM934.73,846.93l-8.43-11.77h2.69l8.44,11.77h-2.69Z"/>
      </g>
      <g>
        <g>
          <polygon class="cls-4" points="369.89 650.98 391.85 650.98 399.59 650.98 438.84 650.98 438.84 628.65 369.89 628.65 369.89 650.98"/>
          <polygon class="cls-4" points="844.72 695.55 844.72 628.64 822.4 628.64 822.4 717.89 880.98 717.89 880.98 695.55 844.72 695.55"/>
          <polygon class="cls-4" points="507.49 680.11 474.43 628.65 450.21 628.65 450.21 717.89 472.57 717.89 472.57 666.75 504.96 717.89 529.88 717.89 529.88 628.65 507.49 628.65 507.49 680.11"/>
          <polygon class="cls-4" points="541.05 650.97 566.83 650.97 566.83 717.89 589.07 717.89 589.07 650.97 614.8 650.97 614.8 628.52 541.05 628.52 541.05 650.97"/>
          <path class="cls-4" d="M746.95,629.42l-34.3,88.46h24.1l4.41-11.16h41.72l4.32,11.16h24.01l-34.3-88.46h-29.98ZM749.67,684.52l12.31-31.48,12.35,31.48h-24.66Z"/>
          <path class="cls-4" d="M342.85,684.24c-3.97,6.98-11.4,11.32-19.41,11.32-12.31,0-22.33-10.02-22.33-22.33s10.02-22.33,22.33-22.33c8.12,0,15.61,4.42,19.55,11.54l.36.65,14.76-17.38.27-.32-.27-.33c-8.54-10.5-21.17-16.52-34.67-16.52-24.64,0-44.69,20.05-44.69,44.69s20.05,44.69,44.69,44.69c13.7,0,26.46-6.18,35.01-16.97l.27-.34-15.53-16.98-.35.61Z"/>
          <polygon class="cls-4" points="369.89 717.89 438.84 717.89 438.84 695.53 392.26 695.53 392.26 684.43 438.84 684.43 438.84 662.09 369.89 662.09 369.89 717.89"/>
          <path class="cls-4" d="M701.34,659.74c0-19.89-13.95-31.11-36.77-31.11h-38.6v89.24h22.4v-66.9h16.2c.5,0,2.11,0,2.46,0,.26,0,2.09.15,2.49.22,5.32.83,9.4,5.39,9.4,10.94,0,6.14-4.97,11.11-11.11,11.11-.11,0-.62.01-.79.01h-16.96l25.34,44.62h26.07l-15.88-28.13c10.12-5.22,15.73-16.36,15.73-30Z"/>
        </g>
        <g>
          <path class="cls-4" d="M469.57,740.41c-24.68,0-44.7,20.01-44.7,44.7s20.01,44.7,44.7,44.7,44.7-20.01,44.7-44.7-20.01-44.7-44.7-44.7ZM469.57,807.4c-12.31,0-22.29-9.98-22.29-22.29s9.98-22.29,22.29-22.29,22.29,9.98,22.29,22.29-9.98,22.29-22.29,22.29Z"/>
          <polygon class="cls-4" points="366.35 786.56 343.74 740.41 318.87 740.41 318.87 829.78 341.2 829.78 341.2 786.03 358.63 820.85 374.3 820.85 391.31 786.23 391.44 829.78 413.71 829.78 413.71 740.41 389.01 740.41 366.35 786.56"/>
          <rect class="cls-4" x="285.42" y="740.42" width="22.28" height="21.28"/>
          <rect class="cls-4" x="285.55" y="783.21" width="22.21" height="46.36"/>
          <path class="cls-4" d="M600.22,764.89c.11-.63.18-1.26.19-1.88,0-.04.01-.07.01-.1,0,0,0,0,0-.01,0,0,0,0,0,0,0-.01,0-.02,0-.04-.03-11.83-9.27-21.47-20.92-22.2-.23-.04-.8-.07-.94-.08-3.98-.07-10.17,0-12.79,0h-40.28v89.24h41.76c2.59,0,5.67.03,8.33,0,1.16-.01,2.25.03,3.17-.02.6-.03,1.06-.06,1.47-.1,11.33-1.06,20.21-10.59,20.21-22.21s-9.63-21.9-21.63-22.26c.07-.02.14-.05.2-.07,11.23-.46,20.24-9.19,21.23-20.27ZM568.77,812.33h-20.9v-18.55h17.02c1.03,0,3.55.03,3.88.03,5.11,0,9.26,4.15,9.26,9.26s-4.15,9.26-9.26,9.26ZM568.85,776.26h-20.98v-18.36h20.98c5.07,0,9.18,4.11,9.18,9.18s-4.11,9.18-9.18,9.18Z"/>
        </g>
      </g>
      <g>
        <path class="cls-1" d="M632.63,790.71h32.05v3.41h-35.84v-51.94h34.72v3.41h-30.94v45.11ZM632.19,766.08h28.12v3.34h-28.12v-3.34Z"/>
        <path class="cls-1" d="M670.25,794.13l21.07-28.27v2.97l-19.66-26.64h4.45l17.36,23.45h-1.63l17.36-23.45h4.23l-19.51,26.34v-2.52l20.92,28.12h-4.45l-18.7-25.08h1.56l-18.55,25.08h-4.45Z"/>
        <path class="cls-1" d="M723.68,794.13v-51.94h18.62c4.35,0,8.09.69,11.2,2.08,3.12,1.39,5.52,3.38,7.2,5.97,1.68,2.6,2.52,5.75,2.52,9.46s-.84,6.73-2.52,9.35c-1.68,2.62-4.08,4.63-7.2,6.01-3.12,1.39-6.85,2.08-11.2,2.08h-16.55l1.71-1.78v18.77h-3.78ZM727.46,775.58l-1.71-1.85h16.55c5.59,0,9.83-1.22,12.73-3.67,2.89-2.45,4.34-5.9,4.34-10.35s-1.45-7.98-4.34-10.42c-2.89-2.45-7.14-3.67-12.73-3.67h-16.55l1.71-1.85v31.83Z"/>
        <path class="cls-1" d="M779.77,790.71h32.05v3.41h-35.84v-51.94h34.72v3.41h-30.94v45.11ZM779.32,766.08h28.12v3.34h-28.12v-3.34Z"/>
        <path class="cls-1" d="M825.62,794.13v-51.94h18.62c4.35,0,8.09.69,11.2,2.08,3.12,1.39,5.52,3.38,7.2,5.97,1.68,2.6,2.52,5.75,2.52,9.46s-.84,6.72-2.52,9.31c-1.68,2.6-4.08,4.6-7.2,6.01-3.12,1.41-6.85,2.11-11.2,2.11h-16.55l1.71-1.78v18.77h-3.78ZM829.41,775.58l-1.71-1.78h16.55c5.59,0,9.83-1.24,12.73-3.71,2.89-2.47,4.34-5.94,4.34-10.39s-1.45-7.98-4.34-10.42c-2.89-2.45-7.14-3.67-12.73-3.67h-16.55l1.71-1.85v31.83ZM861.68,794.13l-13.5-18.85h4.3l13.5,18.85h-4.3Z"/>
        <path class="cls-1" d="M879.04,794.13v-51.94h3.78v51.94h-3.78Z"/>
        <path class="cls-1" d="M904.72,790.71h32.05v3.41h-35.84v-51.94h34.72v3.41h-30.94v45.11ZM904.27,766.08h28.12v3.34h-28.12v-3.34Z"/>
        <path class="cls-1" d="M950.57,794.13v-51.94h3.19l37.03,47.26h-1.71v-47.26h3.78v51.94h-3.12l-37.1-47.26h1.71v47.26h-3.78Z"/>
        <path class="cls-1" d="M1032.93,794.5c-3.86,0-7.43-.65-10.72-1.97-3.29-1.31-6.15-3.15-8.57-5.53-2.42-2.37-4.3-5.16-5.64-8.35-1.34-3.19-2-6.69-2-10.5s.67-7.31,2-10.5c1.34-3.19,3.23-5.97,5.68-8.35,2.45-2.37,5.31-4.22,8.57-5.53,3.26-1.31,6.83-1.97,10.68-1.97,3.66,0,7.09.59,10.28,1.78,3.19,1.19,5.92,2.99,8.2,5.42l-2.37,2.45c-2.23-2.18-4.69-3.75-7.38-4.71-2.7-.96-5.55-1.45-8.57-1.45-3.31,0-6.39.57-9.24,1.71-2.85,1.14-5.32,2.75-7.42,4.82-2.1,2.08-3.74,4.5-4.9,7.27-1.16,2.77-1.74,5.79-1.74,9.05s.58,6.28,1.74,9.05c1.16,2.77,2.79,5.19,4.9,7.27,2.1,2.08,4.57,3.69,7.42,4.82,2.84,1.14,5.92,1.71,9.24,1.71,3.02,0,5.87-.48,8.57-1.45,2.7-.96,5.16-2.56,7.38-4.79l2.37,2.45c-2.28,2.42-5.01,4.24-8.2,5.45-3.19,1.21-6.62,1.82-10.28,1.82Z"/>
        <path class="cls-1" d="M1067.87,790.71h32.05v3.41h-35.84v-51.94h34.72v3.41h-30.94v45.11ZM1067.43,766.08h28.12v3.34h-28.12v-3.34Z"/>
      </g>
    </g>
    <g>
      <g>
        <g>
          <path class="cls-6" d="M1357.4,727.62v-8.88c0-2.68-2.2-4.81-4.87-4.64-14.79.9-28.46,5.85-39.81,13.71-2.96-4.17-6.23-8.16-9.82-11.95,14.16-9.77,31.29-15.85,49.84-16.68,2.48-.11,4.43-2.15,4.43-4.63v-8.86c0-2.64-2.19-4.75-4.83-4.65-23.26.95-45.23,8.77-63.41,22.4h0c-18.18-13.63-40.15-21.45-63.41-22.4-2.63-.11-4.83,2.01-4.83,4.65v8.86c0,2.48,1.95,4.52,4.43,4.63,18.55.84,35.68,6.91,49.84,16.68-3.59,3.78-6.87,7.78-9.82,11.95-11.36-7.86-25.02-12.81-39.81-13.71-2.68-.16-4.87,1.96-4.87,4.64v8.88c0,2.46,1.92,4.45,4.37,4.63,11.64.83,22.35,4.92,31.1,11.32-2.34,4.93-4.28,10.03-5.81,15.26-6.44-6.1-14.88-10.22-24.28-11.33-2.82-.33-5.14,1.77-5.14,4.62v8.95c0,2.32,1.72,4.23,4.01,4.6,9.85,1.59,17.65,8.94,19.37,18.24.41,2.23,2.27,3.89,4.54,3.89h15.7c0-10.48,1.92-20.53,5.42-29.87,5,7.47,8.19,16.14,8.96,25.45.2,2.48,2.22,4.42,4.7,4.42h5.53s5.53,0,5.53,0c2.49,0,4.5-1.94,4.7-4.42.77-9.31,3.96-17.99,8.96-25.45,3.51,9.34,5.42,19.39,5.42,29.87h15.7c2.26,0,4.12-1.66,4.54-3.89,1.73-9.3,9.52-16.65,19.37-18.24,2.29-.37,4.01-2.28,4.01-4.6v-8.95c0-2.84-2.32-4.95-5.14-4.62-9.4,1.11-17.85,5.24-24.28,11.33-1.52-5.23-3.47-10.33-5.81-15.26,8.76-6.4,19.46-10.49,31.1-11.32,2.45-.17,4.37-2.17,4.37-4.63ZM1288.92,754.52h0c-2.74-5.2-6.1-10.05-9.99-14.46,2.95-4.39,6.3-8.52,9.99-12.34h0c3.69,3.82,7.04,7.94,9.99,12.34-3.89,4.41-7.25,9.26-9.99,14.46Z"/>
          <path class="cls-6" d="M1327.21,802.7h-76.57c-2.56,0-4.64,2.08-4.64,4.64v8.83c0,2.57,2.1,4.67,4.67,4.67h76.53c2.57,0,4.67-2.1,4.67-4.67v-8.83c0-2.56-2.08-4.64-4.64-4.64Z"/>
          <path class="cls-6" d="M1299.03,676.41l-7.76-10.52c-.59-.8-1.46-1.21-2.34-1.26-.89.06-1.76.47-2.34,1.26l-7.76,10.52c-.5.67-.5,1.59,0,2.26l7.76,10.52c.59.8,1.46,1.21,2.34,1.26.89-.06,1.76-.47,2.34-1.26l7.76-10.52c.5-.67.5-1.59,0-2.26Z"/>
        </g>
        <g>
          <path class="cls-5" d="M1450.14,710.93h15.31v24.15c-3.25,2.26-7.27,4.12-12.06,5.59-4.79,1.47-9.32,2.2-13.6,2.2-6.1,0-11.6-1.34-16.5-4.02-4.9-2.68-8.75-6.37-11.54-11.06-2.79-4.69-4.19-9.97-4.19-15.84s1.44-11.07,4.32-15.76c2.88-4.69,6.87-8.36,11.97-11.01,5.1-2.65,10.82-3.98,17.15-3.98,4.56,0,9.12.82,13.68,2.46,4.56,1.64,8.44,3.87,11.63,6.69l-10.09,12.03c-2.05-1.98-4.46-3.56-7.23-4.74-2.77-1.19-5.46-1.78-8.08-1.78-2.85,0-5.43.71-7.74,2.12-2.31,1.41-4.12,3.35-5.43,5.8-1.31,2.46-1.97,5.18-1.97,8.18s.67,5.82,2.01,8.3c1.34,2.49,3.18,4.44,5.52,5.85,2.34,1.41,4.93,2.12,7.78,2.12,2.57,0,5.59-.82,9.06-2.46v-14.83Z"/>
          <path class="cls-5" d="M1509.4,741.69l-7.95-16.01h-9.41v16.01h-17.79v-59.39h27.96c8.04,0,14.27,1.84,18.68,5.51,4.42,3.67,6.63,8.87,6.63,15.59,0,4.35-.87,8.12-2.61,11.31-1.74,3.19-4.23,5.72-7.48,7.58l12.14,19.4h-20.18ZM1492.04,712.12h10.18c2.68,0,4.75-.71,6.2-2.12,1.45-1.41,2.18-3.44,2.18-6.1s-.73-4.59-2.18-5.97c-1.45-1.38-3.52-2.08-6.2-2.08h-10.18v16.27Z"/>
          <path class="cls-5" d="M1556,725.17c1.94,2.03,4.36,3.05,7.27,3.05s5.19-1,7.01-3.01c1.82-2,2.74-4.7,2.74-8.09v-34.82h17.79v34.82c0,5.2-1.13,9.73-3.38,13.6-2.25,3.87-5.46,6.86-9.62,8.98-4.16,2.12-9.01,3.18-14.54,3.18s-10.49-1.06-14.71-3.18c-4.22-2.12-7.48-5.11-9.79-8.98-2.31-3.87-3.46-8.4-3.46-13.6v-34.82h17.79v34.82c0,3.33.97,6.02,2.91,8.05Z"/>
          <path class="cls-5" d="M1645.15,687.8c4.25,3.67,6.37,8.87,6.37,15.59,0,7.06-2.12,12.54-6.37,16.44-4.25,3.9-10.25,5.85-18,5.85l-9.41.08v15.93h-17.79v-59.39h27.19c7.75,0,13.75,1.84,18,5.51ZM1632.49,710c1.45-1.41,2.18-3.44,2.18-6.1s-.73-4.59-2.18-5.97c-1.45-1.38-3.52-2.08-6.2-2.08h-8.55v16.27h8.55c2.68,0,4.75-.71,6.2-2.12Z"/>
          <path class="cls-5" d="M1704.32,685.18c4.99,2.66,8.89,6.31,11.72,10.97,2.82,4.66,4.23,9.9,4.23,15.72s-1.41,11.17-4.23,15.89c-2.82,4.72-6.73,8.42-11.72,11.1-4.99,2.68-10.56,4.02-16.72,4.02s-11.8-1.34-16.76-4.02c-4.96-2.68-8.85-6.38-11.67-11.1-2.82-4.72-4.23-10.01-4.23-15.89s1.41-11.06,4.23-15.72c2.82-4.66,6.71-8.32,11.67-10.97,4.96-2.65,10.55-3.98,16.76-3.98s11.73,1.33,16.72,3.98ZM1680.55,697.97c-2.25,1.41-4.05,3.35-5.39,5.8-1.34,2.46-2.01,5.18-2.01,8.18s.67,5.73,2.01,8.22c1.34,2.49,3.13,4.45,5.39,5.89,2.25,1.44,4.69,2.16,7.31,2.16s4.94-.72,7.14-2.16c2.19-1.44,3.92-3.39,5.17-5.85,1.25-2.46,1.88-5.21,1.88-8.26s-.63-5.72-1.88-8.18c-1.25-2.46-2.96-4.39-5.13-5.8-2.17-1.41-4.56-2.12-7.18-2.12s-5.06.71-7.31,2.12Z"/>
          <path class="cls-5" d="M1410.97,761.48h17.79v44.65h25.14v14.74h-42.93v-59.39Z"/>
          <path class="cls-5" d="M1504.01,820.87l-3.51-9.49h-24.2l-3.59,9.49h-18.3l25.57-59.39h18.3l24.71,59.39h-18.98ZM1481.26,798.51h14.54l-7.18-19.4-7.35,19.4Z"/>
          <path class="cls-5" d="M1527.35,761.48h19.07l16.08,32.96,15.99-32.96h19.07v59.39h-15.65v-35.24l-13.68,29.4h-11.54l-13.68-29.4v35.24h-15.65v-59.39Z"/>
          <path class="cls-5" d="M1651.52,820.87l-3.51-9.49h-24.2l-3.59,9.49h-18.3l25.57-59.39h18.3l24.71,59.39h-18.98ZM1628.77,798.51h14.54l-7.18-19.4-7.35,19.4Z"/>
          <path class="cls-5" d="M1718.01,765.17c4.87,2.46,8.65,5.93,11.33,10.42,2.68,4.49,4.02,9.67,4.02,15.55s-1.37,11.07-4.1,15.59c-2.74,4.52-6.59,8.01-11.54,10.46-4.96,2.46-10.69,3.69-17.19,3.69h-25.65v-59.39h26.25c6.38,0,12.01,1.23,16.89,3.69ZM1711.46,802.74c2.51-2.88,3.76-6.69,3.76-11.44s-1.34-8.58-4.02-11.52c-2.68-2.94-6.16-4.41-10.43-4.41h-8.12v31.69h8.98c4.05,0,7.32-1.44,9.83-4.32Z"/>
          <path class="cls-5" d="M1775.17,820.87l-7.95-16.01h-9.41v16.01h-17.79v-59.39h27.96c8.04,0,14.27,1.84,18.69,5.51,4.42,3.67,6.63,8.87,6.63,15.59,0,4.35-.87,8.12-2.61,11.31-1.74,3.19-4.23,5.72-7.48,7.58l12.14,19.4h-20.18ZM1757.81,791.31h10.18c2.68,0,4.75-.71,6.2-2.12,1.45-1.41,2.18-3.44,2.18-6.1s-.73-4.59-2.18-5.97c-1.45-1.38-3.52-2.08-6.2-2.08h-10.18v16.27Z"/>
          <path class="cls-5" d="M1802.02,761.48h49v13.56h-31.21v9.32h28.3v13.56h-28.3v9.4h32.07v13.56h-49.85v-59.39Z"/>
        </g>
      </g>
      <g>
        <path class="cls-5" d="M1415.59,645.05l-.65,3.66h4.75l-.38,2.18h-4.75l-.67,3.82h5.36l-.4,2.25h-8.21l2.51-14.14h8.19l-.38,2.22h-5.36Z"/>
        <path class="cls-5" d="M1443.07,643.53c.95.45,1.68,1.1,2.18,1.93.5.84.76,1.83.76,2.97,0,.51-.05,1.01-.14,1.5-.24,1.42-.77,2.65-1.57,3.71-.8,1.06-1.82,1.88-3.05,2.46-1.23.58-2.59.87-4.08.87h-4.94l2.51-14.12h4.94c1.31,0,2.44.23,3.39.68ZM1441.15,653.41c.95-.84,1.56-2,1.83-3.48.07-.45.1-.83.1-1.15,0-1.13-.33-2.01-1-2.63-.67-.62-1.64-.93-2.92-.93h-1.98l-1.66,9.45h1.98c1.48,0,2.7-.42,3.65-1.25Z"/>
        <path class="cls-5" d="M1462.92,642.85l-2.49,14.12h-2.85l2.51-14.12h2.83Z"/>
        <path class="cls-5" d="M1483.07,653.99c.65-.34,1.19-.83,1.64-1.48h3.26c-.66,1.29-1.57,2.34-2.72,3.12s-2.43,1.26-3.83,1.41l-.14.83c.66,0,1.2.15,1.63.45.42.3.64.73.64,1.31,0,.08-.01.23-.04.44-.12.73-.48,1.29-1.06,1.68s-1.26.59-2.01.59h-2.87l.3-1.66h2.41c.32,0,.57-.05.75-.14.18-.09.29-.26.34-.51.05-.24,0-.41-.14-.5-.15-.09-.39-.13-.73-.13h-1.25l.4-2.37c-1.02-.11-1.93-.42-2.7-.93-.78-.51-1.37-1.18-1.79-2-.42-.82-.63-1.75-.63-2.79,0-.47.04-.95.12-1.44.24-1.39.77-2.63,1.59-3.73s1.82-1.96,3.01-2.57c1.19-.61,2.46-.92,3.81-.92,1.58,0,2.89.4,3.94,1.21,1.05.81,1.69,1.93,1.9,3.36h-3.26c-.22-.65-.59-1.14-1.11-1.47-.53-.33-1.17-.5-1.94-.5-.82,0-1.59.19-2.3.57-.71.38-1.3.92-1.78,1.62-.48.7-.8,1.51-.96,2.43-.07.43-.1.79-.1,1.07,0,1.09.31,1.96.94,2.59.63.63,1.48.95,2.56.95.77,0,1.48-.17,2.12-.51Z"/>
        <path class="cls-5" d="M1509.56,654.28h-5.64l-1.4,2.69h-2.97l7.58-14.14h3.3l2.57,14.14h-2.99l-.45-2.69ZM1509.2,652.07l-1.01-5.99-3.12,5.99h4.13ZM1506.54,639.73c.52-.44,1.12-.66,1.79-.66.27,0,.51.04.71.13.2.09.42.21.65.37.19.13.35.23.5.29.14.06.29.09.46.09.51,0,.86-.29,1.05-.87h1.52c-.3.89-.7,1.55-1.21,1.99-.51.44-1.11.66-1.78.66-.28,0-.52-.04-.71-.13-.19-.09-.41-.21-.67-.37-.19-.13-.35-.24-.5-.3-.14-.07-.29-.1-.45-.1-.48,0-.83.3-1.03.89h-1.52c.28-.89.69-1.55,1.2-1.99Z"/>
        <path class="cls-5" d="M1529.21,656.35c-.91-.51-1.62-1.21-2.11-2.1-.5-.9-.75-1.92-.75-3.08,0-1.62.36-3.07,1.08-4.37.72-1.29,1.72-2.31,2.99-3.04,1.27-.73,2.71-1.1,4.3-1.1,1.2,0,2.26.25,3.17.75.91.5,1.62,1.2,2.11,2.09.5.9.75,1.92.75,3.06,0,1.65-.36,3.12-1.07,4.41-.72,1.29-1.71,2.31-2.99,3.04-1.28.73-2.72,1.1-4.33,1.1-1.19,0-2.23-.25-3.15-.76ZM1535.44,653.73c.78-.51,1.38-1.2,1.8-2.07.42-.87.64-1.82.64-2.84,0-1.11-.31-1.98-.93-2.61s-1.49-.95-2.61-.95c-1,0-1.88.26-2.66.77-.78.51-1.38,1.2-1.8,2.06-.42.86-.64,1.81-.64,2.83,0,1.11.31,1.98.92,2.62.61.64,1.48.96,2.6.96,1.01,0,1.9-.26,2.68-.77Z"/>
      </g>
    </g>
    <rect class="cls-4" x="1160.67" y="616.4" width="4.39" height="252.71"/>
  </g>
  <g>
    <path class="cls-1" d="M753.02,599.84c43.05-.25,86.1-.49,129.16-.74-61.5-129.4-122.99-258.81-184.49-388.21l-114.73.68c56.68,129.42,113.37,258.84,170.05,388.27Z"/>
    <polygon class="cls-3" points="500.72 598.82 697.69 210.89 582.97 211.58 386.96 598.82 500.72 598.82"/>
    <polygon class="cls-1" points="285.46 405.88 399.21 405.88 500.72 598.82 386.96 598.82 285.46 405.88"/>
    <path class="cls-3" d="M186.99,826.01c70.89-141.32,141.78-282.64,212.67-423.97l-114.73.68c-72.27,141.48-144.54,282.95-216.81,424.43,39.62-.38,79.24-.77,118.87-1.15Z"/>
  </g>
</svg>