<?xml version="1.0" encoding="UTF-8"?>
<svg id="Camada_1" data-name="Camada 1" xmlns="http://www.w3.org/2000/svg" viewBox="0 0 1920 1080">
  <defs>
    <style>
      .cls-1 {
        fill: #f18e1a;
      }

      .cls-2 {
        fill: #0f5c8c;
      }

      .cls-3 {
        fill: #e84e1b;
      }

      .cls-4 {
        fill: #1d1d1b;
      }

      .cls-5 {
        fill: #ffc200;
      }
    </style>
  </defs>
  <g>
    <g>
      <path class="cls-3" d="M1336.12,622.14c-1.81,0-3.17-.4-4.07-1.21-.9-.81-1.36-1.78-1.36-2.91,0-1.24.49-2.23,1.49-2.97.99-.74,2.57-1.1,4.75-1.1h3.82v2.38h-3.14c-.93,0-1.6.13-1.99.4-.4.27-.59.63-.59,1.08,0,.51.2.9.62,1.17.41.27.97.4,1.68.4s1.27-.14,1.78-.42c.51-.28.89-.69,1.14-1.23l.59,1.99c-.25.74-.78,1.32-1.59,1.76-.81.44-1.85.66-3.12.66ZM1340.57,621.97v-2.63l-.34-.55v-4.71c0-.88-.27-1.53-.81-1.97-.54-.44-1.36-.66-2.46-.66-.74,0-1.49.12-2.25.36-.76.24-1.41.56-1.95.95l-1.53-2.88c.79-.57,1.77-.99,2.93-1.27,1.16-.28,2.31-.42,3.44-.42,2.29,0,4.06.5,5.3,1.49,1.24.99,1.87,2.52,1.87,4.58v7.72h-4.2Z"/>
      <path class="cls-3" d="M1365.52,640.3c-2.6,0-4.88-.51-6.83-1.53-1.95-1.02-3.46-2.41-4.54-4.18-1.07-1.77-1.61-3.78-1.61-6.05s.52-4.29,1.55-6.07c1.03-1.78,2.47-3.17,4.33-4.18,1.85-1,3.94-1.51,6.26-1.51s4.25.48,6.05,1.44c1.8.96,3.22,2.32,4.26,4.07,1.05,1.75,1.57,3.86,1.57,6.32,0,.25-.01.54-.04.87-.03.33-.06.63-.09.91h-18.54v-3.86h15.06l-2.59,1.15c.03-1.19-.2-2.22-.68-3.1-.48-.88-1.15-1.56-1.99-2.06-.85-.49-1.84-.74-2.97-.74s-2.13.25-2.99.74c-.86.5-1.53,1.19-2.02,2.08-.48.89-.72,1.95-.72,3.16v1.02c0,1.27.28,2.38.85,3.31.57.93,1.34,1.65,2.33,2.14s2.18.74,3.56.74c1.19,0,2.24-.18,3.16-.55.92-.37,1.76-.92,2.52-1.66l3.52,3.82c-1.05,1.19-2.36,2.1-3.95,2.74-1.58.64-3.41.96-5.47.96Z"/>
      <path class="cls-3" d="M1390.77,640.3c-2.15,0-4.09-.49-5.81-1.46s-3.08-2.34-4.07-4.09c-.99-1.75-1.49-3.82-1.49-6.2s.49-4.44,1.49-6.19c.99-1.75,2.35-3.12,4.07-4.09,1.73-.98,3.66-1.46,5.81-1.46,1.92,0,3.61.42,5.05,1.27,1.44.85,2.56,2.14,3.35,3.86.79,1.73,1.19,3.93,1.19,6.62s-.38,4.87-1.15,6.62c-.76,1.75-1.86,3.05-3.29,3.88-1.43.84-3.15,1.25-5.16,1.25ZM1391.87,634.87c1.1,0,2.09-.25,2.97-.74.88-.49,1.58-1.22,2.1-2.18.52-.96.78-2.09.78-3.4s-.26-2.46-.78-3.39c-.52-.93-1.22-1.65-2.1-2.14-.88-.49-1.87-.74-2.97-.74s-2.05.25-2.93.74-1.58,1.21-2.1,2.14c-.52.93-.78,2.07-.78,3.39s.26,2.43.78,3.4c.52.96,1.22,1.69,2.1,2.18.88.5,1.85.74,2.93.74ZM1397.9,639.96v-4.67l.13-6.79-.42-6.75v-13.28h6.62v31.48h-6.32Z"/>
      <path class="cls-3" d="M1413.64,613.95c-1.25,0-2.25-.35-3.01-1.06-.76-.71-1.15-1.58-1.15-2.63s.38-1.92,1.15-2.63c.76-.71,1.77-1.06,3.01-1.06s2.21.33,2.99,1c.78.66,1.17,1.52,1.17,2.57,0,1.1-.38,2.02-1.15,2.74-.76.72-1.77,1.08-3.01,1.08ZM1410.33,639.96v-22.83h6.62v22.83h-6.62Z"/>
      <path class="cls-3" d="M1434.13,640.3c-2.46,0-4.65-.5-6.56-1.51-1.91-1-3.41-2.4-4.5-4.18-1.09-1.78-1.63-3.8-1.63-6.07s.54-4.31,1.63-6.07c1.09-1.75,2.59-3.14,4.5-4.16,1.91-1.02,4.09-1.53,6.56-1.53s4.5.5,6.3,1.51c1.8,1,3.09,2.43,3.88,4.26l-5.09,2.8c-.62-1.07-1.37-1.86-2.25-2.35-.88-.49-1.84-.74-2.89-.74-1.1,0-2.11.25-3.01.74-.9.49-1.63,1.21-2.16,2.14-.54.93-.81,2.07-.81,3.39s.27,2.47.81,3.42c.54.95,1.26,1.67,2.16,2.16.9.5,1.91.74,3.01.74s2.01-.25,2.89-.74c.88-.49,1.63-1.29,2.25-2.4l5.09,2.8c-.79,1.81-2.09,3.22-3.88,4.24-1.8,1.02-3.9,1.53-6.3,1.53ZM1431.71,649.8c-.74,0-1.45-.08-2.14-.25-.69-.17-1.29-.4-1.8-.68l1.02-2.8c.42.2.86.35,1.31.47.45.11.95.17,1.49.17.79,0,1.35-.13,1.68-.38.32-.25.49-.58.49-.98,0-.37-.16-.66-.49-.89-.33-.23-.86-.34-1.59-.34h-1.44l1.1-4.5h3.52l-.59,2.46c1.27.14,2.2.54,2.78,1.21.58.66.87,1.42.87,2.27,0,1.33-.57,2.37-1.7,3.12-1.13.75-2.63,1.12-4.5,1.12Z"/>
      <path class="cls-3" d="M1455.22,640.3c-1.75,0-3.27-.3-4.54-.91-1.27-.61-2.26-1.44-2.95-2.48-.69-1.05-1.04-2.22-1.04-3.52s.33-2.51,1-3.54c.66-1.03,1.72-1.83,3.16-2.4,1.44-.57,3.34-.85,5.69-.85h6.02v3.82h-5.35c-1.56,0-2.62.25-3.2.76-.58.51-.87,1.15-.87,1.91,0,.85.33,1.52,1,2.02.66.5,1.56.74,2.69.74s2.14-.25,3.03-.76,1.52-1.29,1.89-2.33l1.02,3.1c-.48,1.42-1.36,2.51-2.63,3.29-1.27.78-2.91,1.17-4.92,1.17ZM1462.18,639.96v-4.46l-.42-.98v-7.98c0-1.41-.43-2.52-1.29-3.31-.86-.79-2.19-1.19-3.97-1.19-1.22,0-2.41.19-3.58.57-1.17.38-2.19.9-3.03,1.55l-2.33-4.62c1.24-.9,2.74-1.59,4.5-2.06,1.75-.47,3.54-.7,5.35-.7,3.48,0,6.18.82,8.1,2.46,1.92,1.64,2.89,4.2,2.89,7.68v13.03h-6.2ZM1461.24,614.38c-.74,0-1.39-.14-1.95-.42-.57-.28-1.08-.6-1.53-.95-.45-.35-.88-.66-1.27-.93s-.79-.4-1.19-.4c-.59,0-1.07.21-1.42.61-.35.41-.56,1-.61,1.76h-3.35c.06-1.9.52-3.4,1.4-4.52.88-1.12,2.06-1.68,3.56-1.68.74,0,1.39.13,1.97.4.58.27,1.1.58,1.55.93.45.35.87.67,1.25.96.38.28.77.42,1.17.42.59,0,1.07-.2,1.44-.61s.57-.97.59-1.68h3.35c-.03,1.81-.49,3.28-1.38,4.41-.89,1.13-2.09,1.7-3.58,1.7Z"/>
      <path class="cls-3" d="M1485.34,640.3c-2.4,0-4.55-.51-6.43-1.53-1.88-1.02-3.36-2.41-4.43-4.18-1.07-1.77-1.61-3.78-1.61-6.05s.54-4.32,1.61-6.09c1.07-1.77,2.55-3.15,4.43-4.16,1.88-1,4.02-1.51,6.43-1.51s4.6.5,6.49,1.51c1.9,1,3.38,2.39,4.46,4.16,1.07,1.77,1.61,3.8,1.61,6.09s-.54,4.31-1.61,6.07c-1.08,1.75-2.56,3.14-4.46,4.16-1.9,1.02-4.06,1.53-6.49,1.53ZM1485.34,634.87c1.13,0,2.13-.25,2.99-.74.86-.49,1.55-1.22,2.08-2.18.52-.96.78-2.09.78-3.4s-.26-2.46-.78-3.39c-.52-.93-1.22-1.65-2.08-2.14-.86-.49-1.85-.74-2.95-.74s-2.09.25-2.97.74c-.88.49-1.58,1.21-2.1,2.14-.52.93-.78,2.07-.78,3.39s.26,2.43.78,3.4c.52.96,1.22,1.69,2.1,2.18.88.5,1.85.74,2.93.74Z"/>
      <path class="cls-3" d="M1308.67,608.36c2.02-1.68,4.67-2.52,7.97-2.52,2.25,0,4.17.39,5.77,1.18,1.6.79,2.81,1.85,3.63,3.19.82,1.34,1.22,2.86,1.22,4.55,0,1.94-.5,3.58-1.5,4.92-1,1.34-2.19,2.24-3.58,2.7v.18c1.79.55,3.18,1.54,4.18,2.96,1,1.42,1.5,3.23,1.5,5.45,0,1.85-.42,3.49-1.27,4.94-.85,1.45-2.09,2.58-3.74,3.39-1.65.82-3.63,1.22-5.93,1.22-3.48,0-6.31-.88-8.5-2.63-2.19-1.75-3.34-4.34-3.46-7.76h6.28c.06,1.51.58,2.72,1.55,3.63.97.91,2.3,1.36,4,1.36,1.57,0,2.78-.44,3.63-1.32.85-.88,1.27-2.01,1.27-3.39,0-1.85-.59-3.17-1.75-3.97-1.17-.8-2.99-1.2-5.45-1.2h-1.34v-5.31h1.34c4.37,0,6.56-1.46,6.56-4.39,0-1.32-.39-2.36-1.18-3.09-.79-.74-1.92-1.11-3.39-1.11s-2.56.39-3.35,1.18c-.79.78-1.24,1.78-1.36,2.98h-6.33c.15-3.08,1.24-5.46,3.26-7.14Z"/>
    </g>
    <g>
      <path class="cls-2" d="M883.42,654.57v-42.34h2.6l19.66,33.94h-1.39l19.6-33.94h2.54l.06,42.34h-3.02l-.06-37.69h.85l-18.57,32.06h-1.51l-18.63-32.06h.91v37.69h-3.03Z"/>
      <path class="cls-2" d="M934.17,654.57l19.48-42.34h3.09l19.48,42.34h-3.33l-18.39-40.41h1.33l-18.33,40.41h-3.33ZM941.31,642.65l1.03-2.6h25.35l1.03,2.6h-27.4Z"/>
      <path class="cls-2" d="M983.9,654.57v-42.34h15.18c3.55,0,6.59.57,9.13,1.69,2.54,1.13,4.5,2.75,5.87,4.87,1.37,2.12,2.06,4.69,2.06,7.71s-.69,5.47-2.06,7.59c-1.37,2.12-3.33,3.75-5.87,4.9-2.54,1.15-5.59,1.72-9.13,1.72h-13.49l1.39-1.45v15.3h-3.09ZM986.98,639.44l-1.39-1.45h13.49c4.56,0,8.01-1.01,10.37-3.02,2.36-2.02,3.54-4.84,3.54-8.47s-1.18-6.5-3.54-8.5c-2.36-2-5.82-2.99-10.37-2.99h-13.49l1.39-1.51v25.95ZM1013.29,654.57l-11.01-15.36h3.51l11.01,15.36h-3.51Z"/>
      <path class="cls-2" d="M1027.45,654.57v-42.34h3.09v42.34h-3.09Z"/>
      <path class="cls-2" d="M1045.29,654.57v-42.34h2.6l30.19,38.53h-1.39v-38.53h3.09v42.34h-2.54l-30.25-38.53h1.39v38.53h-3.09Z"/>
      <path class="cls-2" d="M1112.62,654.87c-3.19,0-6.13-.53-8.83-1.6-2.7-1.07-5.05-2.57-7.05-4.51-2-1.94-3.54-4.2-4.63-6.81-1.09-2.6-1.63-5.45-1.63-8.56s.54-5.96,1.63-8.56c1.09-2.6,2.64-4.87,4.66-6.81,2.02-1.94,4.36-3.44,7.05-4.51,2.68-1.07,5.64-1.6,8.86-1.6s5.91.48,8.53,1.45c2.62.97,4.86,2.42,6.71,4.36l-1.94,2.06c-1.86-1.81-3.88-3.11-6.08-3.87-2.2-.77-4.59-1.15-7.17-1.15-2.74,0-5.28.46-7.62,1.39-2.34.93-4.38,2.24-6.11,3.93-1.73,1.69-3.08,3.67-4.02,5.93-.95,2.26-1.42,4.72-1.42,7.38s.47,5.12,1.42,7.38c.95,2.26,2.29,4.23,4.02,5.93,1.73,1.69,3.77,3,6.11,3.93,2.34.93,4.88,1.39,7.62,1.39,2.5,0,4.87-.38,7.11-1.15,2.24-.77,4.28-2.04,6.14-3.81l1.75,2.36c-1.9,1.81-4.16,3.18-6.81,4.08-2.64.91-5.41,1.36-8.32,1.36ZM1124.78,649.12v-15.55h2.96v15.85l-2.96-.3Z"/>
      <path class="cls-2" d="M1134.22,654.57l19.48-42.34h3.09l19.48,42.34h-3.33l-18.39-40.41h1.33l-18.33,40.41h-3.33ZM1141.35,642.65l1.03-2.6h25.35l1.03,2.6h-27.4ZM1151.82,608.77l8.41-7.14h4.36l-9.5,7.14h-3.27Z"/>
      <path class="cls-2" d="M1179.52,639.69v-2.72h15.55v2.72h-15.55Z"/>
      <path class="cls-2" d="M1206.2,654.57v-42.34h15.18c3.55,0,6.59.57,9.13,1.69,2.54,1.13,4.5,2.75,5.87,4.87,1.37,2.12,2.06,4.69,2.06,7.71s-.69,5.49-2.06,7.62c-1.37,2.14-3.33,3.77-5.87,4.9-2.54,1.13-5.59,1.69-9.13,1.69h-13.49l1.39-1.45v15.3h-3.09ZM1209.28,639.44l-1.39-1.51h13.49c4.56,0,8.01-1,10.37-2.99,2.36-2,3.54-4.81,3.54-8.44s-1.18-6.5-3.54-8.5c-2.36-2-5.82-2.99-10.37-2.99h-13.49l1.39-1.51v25.95Z"/>
      <path class="cls-2" d="M1248.84,654.57v-42.34h15.18c3.55,0,6.59.57,9.13,1.69,2.54,1.13,4.5,2.75,5.87,4.87,1.37,2.12,2.06,4.69,2.06,7.71s-.69,5.47-2.06,7.59c-1.37,2.12-3.33,3.75-5.87,4.9-2.54,1.15-5.59,1.72-9.13,1.72h-13.49l1.39-1.45v15.3h-3.09ZM1251.93,639.44l-1.39-1.45h13.49c4.56,0,8.01-1.01,10.37-3.02,2.36-2.02,3.54-4.84,3.54-8.47s-1.18-6.5-3.54-8.5c-2.36-2-5.82-2.99-10.37-2.99h-13.49l1.39-1.51v25.95ZM1278.24,654.57l-11.01-15.36h3.51l11.01,15.36h-3.51Z"/>
    </g>
    <g>
      <g>
        <polygon class="cls-3" points="541.06 398.82 569.71 398.82 579.82 398.82 631.04 398.82 631.04 369.67 541.06 369.67 541.06 398.82"/>
        <polygon class="cls-3" points="1160.77 457 1160.77 369.67 1131.64 369.67 1131.64 486.15 1208.09 486.15 1208.09 457 1160.77 457"/>
        <polygon class="cls-3" points="720.64 436.85 677.48 369.68 645.88 369.68 645.88 486.15 675.06 486.15 675.06 419.4 717.34 486.15 749.87 486.15 749.87 369.68 720.64 369.68 720.64 436.85"/>
        <polygon class="cls-3" points="764.44 398.81 798.08 398.81 798.08 486.15 827.11 486.15 827.11 398.81 860.7 398.81 860.7 369.51 764.44 369.51 764.44 398.81"/>
        <path class="cls-3" d="M1033.17,370.69l-44.76,115.45h31.46l5.76-14.56h54.45l5.64,14.56h31.33l-44.77-115.45h-39.12ZM1036.71,442.6l16.07-41.09,16.12,41.09h-32.19Z"/>
        <path class="cls-3" d="M505.76,442.23c-5.18,9.11-14.89,14.77-25.33,14.77-16.07,0-29.14-13.07-29.14-29.14s13.07-29.14,29.14-29.14c10.6,0,20.37,5.77,25.51,15.07l.47.85,19.27-22.69.35-.42-.35-.43c-11.14-13.7-27.64-21.56-45.25-21.56-32.16,0-58.33,26.17-58.33,58.33s26.17,58.33,58.33,58.33c17.88,0,34.54-8.07,45.7-22.15l.35-.45-20.27-22.17-.45.8Z"/>
        <polygon class="cls-3" points="541.06 486.15 631.04 486.15 631.04 456.97 570.24 456.97 570.24 442.48 631.04 442.48 631.04 413.32 541.06 413.32 541.06 486.15"/>
        <path class="cls-3" d="M973.64,410.26c0-25.95-18.21-40.6-47.99-40.6h-50.38v116.47h29.24v-87.32h21.14c.65.01,2.75,0,3.21,0,.34,0,2.73.2,3.26.29,6.94,1.08,12.27,7.03,12.27,14.28,0,8.01-6.49,14.5-14.5,14.5-.15,0-.82.01-1.02.01h-22.13l33.07,58.23h34.03l-20.72-36.71c13.2-6.82,20.53-21.35,20.53-39.16Z"/>
      </g>
      <g>
        <path class="cls-3" d="M671.15,515.54c-32.22,0-58.33,26.12-58.33,58.33s26.12,58.33,58.33,58.33,58.33-26.12,58.33-58.33-26.12-58.33-58.33-58.33ZM671.15,602.97c-16.07,0-29.09-13.02-29.09-29.09s13.02-29.09,29.09-29.09,29.09,13.02,29.09,29.09-13.02,29.09-29.09,29.09Z"/>
        <polygon class="cls-3" points="536.43 575.78 506.92 515.54 474.46 515.54 474.46 632.18 503.61 632.18 503.61 575.08 526.35 620.53 546.81 620.53 569.01 575.35 569.17 632.18 598.24 632.18 598.24 515.54 566.01 515.54 536.43 575.78"/>
        <rect class="cls-3" x="430.8" y="515.56" width="29.08" height="27.78"/>
        <rect class="cls-3" x="430.97" y="571.41" width="28.98" height="60.5"/>
        <path class="cls-3" d="M841.66,547.49c.15-.82.23-1.64.24-2.46,0-.05.01-.09.01-.14,0,0,0-.01,0-.02,0,0,0,0,0-.01,0-.02,0-.03,0-.05-.04-15.44-12.09-28.02-27.3-28.97-.3-.05-1.05-.1-1.22-.1-5.2-.09-13.28,0-16.7,0h-52.57v116.47h54.5c3.38,0,7.4.05,10.87.01,1.51-.01,2.94.05,4.14-.02.78-.05,1.38-.07,1.92-.13,14.79-1.38,26.37-13.83,26.37-28.98s-12.57-28.58-28.23-29.06c.09-.03.18-.06.27-.09,14.66-.6,26.41-11.99,27.71-26.46ZM800.62,609.42h-27.27v-24.2h22.21c1.35,0,4.63.04,5.06.04,6.67,0,12.08,5.41,12.08,12.08s-5.41,12.08-12.08,12.08ZM800.73,562.33h-27.38v-23.96h27.38c6.62,0,11.98,5.36,11.98,11.98s-5.36,11.98-11.98,11.98Z"/>
      </g>
    </g>
    <g>
      <path class="cls-1" d="M883.97,581.2h41.83v4.45h-46.77v-67.79h45.32v4.45h-40.38v58.88ZM883.39,549.05h36.7v4.36h-36.7v-4.36Z"/>
      <path class="cls-1" d="M933.07,585.65l27.5-36.9v3.87l-25.66-34.76h5.81l22.66,30.6h-2.13l22.66-30.6h5.52l-25.47,34.38v-3.29l27.31,36.7h-5.81l-24.4-32.73h2.03l-24.21,32.73h-5.81Z"/>
      <path class="cls-1" d="M1002.79,585.65v-67.79h24.31c5.68,0,10.56.9,14.62,2.71,4.07,1.81,7.2,4.41,9.39,7.8,2.19,3.39,3.29,7.5,3.29,12.35s-1.1,8.78-3.29,12.2c-2.19,3.42-5.33,6.04-9.39,7.84-4.07,1.81-8.94,2.71-14.62,2.71h-21.59l2.23-2.32v24.5h-4.94ZM1007.73,561.44l-2.23-2.42h21.59c7.29,0,12.83-1.6,16.61-4.79,3.78-3.2,5.66-7.7,5.66-13.51s-1.89-10.41-5.66-13.61c-3.78-3.2-9.31-4.79-16.61-4.79h-21.59l2.23-2.42v41.54Z"/>
      <path class="cls-1" d="M1076,581.2h41.83v4.45h-46.77v-67.79h45.32v4.45h-40.38v58.88ZM1075.42,549.05h36.7v4.36h-36.7v-4.36Z"/>
      <path class="cls-1" d="M1135.85,585.65v-67.79h24.31c5.68,0,10.56.9,14.62,2.71,4.07,1.81,7.2,4.41,9.39,7.8,2.19,3.39,3.29,7.5,3.29,12.35s-1.1,8.76-3.29,12.15c-2.2,3.39-5.33,6-9.39,7.84-4.07,1.84-8.94,2.76-14.62,2.76h-21.59l2.23-2.32v24.5h-4.94ZM1140.79,561.44l-2.23-2.32h21.59c7.29,0,12.83-1.61,16.61-4.84,3.78-3.23,5.66-7.75,5.66-13.56s-1.89-10.41-5.66-13.61c-3.78-3.2-9.31-4.79-16.61-4.79h-21.59l2.23-2.42v41.54ZM1182.91,585.65l-17.62-24.6h5.62l17.63,24.6h-5.62Z"/>
      <path class="cls-1" d="M1205.57,585.65v-67.79h4.94v67.79h-4.94Z"/>
      <path class="cls-1" d="M1239.08,581.2h41.83v4.45h-46.77v-67.79h45.32v4.45h-40.38v58.88ZM1238.5,549.05h36.7v4.36h-36.7v-4.36Z"/>
      <path class="cls-1" d="M1298.92,585.65v-67.79h4.16l48.32,61.69h-2.23v-61.69h4.94v67.79h-4.07l-48.42-61.69h2.23v61.69h-4.94Z"/>
      <path class="cls-1" d="M1406.41,586.14c-5.04,0-9.7-.85-13.99-2.57-4.29-1.71-8.02-4.12-11.18-7.21-3.16-3.1-5.62-6.73-7.36-10.89-1.74-4.16-2.61-8.73-2.61-13.7s.87-9.54,2.61-13.7c1.74-4.16,4.21-7.8,7.41-10.89,3.2-3.1,6.92-5.5,11.18-7.21,4.26-1.71,8.91-2.57,13.95-2.57,4.78,0,9.25.77,13.41,2.32,4.16,1.55,7.73,3.91,10.7,7.07l-3.1,3.2c-2.91-2.84-6.12-4.89-9.64-6.15-3.52-1.26-7.25-1.89-11.18-1.89-4.33,0-8.34.74-12.06,2.23-3.71,1.49-6.94,3.58-9.68,6.29-2.74,2.71-4.88,5.88-6.39,9.49-1.52,3.62-2.28,7.55-2.28,11.81s.76,8.2,2.28,11.81c1.52,3.62,3.65,6.78,6.39,9.49,2.74,2.71,5.97,4.81,9.68,6.29,3.71,1.49,7.73,2.23,12.06,2.23,3.94,0,7.67-.63,11.18-1.89,3.52-1.26,6.73-3.34,9.64-6.25l3.1,3.2c-2.97,3.16-6.54,5.54-10.7,7.12-4.16,1.58-8.64,2.37-13.41,2.37Z"/>
      <path class="cls-1" d="M1452.02,581.2h41.83v4.45h-46.77v-67.79h45.32v4.45h-40.38v58.88ZM1451.44,549.05h36.7v4.36h-36.7v-4.36Z"/>
    </g>
  </g>
  <g>
    <g>
      <g>
        <path class="cls-5" d="M468.63,685.19v-2.41c0-.73-.6-1.3-1.32-1.26-4.02.24-7.72,1.59-10.81,3.72-.8-1.13-1.69-2.22-2.67-3.24,3.84-2.65,8.49-4.3,13.53-4.53.67-.03,1.2-.58,1.2-1.26v-2.41c0-.72-.6-1.29-1.31-1.26-6.31.26-12.28,2.38-17.21,6.08h0c-4.93-3.7-10.9-5.82-17.21-6.08-.71-.03-1.31.55-1.31,1.26v2.41c0,.67.53,1.23,1.2,1.26,5.04.23,9.68,1.88,13.53,4.53-.98,1.03-1.86,2.11-2.67,3.24-3.08-2.13-6.79-3.48-10.81-3.72-.73-.04-1.32.53-1.32,1.26v2.41c0,.67.52,1.21,1.19,1.26,3.16.22,6.07,1.33,8.44,3.07-.63,1.34-1.16,2.72-1.58,4.14-1.75-1.65-4.04-2.77-6.59-3.08-.77-.09-1.4.48-1.4,1.25v2.43c0,.63.47,1.15,1.09,1.25,2.67.43,4.79,2.43,5.26,4.95.11.6.62,1.06,1.23,1.06h4.26c0-2.84.52-5.57,1.47-8.11,1.36,2.03,2.22,4.38,2.43,6.91.06.67.6,1.2,1.28,1.2h1.5s1.5,0,1.5,0c.68,0,1.22-.53,1.28-1.2.21-2.53,1.07-4.88,2.43-6.91.95,2.53,1.47,5.26,1.47,8.11h4.26c.61,0,1.12-.45,1.23-1.06.47-2.52,2.59-4.52,5.26-4.95.62-.1,1.09-.62,1.09-1.25v-2.43c0-.77-.63-1.34-1.4-1.25-2.55.3-4.84,1.42-6.59,3.08-.41-1.42-.94-2.8-1.58-4.14,2.38-1.74,5.28-2.85,8.44-3.07.67-.05,1.19-.59,1.19-1.26ZM450.04,692.49h0c-.74-1.41-1.65-2.73-2.71-3.92.8-1.19,1.71-2.31,2.71-3.35h0c1,1.04,1.91,2.16,2.71,3.35-1.06,1.2-1.97,2.51-2.71,3.92Z"/>
        <path class="cls-5" d="M460.44,705.56h-20.78c-.7,0-1.26.56-1.26,1.26v2.4c0,.7.57,1.27,1.27,1.27h20.77c.7,0,1.27-.57,1.27-1.27v-2.4c0-.7-.56-1.26-1.26-1.26Z"/>
        <path class="cls-5" d="M452.79,671.29l-2.11-2.86c-.16-.22-.4-.33-.64-.34-.24.02-.48.13-.64.34l-2.11,2.86c-.13.18-.13.43,0,.61l2.11,2.86c.16.22.4.33.64.34.24-.02.48-.13.64-.34l2.11-2.86c.13-.18.13-.43,0-.61Z"/>
      </g>
      <g>
        <path class="cls-4" d="M503.2,689.89h6.98v11.01c-1.48,1.03-3.31,1.88-5.5,2.55-2.18.67-4.25,1-6.2,1-2.78,0-5.29-.61-7.52-1.83-2.24-1.22-3.99-2.9-5.26-5.04-1.27-2.14-1.91-4.54-1.91-7.22s.66-5.05,1.97-7.18c1.31-2.14,3.13-3.81,5.46-5.02,2.33-1.21,4.93-1.81,7.81-1.81,2.08,0,4.16.37,6.24,1.12,2.08.75,3.85,1.76,5.3,3.05l-4.6,5.48c-.94-.9-2.03-1.62-3.29-2.16-1.26-.54-2.49-.81-3.68-.81-1.3,0-2.47.32-3.53.97-1.05.64-1.88,1.53-2.47,2.65-.6,1.12-.9,2.36-.9,3.73s.31,2.65.92,3.78c.61,1.13,1.45,2.02,2.51,2.66,1.07.64,2.25.97,3.55.97,1.17,0,2.55-.37,4.13-1.12v-6.76Z"/>
        <path class="cls-4" d="M530.21,703.9l-3.62-7.3h-4.29v7.3h-8.11v-27.07h12.75c3.66,0,6.5.84,8.52,2.51,2.01,1.67,3.02,4.04,3.02,7.11,0,1.98-.4,3.7-1.19,5.16-.79,1.45-1.93,2.61-3.41,3.46l5.53,8.84h-9.2ZM522.29,690.43h4.64c1.22,0,2.16-.32,2.83-.97.66-.64.99-1.57.99-2.78s-.33-2.09-.99-2.72c-.66-.63-1.6-.95-2.83-.95h-4.64v7.41Z"/>
        <path class="cls-4" d="M551.45,696.37c.88.93,1.99,1.39,3.31,1.39s2.36-.46,3.2-1.37c.83-.91,1.25-2.14,1.25-3.69v-15.87h8.11v15.87c0,2.37-.51,4.43-1.54,6.2-1.03,1.76-2.49,3.13-4.38,4.09-1.9.97-4.11,1.45-6.63,1.45s-4.78-.48-6.7-1.45c-1.92-.97-3.41-2.33-4.46-4.09-1.05-1.76-1.58-3.83-1.58-6.2v-15.87h8.11v15.87c0,1.52.44,2.74,1.33,3.67Z"/>
        <path class="cls-4" d="M592.08,679.34c1.94,1.67,2.9,4.04,2.9,7.11,0,3.22-.97,5.72-2.9,7.49-1.94,1.78-4.67,2.66-8.2,2.66l-4.29.04v7.26h-8.11v-27.07h12.39c3.53,0,6.27.84,8.2,2.51ZM586.31,689.46c.66-.64.99-1.57.99-2.78s-.33-2.09-.99-2.72c-.66-.63-1.6-.95-2.83-.95h-3.9v7.41h3.9c1.22,0,2.16-.32,2.83-.97Z"/>
        <path class="cls-4" d="M619.05,678.15c2.27,1.21,4.05,2.88,5.34,5,1.29,2.12,1.93,4.51,1.93,7.16s-.64,5.09-1.93,7.24c-1.29,2.15-3.07,3.84-5.34,5.06-2.27,1.22-4.81,1.83-7.62,1.83s-5.38-.61-7.64-1.83c-2.26-1.22-4.03-2.91-5.32-5.06-1.29-2.15-1.93-4.56-1.93-7.24s.64-5.04,1.93-7.16c1.29-2.12,3.06-3.79,5.32-5,2.26-1.21,4.81-1.81,7.64-1.81s5.35.61,7.62,1.81ZM608.22,683.98c-1.03.64-1.85,1.53-2.46,2.65-.61,1.12-.92,2.36-.92,3.73s.31,2.61.92,3.75c.61,1.13,1.43,2.03,2.46,2.68,1.03.66,2.14.98,3.33.98s2.25-.33,3.25-.98c1-.66,1.79-1.54,2.36-2.66.57-1.12.86-2.37.86-3.77s-.29-2.61-.86-3.73c-.57-1.12-1.35-2-2.34-2.65-.99-.64-2.08-.97-3.27-.97s-2.31.32-3.33.97Z"/>
        <path class="cls-4" d="M641.02,676.83h8.11v20.35h11.46v6.72h-19.57v-27.07Z"/>
        <path class="cls-4" d="M683.43,703.9l-1.6-4.32h-11.03l-1.64,4.32h-8.34l11.65-27.07h8.34l11.26,27.07h-8.65ZM673.06,693.71h6.63l-3.27-8.84-3.35,8.84Z"/>
        <path class="cls-4" d="M694.07,676.83h8.69l7.33,15.02,7.29-15.02h8.69v27.07h-7.13v-16.06l-6.24,13.4h-5.26l-6.24-13.4v16.06h-7.13v-27.07Z"/>
        <path class="cls-4" d="M750.66,703.9l-1.6-4.32h-11.03l-1.64,4.32h-8.34l11.65-27.07h8.34l11.26,27.07h-8.65ZM740.3,693.71h6.63l-3.27-8.84-3.35,8.84Z"/>
        <path class="cls-4" d="M780.97,678.51c2.22,1.12,3.94,2.7,5.16,4.75,1.22,2.05,1.83,4.41,1.83,7.09s-.62,5.05-1.87,7.11c-1.25,2.06-3,3.65-5.26,4.77-2.26,1.12-4.87,1.68-7.83,1.68h-11.69v-27.07h11.97c2.91,0,5.48.56,7.7,1.68ZM777.99,695.64c1.14-1.31,1.71-3.05,1.71-5.21s-.61-3.91-1.83-5.25c-1.22-1.34-2.81-2.01-4.76-2.01h-3.7v14.44h4.09c1.84,0,3.34-.66,4.48-1.97Z"/>
        <path class="cls-4" d="M807.02,703.9l-3.62-7.3h-4.29v7.3h-8.11v-27.07h12.75c3.66,0,6.5.84,8.52,2.51,2.01,1.67,3.02,4.04,3.02,7.11,0,1.98-.4,3.7-1.19,5.16-.79,1.45-1.93,2.61-3.41,3.46l5.53,8.84h-9.2ZM799.11,690.43h4.64c1.22,0,2.16-.32,2.83-.97.66-.64.99-1.57.99-2.78s-.33-2.09-.99-2.72c-.66-.63-1.6-.95-2.83-.95h-4.64v7.41Z"/>
        <path class="cls-4" d="M819.26,676.83h22.33v6.18h-14.23v4.25h12.9v6.18h-12.9v4.29h14.62v6.18h-22.72v-27.07Z"/>
      </g>
    </g>
    <g>
      <path class="cls-4" d="M488.98,657.41l-.39,2.21h2.87l-.23,1.32h-2.87l-.4,2.31h3.23l-.24,1.35h-4.95l1.51-8.53h4.94l-.23,1.34h-3.23Z"/>
      <path class="cls-4" d="M505.56,656.49c.57.27,1.01.66,1.32,1.17.3.5.46,1.1.46,1.79,0,.31-.03.61-.09.9-.15.85-.46,1.6-.95,2.24-.49.64-1.1,1.13-1.84,1.48-.74.35-1.56.52-2.46.52h-2.98l1.51-8.52h2.98c.79,0,1.47.14,2.04.41ZM504.4,662.45c.57-.5.94-1.2,1.1-2.1.04-.27.06-.5.06-.7,0-.68-.2-1.21-.6-1.59-.4-.37-.99-.56-1.76-.56h-1.2l-1,5.7h1.2c.89,0,1.63-.25,2.2-.76Z"/>
      <path class="cls-4" d="M517.54,656.08l-1.5,8.52h-1.72l1.51-8.52h1.71Z"/>
      <path class="cls-4" d="M529.69,662.8c.39-.2.72-.5.99-.89h1.96c-.4.78-.95,1.41-1.64,1.89s-1.47.76-2.31.85l-.09.5c.4,0,.73.09.98.27.26.18.38.44.38.79,0,.05,0,.14-.02.27-.07.44-.29.78-.64,1.01s-.76.35-1.21.35h-1.73l.18-1h1.45c.2,0,.35-.03.45-.09.11-.06.17-.16.21-.31.03-.15,0-.25-.09-.3-.09-.05-.24-.08-.44-.08h-.76l.24-1.43c-.62-.07-1.16-.25-1.63-.56-.47-.31-.83-.71-1.08-1.21-.25-.5-.38-1.06-.38-1.68,0-.28.02-.57.07-.87.15-.84.47-1.59.96-2.25.49-.66,1.1-1.18,1.82-1.55.72-.37,1.49-.56,2.3-.56.95,0,1.75.24,2.38.73.63.49,1.02,1.16,1.15,2.03h-1.96c-.13-.39-.35-.69-.67-.88-.32-.2-.71-.3-1.17-.3-.5,0-.96.11-1.39.34-.43.23-.78.55-1.07.98-.29.42-.48.91-.58,1.46-.04.26-.06.48-.06.65,0,.66.19,1.18.57,1.56.38.38.89.57,1.54.57.46,0,.89-.1,1.28-.3Z"/>
      <path class="cls-4" d="M545.68,662.97h-3.4l-.84,1.62h-1.79l4.58-8.53h1.99l1.55,8.53h-1.81l-.27-1.62ZM545.46,661.64l-.61-3.61-1.88,3.61h2.49ZM543.85,654.19c.31-.26.67-.4,1.08-.4.16,0,.3.03.43.08.12.05.25.13.39.23.11.08.21.14.3.18.09.04.18.05.28.05.31,0,.52-.17.63-.52h.92c-.18.54-.42.94-.73,1.2-.31.26-.67.4-1.07.4-.17,0-.31-.03-.43-.08-.11-.05-.25-.13-.4-.23-.11-.08-.21-.14-.3-.18-.09-.04-.18-.06-.27-.06-.29,0-.5.18-.62.54h-.92c.17-.54.41-.94.73-1.2Z"/>
      <path class="cls-4" d="M557.53,664.22c-.55-.31-.97-.73-1.27-1.27-.3-.54-.45-1.16-.45-1.86,0-.98.22-1.85.65-2.64.44-.78,1.04-1.39,1.81-1.84.77-.44,1.63-.66,2.59-.66.72,0,1.36.15,1.91.45.55.3.97.72,1.28,1.26.3.54.45,1.16.45,1.85,0,.99-.22,1.88-.65,2.66-.43.78-1.03,1.39-1.81,1.84-.77.44-1.64.66-2.61.66-.72,0-1.35-.15-1.9-.46ZM561.29,662.64c.47-.31.83-.73,1.09-1.25.26-.52.38-1.1.38-1.71,0-.67-.19-1.19-.56-1.57s-.9-.57-1.57-.57c-.6,0-1.14.15-1.6.46-.47.31-.83.72-1.09,1.24-.26.52-.38,1.09-.38,1.71,0,.67.18,1.19.55,1.58.37.39.89.58,1.57.58.61,0,1.15-.15,1.62-.46Z"/>
    </g>
  </g>
</svg>