<?xml version="1.0" encoding="UTF-8"?>
<svg id="Camada_1" data-name="Camada 1" xmlns="http://www.w3.org/2000/svg" viewBox="0 0 1080 296.47">
  <defs>
    <style>
      .cls-1 {
        fill: #fff;
      }

      .cls-2 {
        fill: #919498;
      }
    </style>
  </defs>
  <g>
    <path class="cls-2" d="M241.05,122.94v-14.84c0-4.49-3.67-8.04-8.15-7.77-24.74,1.5-47.59,9.79-66.58,22.93-4.94-6.97-10.42-13.65-16.43-19.98,23.68-16.34,52.32-26.5,83.35-27.9,4.14-.19,7.41-3.6,7.41-7.75v-14.82c0-4.41-3.67-7.95-8.07-7.77-38.9,1.59-75.64,14.66-106.04,37.46h0c-30.4-22.8-67.14-35.88-106.04-37.46-4.4-.18-8.07,3.36-8.07,7.77v14.82c0,4.15,3.26,7.56,7.41,7.75,31.02,1.4,59.67,11.56,83.35,27.9-6.01,6.33-11.48,13.01-16.43,19.98-18.99-13.14-41.84-21.43-66.58-22.93-4.48-.27-8.15,3.28-8.15,7.77v14.84c0,4.11,3.21,7.45,7.32,7.74,19.47,1.38,37.37,8.22,52.01,18.92-3.91,8.25-7.17,16.77-9.71,25.52-10.76-10.19-24.89-17.09-40.61-18.95-4.72-.56-8.6,2.97-8.6,7.72v14.96c0,3.88,2.88,7.07,6.71,7.69,16.47,2.66,29.52,14.95,32.4,30.51.69,3.72,3.8,6.51,7.59,6.51h26.25c0-17.52,3.21-34.34,9.07-49.96,8.36,12.49,13.69,27,14.98,42.57.34,4.15,3.71,7.39,7.87,7.39h9.25s9.25,0,9.25,0c4.16,0,7.52-3.24,7.87-7.39,1.29-15.57,6.62-30.08,14.98-42.57,5.87,15.62,9.07,32.43,9.07,49.96h26.25c3.79,0,6.9-2.78,7.59-6.51,2.89-15.56,15.93-27.85,32.4-30.51,3.83-.62,6.71-3.81,6.71-7.69v-14.96c0-4.76-3.88-8.28-8.6-7.72-15.72,1.86-29.84,8.76-40.61,18.95-2.55-8.75-5.81-17.27-9.71-25.52,14.64-10.7,32.54-17.54,52.01-18.92,4.1-.29,7.32-3.63,7.32-7.74ZM126.53,167.92h0c-4.58-8.7-10.2-16.81-16.7-24.18,4.93-7.35,10.53-14.24,16.7-20.63h0c6.17,6.39,11.77,13.29,16.7,20.63-6.5,7.37-12.12,15.48-16.7,24.18Z"/>
    <path class="cls-2" d="M190.55,248.49H62.5c-4.29,0-7.77,3.48-7.77,7.77v14.77c0,4.29,3.51,7.8,7.8,7.8h127.98c4.29,0,7.8-3.51,7.8-7.8v-14.77c0-4.29-3.48-7.77-7.77-7.77Z"/>
    <path class="cls-2" d="M143.43,37.29l-12.98-17.59c-.98-1.33-2.44-2.02-3.92-2.11-1.48.09-2.94.78-3.92,2.11l-12.98,17.59c-.83,1.13-.83,2.66,0,3.79l12.98,17.59c.98,1.33,2.44,2.02,3.92,2.11,1.48-.09,2.94-.78,3.92-2.11l12.98-17.59c.83-1.13.83-2.66,0-3.79Z"/>
  </g>
  <g>
    <path class="cls-1" d="M396.14,95.02h25.6v40.38c-5.43,3.78-12.16,6.9-20.16,9.35-8.01,2.46-15.59,3.68-22.74,3.68-10.2,0-19.4-2.24-27.6-6.73-8.2-4.49-14.64-10.65-19.31-18.49-4.67-7.84-7.01-16.67-7.01-26.49s2.41-18.51,7.22-26.35c4.81-7.84,11.49-13.98,20.02-18.42,8.53-4.44,18.09-6.66,28.67-6.66,7.63,0,15.25,1.37,22.88,4.11,7.63,2.74,14.11,6.47,19.45,11.19l-16.87,20.12c-3.43-3.31-7.46-5.95-12.08-7.93-4.63-1.98-9.13-2.98-13.51-2.98-4.77,0-9.08,1.18-12.94,3.54-3.86,2.36-6.89,5.6-9.08,9.71-2.19,4.11-3.29,8.67-3.29,13.67s1.12,9.73,3.36,13.88c2.24,4.16,5.31,7.42,9.22,9.78,3.91,2.36,8.25,3.54,13.01,3.54,4.29,0,9.34-1.37,15.16-4.11v-24.8Z"/>
    <path class="cls-1" d="M495.24,146.46l-13.3-26.78h-15.73v26.78h-29.75V47.13h46.76c13.44,0,23.86,3.07,31.25,9.21,7.39,6.14,11.08,14.83,11.08,26.07,0,7.27-1.45,13.58-4.36,18.92-2.91,5.34-7.08,9.56-12.51,12.68l20.31,32.45h-33.75ZM466.21,97.01h17.02c4.48,0,7.94-1.18,10.37-3.54,2.43-2.36,3.65-5.76,3.65-10.2s-1.22-7.67-3.65-9.99c-2.43-2.31-5.89-3.47-10.37-3.47h-17.02v27.2Z"/>
    <path class="cls-1" d="M573.18,118.83c3.24,3.4,7.29,5.1,12.16,5.1s8.67-1.68,11.73-5.03c3.05-3.35,4.58-7.86,4.58-13.53v-58.23h29.75v58.23c0,8.69-1.88,16.27-5.65,22.74-3.77,6.47-9.13,11.48-16.09,15.02-6.96,3.54-15.07,5.31-24.31,5.31s-17.54-1.77-24.6-5.31c-7.06-3.54-12.51-8.55-16.37-15.02-3.86-6.47-5.79-14.05-5.79-22.74v-58.23h29.75v58.23c0,5.58,1.62,10.06,4.86,13.46Z"/>
    <path class="cls-1" d="M722.27,56.34c7.1,6.14,10.65,14.83,10.65,26.07,0,11.81-3.55,20.97-10.65,27.49-7.1,6.52-17.14,9.78-30.1,9.78l-15.73.14v26.64h-29.75V47.13h45.48c12.96,0,23,3.07,30.1,9.21ZM701.11,93.47c2.43-2.36,3.65-5.76,3.65-10.2s-1.22-7.67-3.65-9.99c-2.43-2.31-5.89-3.47-10.37-3.47h-14.3v27.2h14.3c4.48,0,7.94-1.18,10.37-3.54Z"/>
    <path class="cls-1" d="M821.24,51.95c8.34,4.44,14.87,10.56,19.59,18.35,4.72,7.79,7.08,16.55,7.08,26.28s-2.36,18.68-7.08,26.57c-4.72,7.89-11.25,14.08-19.59,18.56-8.34,4.49-17.66,6.73-27.96,6.73s-19.74-2.24-28.03-6.73c-8.3-4.49-14.8-10.67-19.52-18.56-4.72-7.89-7.08-16.74-7.08-26.57s2.36-18.49,7.08-26.28c4.72-7.79,11.23-13.91,19.52-18.35,8.29-4.44,17.64-6.66,28.03-6.66s19.61,2.22,27.96,6.66ZM781.48,73.35c-3.77,2.36-6.77,5.6-9.01,9.71-2.24,4.11-3.36,8.67-3.36,13.67s1.12,9.59,3.36,13.74c2.24,4.16,5.24,7.44,9.01,9.85,3.76,2.41,7.84,3.61,12.23,3.61s8.27-1.2,11.94-3.61c3.67-2.41,6.55-5.67,8.65-9.78,2.1-4.11,3.15-8.71,3.15-13.81s-1.05-9.56-3.15-13.67c-2.1-4.11-4.96-7.34-8.58-9.71-3.62-2.36-7.63-3.54-12.01-3.54s-8.46,1.18-12.23,3.54Z"/>
    <path class="cls-1" d="M330.64,179.56h29.75v74.67h42.05v24.65h-71.79v-99.32Z"/>
    <path class="cls-1" d="M486.23,278.88l-5.86-15.87h-40.47l-6.01,15.87h-30.6l42.76-99.32h30.6l41.33,99.32h-31.75ZM448.19,241.48h24.31l-12.01-32.45-12.3,32.45Z"/>
    <path class="cls-1" d="M525.27,179.56h31.89l26.89,55.12,26.74-55.12h31.89v99.32h-26.17v-58.94l-22.88,49.17h-19.31l-22.88-49.17v58.94h-26.17v-99.32Z"/>
    <path class="cls-1" d="M732.93,278.88l-5.86-15.87h-40.47l-6.01,15.87h-30.6l42.76-99.32h30.6l41.33,99.32h-31.75ZM694.88,241.48h24.31l-12.01-32.45-12.3,32.45Z"/>
    <path class="cls-1" d="M844.12,185.73c8.15,4.11,14.47,9.92,18.95,17.43,4.48,7.51,6.72,16.18,6.72,26s-2.29,18.51-6.86,26.07c-4.58,7.56-11.01,13.39-19.31,17.5-8.29,4.11-17.88,6.16-28.75,6.16h-42.9v-99.32h43.9c10.68,0,20.09,2.05,28.25,6.16ZM833.18,248.56c4.19-4.82,6.29-11.19,6.29-19.13s-2.24-14.36-6.72-19.27c-4.48-4.91-10.3-7.37-17.45-7.37h-13.59v52.99h15.02c6.77,0,12.25-2.41,16.45-7.23Z"/>
    <path class="cls-1" d="M939.72,278.88l-13.3-26.78h-15.73v26.78h-29.75v-99.32h46.76c13.44,0,23.86,3.07,31.25,9.21,7.39,6.14,11.08,14.83,11.08,26.07,0,7.27-1.45,13.58-4.36,18.92-2.91,5.34-7.08,9.56-12.51,12.68l20.31,32.45h-33.75ZM910.69,229.44h17.02c4.48,0,7.94-1.18,10.37-3.54,2.43-2.36,3.65-5.76,3.65-10.2s-1.22-7.67-3.65-9.99c-2.43-2.31-5.89-3.47-10.37-3.47h-17.02v27.2Z"/>
    <path class="cls-1" d="M984.62,179.56h81.94v22.67h-52.2v15.59h47.34v22.67h-47.34v15.73h53.63v22.67h-83.37v-99.32Z"/>
  </g>
</svg>