<?xml version="1.0" encoding="UTF-8"?>
<svg id="Camada_1" data-name="Camada 1" xmlns="http://www.w3.org/2000/svg" xmlns:xlink="http://www.w3.org/1999/xlink" viewBox="0 0 202.25 100">
  <defs>
    <style>
      .cls-1 {
        fill: url(#Gradiente_sem_nome_5);
      }

      .cls-2 {
        fill: none;
      }

      .cls-3 {
        fill: #4a72b2;
      }

      .cls-4 {
        clip-path: url(#clippath-1);
      }

      .cls-5 {
        fill: #cb6120;
      }

      .cls-6 {
        clip-path: url(#clippath-3);
      }

      .cls-7 {
        fill: url(#Gradiente_sem_nome_7);
      }

      .cls-8 {
        fill: url(#Gradiente_sem_nome_6);
      }

      .cls-9 {
        clip-path: url(#clippath-2);
      }

      .cls-10 {
        fill: url(#Gradiente_sem_nome_8);
      }

      .cls-11 {
        clip-path: url(#clippath);
      }
    </style>
    <clipPath id="clippath">
      <rect class="cls-2" x="59.21" y="29" width="5.98" height="14.68"/>
    </clipPath>
    <linearGradient id="Gradiente_sem_nome_5" data-name="Gradiente sem nome 5" x1="-1351.75" y1="364.57" x2="-1351.02" y2="364.57" gradientTransform="translate(-14960.27 55711.37) rotate(90) scale(41.21 -41.21)" gradientUnits="userSpaceOnUse">
      <stop offset="0" stop-color="#76aadb"/>
      <stop offset=".98" stop-color="#4a72b2"/>
      <stop offset="1" stop-color="#4a72b2"/>
    </linearGradient>
    <clipPath id="clippath-1">
      <rect class="cls-2" x="59.21" y="19.38" width="5.98" height="5.8"/>
    </clipPath>
    <linearGradient id="Gradiente_sem_nome_6" data-name="Gradiente sem nome 6" x1="-1351.76" y1="364.58" x2="-1351.03" y2="364.58" gradientTransform="translate(-14960.57 55711.37) rotate(90) scale(41.21 -41.21)" gradientUnits="userSpaceOnUse">
      <stop offset="0" stop-color="#76aadb"/>
      <stop offset=".98" stop-color="#4a72b2"/>
      <stop offset="1" stop-color="#4a72b2"/>
    </linearGradient>
    <clipPath id="clippath-2">
      <path class="cls-2" d="M24.39,51.98c0-4.99,2-9.5,5.24-12.8l.21-.21c3.29-3.24,7.81-5.24,12.8-5.24,10.08,0,18.25,8.17,18.25,18.25s-8.17,18.25-18.25,18.25-18.25-8.17-18.25-18.25M26.86,33.55c-.95.82-1.84,1.7-2.66,2.66L7.89,52.52l4.2,4.2,6.33-6.33c-.03.53-.06,1.06-.06,1.6,0,17.15,24.3,32.15,24.3,32.15,0,0,24.25-15,24.25-32.15,0-.55-.03-1.1-.06-1.65l6.38,6.38,4.2-4.2-16.67-16.67c-.63-.7-1.3-1.37-2-2l-16.11-16.11-15.8,15.8Z"/>
    </clipPath>
    <linearGradient id="Gradiente_sem_nome_8" data-name="Gradiente sem nome 8" x1="-1352.3" y1="356.6" x2="-1351.57" y2="356.6" gradientTransform="translate(-28019.91 106437.59) rotate(90) scale(78.69 -78.69)" gradientUnits="userSpaceOnUse">
      <stop offset="0" stop-color="#db9600"/>
      <stop offset="1" stop-color="#cb6120"/>
    </linearGradient>
    <clipPath id="clippath-3">
      <path class="cls-2" d="M50.75,56.51c-1.59,2.76-4.57,4.62-7.98,4.62-5.09,0-9.22-4.13-9.22-9.22s4.13-9.22,9.22-9.22c3.41,0,6.37,1.85,7.97,4.6l3.9-3.86c-2.65-3.7-6.97-6.12-11.87-6.12-8.06,0-14.6,6.54-14.6,14.6s6.54,14.6,14.6,14.6c4.79,0,9.03-2.32,11.69-5.88l-3.71-4.12Z"/>
    </clipPath>
    <linearGradient id="Gradiente_sem_nome_7" data-name="Gradiente sem nome 7" x1="-1352.01" y1="364.34" x2="-1351.27" y2="364.34" gradientTransform="translate(-15356.77 57176.15) rotate(90) scale(42.26 -42.26)" gradientUnits="userSpaceOnUse">
      <stop offset="0" stop-color="#76aadb"/>
      <stop offset=".98" stop-color="#4a72b2"/>
      <stop offset="1" stop-color="#4a72b2"/>
    </linearGradient>
  </defs>
  <g>
    <g>
      <polygon class="cls-3" points="101.71 36.99 105.63 36.99 107.01 36.99 114.01 36.99 114.01 33 101.71 33 101.71 36.99"/>
      <polygon class="cls-3" points="186.43 44.94 186.43 33 182.45 33 182.45 48.93 192.9 48.93 192.9 44.94 186.43 44.94"/>
      <polygon class="cls-3" points="126.26 42.19 120.36 33 116.04 33 116.04 48.93 120.03 48.93 120.03 39.8 125.81 48.93 130.26 48.93 130.26 33 126.26 33 126.26 42.19"/>
      <polygon class="cls-3" points="132.25 36.99 136.85 36.99 136.85 48.93 140.82 48.93 140.82 36.99 145.41 36.99 145.41 32.98 132.25 32.98 132.25 36.99"/>
      <path class="cls-3" d="M168.99,33.14l-6.12,15.78h4.3l.79-1.99h7.44l.77,1.99h4.28l-6.12-15.78h-5.35ZM169.47,42.97l2.2-5.62,2.2,5.62h-4.4Z"/>
      <path class="cls-3" d="M96.89,42.92c-.71,1.25-2.03,2.02-3.46,2.02-2.2,0-3.98-1.79-3.98-3.98s1.79-3.98,3.98-3.98c1.45,0,2.79.79,3.49,2.06l.06.12,2.63-3.1.05-.06-.05-.06c-1.52-1.87-3.78-2.95-6.19-2.95-4.4,0-7.97,3.58-7.97,7.97s3.58,7.97,7.97,7.97c2.44,0,4.72-1.1,6.25-3.03l.05-.06-2.77-3.03-.06.11Z"/>
      <polygon class="cls-3" points="101.71 48.93 114.01 48.93 114.01 44.94 105.7 44.94 105.7 42.96 114.01 42.96 114.01 38.97 101.71 38.97 101.71 48.93"/>
      <path class="cls-3" d="M160.85,38.55c0-3.55-2.49-5.55-6.56-5.55h-6.89v15.92h4v-11.94h2.89c.09,0,.38,0,.44,0,.05,0,.37.03.45.04.95.15,1.68.96,1.68,1.95,0,1.09-.89,1.98-1.98,1.98-.02,0-.11,0-.14,0h-3.03l4.52,7.96h4.65l-2.83-5.02c1.8-.93,2.81-2.92,2.81-5.35Z"/>
    </g>
    <g>
      <path class="cls-5" d="M118.31,52.95c-4.4,0-7.97,3.57-7.97,7.97s3.57,7.97,7.97,7.97,7.97-3.57,7.97-7.97-3.57-7.97-7.97-7.97ZM118.31,64.9c-2.2,0-3.98-1.78-3.98-3.98s1.78-3.98,3.98-3.98,3.98,1.78,3.98,3.98-1.78,3.98-3.98,3.98Z"/>
      <polygon class="cls-5" points="99.89 61.18 95.85 52.95 91.42 52.95 91.42 68.89 95.4 68.89 95.4 61.08 98.51 67.3 101.31 67.3 104.34 61.12 104.37 68.89 108.34 68.89 108.34 52.95 103.93 52.95 99.89 61.18"/>
      <rect class="cls-5" x="85.45" y="52.95" width="3.98" height="3.8"/>
      <rect class="cls-5" x="85.47" y="60.58" width="3.96" height="8.27"/>
      <path class="cls-5" d="M141.62,57.31c.02-.11.03-.22.03-.34,0,0,0-.01,0-.02,0,0,0,0,0,0,0,0,0,0,0,0,0,0,0,0,0,0,0-2.11-1.65-3.83-3.73-3.96-.04,0-.14-.01-.17-.01-.71-.01-1.82,0-2.28,0h-7.19v15.92h7.45c.46,0,1.01,0,1.49,0,.21,0,.4,0,.57,0,.11,0,.19-.01.26-.02,2.02-.19,3.61-1.89,3.61-3.96s-1.72-3.91-3.86-3.97c.01,0,.02,0,.04-.01,2-.08,3.61-1.64,3.79-3.62ZM136.01,65.78h-3.73v-3.31h3.04c.18,0,.63,0,.69,0,.91,0,1.65.74,1.65,1.65s-.74,1.65-1.65,1.65ZM136.02,59.34h-3.74v-3.28h3.74c.9,0,1.64.73,1.64,1.64s-.73,1.64-1.64,1.64Z"/>
    </g>
  </g>
  <g>
    <g class="cls-11">
      <rect class="cls-1" x="59.21" y="29" width="5.98" height="14.68"/>
    </g>
    <g class="cls-4">
      <rect class="cls-8" x="59.21" y="19.38" width="5.98" height="5.8"/>
    </g>
    <g class="cls-9">
      <rect class="cls-10" x="7.89" y="17.74" width="69.55" height="66.39"/>
    </g>
    <g class="cls-6">
      <rect class="cls-7" x="28" y="37.03" width="26.82" height="29.76"/>
    </g>
  </g>
</svg>