<?xml version="1.0" encoding="UTF-8"?>
<svg id="Camada_1" data-name="Camada 1" xmlns="http://www.w3.org/2000/svg" xmlns:xlink="http://www.w3.org/1999/xlink" viewBox="0 0 100 100">
  <defs>
    <style>
      .cls-1 {
        fill: url(#Gradiente_sem_nome_5);
      }

      .cls-2 {
        fill: none;
      }

      .cls-3 {
        fill: #4a72b2;
      }

      .cls-4 {
        clip-path: url(#clippath-1);
      }

      .cls-5 {
        fill: #cb6120;
      }

      .cls-6 {
        clip-path: url(#clippath-3);
      }

      .cls-7 {
        fill: url(#Gradiente_sem_nome_7);
      }

      .cls-8 {
        fill: url(#Gradiente_sem_nome_6);
      }

      .cls-9 {
        clip-path: url(#clippath-2);
      }

      .cls-10 {
        fill: url(#Gradiente_sem_nome_8);
      }

      .cls-11 {
        clip-path: url(#clippath);
      }
    </style>
    <clipPath id="clippath">
      <rect class="cls-2" x="63.94" y="15.4" width="4.98" height="12.23"/>
    </clipPath>
    <linearGradient id="Gradiente_sem_nome_5" data-name="Gradiente sem nome 5" x1="-1232.01" y1="361.76" x2="-1231.4" y2="361.76" gradientTransform="translate(-14840.27 50766.67) rotate(90) scale(41.21 -41.21)" gradientUnits="userSpaceOnUse">
      <stop offset="0" stop-color="#76aadb"/>
      <stop offset=".98" stop-color="#4a72b2"/>
      <stop offset="1" stop-color="#4a72b2"/>
    </linearGradient>
    <clipPath id="clippath-1">
      <rect class="cls-2" x="63.94" y="7.39" width="4.98" height="4.83"/>
    </clipPath>
    <linearGradient id="Gradiente_sem_nome_6" data-name="Gradiente sem nome 6" x1="-1232.02" y1="361.77" x2="-1231.41" y2="361.77" gradientTransform="translate(-14840.57 50766.67) rotate(90) scale(41.21 -41.21)" gradientUnits="userSpaceOnUse">
      <stop offset="0" stop-color="#76aadb"/>
      <stop offset=".98" stop-color="#4a72b2"/>
      <stop offset="1" stop-color="#4a72b2"/>
    </linearGradient>
    <clipPath id="clippath-2">
      <path class="cls-2" d="M34.93,34.54c0-4.15,1.67-7.92,4.37-10.66l.18-.18c2.74-2.7,6.51-4.37,10.66-4.37,8.4,0,15.2,6.81,15.2,15.2s-6.81,15.2-15.2,15.2-15.2-6.81-15.2-15.2M36.99,19.19c-.79.68-1.53,1.42-2.21,2.21l-13.59,13.59,3.5,3.5,5.28-5.28c-.03.44-.05.88-.05,1.33,0,14.29,20.24,26.78,20.24,26.78,0,0,20.2-12.5,20.2-26.78,0-.46-.02-.92-.05-1.37l5.32,5.32,3.5-3.5-13.88-13.88c-.52-.59-1.08-1.14-1.67-1.67l-13.42-13.42-13.16,13.16Z"/>
    </clipPath>
    <linearGradient id="Gradiente_sem_nome_8" data-name="Gradiente sem nome 8" x1="-1232.45" y1="355.17" x2="-1231.84" y2="355.17" gradientTransform="translate(-27899.91 96994.19) rotate(90) scale(78.69 -78.69)" gradientUnits="userSpaceOnUse">
      <stop offset="0" stop-color="#db9600"/>
      <stop offset="1" stop-color="#cb6120"/>
    </linearGradient>
    <clipPath id="clippath-3">
      <path class="cls-2" d="M56.89,38.31c-1.33,2.3-3.8,3.85-6.65,3.85-4.24,0-7.68-3.44-7.68-7.68s3.44-7.68,7.68-7.68c2.84,0,5.31,1.54,6.64,3.83l3.25-3.22c-2.21-3.08-5.81-5.1-9.89-5.1-6.72,0-12.16,5.44-12.16,12.16s5.44,12.16,12.16,12.16c3.99,0,7.52-1.93,9.74-4.9l-3.09-3.44Z"/>
    </clipPath>
    <linearGradient id="Gradiente_sem_nome_7" data-name="Gradiente sem nome 7" x1="-1232.36" y1="361.68" x2="-1231.74" y2="361.68" gradientTransform="translate(-15236.77 52104.51) rotate(90) scale(42.26 -42.26)" gradientUnits="userSpaceOnUse">
      <stop offset="0" stop-color="#76aadb"/>
      <stop offset=".98" stop-color="#4a72b2"/>
      <stop offset="1" stop-color="#4a72b2"/>
    </linearGradient>
  </defs>
  <g>
    <g>
      <polygon class="cls-3" points="18.94 69.65 22.21 69.65 23.36 69.65 29.19 69.65 29.19 66.33 18.94 66.33 18.94 69.65"/>
      <polygon class="cls-3" points="89.52 76.28 89.52 66.33 86.2 66.33 86.2 79.6 94.91 79.6 94.91 76.28 89.52 76.28"/>
      <polygon class="cls-3" points="39.39 73.98 34.48 66.34 30.88 66.34 30.88 79.6 34.2 79.6 34.2 72 39.02 79.6 42.72 79.6 42.72 66.34 39.39 66.34 39.39 73.98"/>
      <polygon class="cls-3" points="44.38 69.65 48.21 69.65 48.21 79.6 51.52 79.6 51.52 69.65 55.35 69.65 55.35 66.32 44.38 66.32 44.38 69.65"/>
      <path class="cls-3" d="M74.99,66.45l-5.1,13.15h3.58l.66-1.66h6.2l.64,1.66h3.57l-5.1-13.15h-4.46ZM75.39,74.64l1.83-4.68,1.84,4.68h-3.67Z"/>
      <path class="cls-3" d="M14.92,74.6c-.59,1.04-1.7,1.68-2.88,1.68-1.83,0-3.32-1.49-3.32-3.32s1.49-3.32,3.32-3.32c1.21,0,2.32.66,2.91,1.72l.05.1,2.19-2.58.04-.05-.04-.05c-1.27-1.56-3.15-2.45-5.15-2.45-3.66,0-6.64,2.98-6.64,6.64s2.98,6.64,6.64,6.64c2.04,0,3.93-.92,5.2-2.52l.04-.05-2.31-2.52-.05.09Z"/>
      <polygon class="cls-3" points="18.94 79.6 29.19 79.6 29.19 76.28 22.27 76.28 22.27 74.63 29.19 74.63 29.19 71.31 18.94 71.31 18.94 79.6"/>
      <path class="cls-3" d="M68.21,70.96c0-2.96-2.07-4.62-5.46-4.62h-5.74v13.26h3.33v-9.94h2.41c.07,0,.31,0,.37,0,.04,0,.31.02.37.03.79.12,1.4.8,1.4,1.63,0,.91-.74,1.65-1.65,1.65-.02,0-.09,0-.12,0h-2.52l3.77,6.63h3.88l-2.36-4.18c1.5-.78,2.34-2.43,2.34-4.46Z"/>
    </g>
    <g>
      <path class="cls-5" d="M54.11,82.95c-3.67,0-6.64,2.97-6.64,6.64s2.97,6.64,6.64,6.64,6.64-2.97,6.64-6.64-2.97-6.64-6.64-6.64ZM54.11,92.9c-1.83,0-3.31-1.48-3.31-3.31s1.48-3.31,3.31-3.31,3.31,1.48,3.31,3.31-1.48,3.31-3.31,3.31Z"/>
      <polygon class="cls-5" points="38.77 89.81 35.41 82.95 31.71 82.95 31.71 96.23 35.03 96.23 35.03 89.73 37.62 94.9 39.95 94.9 42.48 89.76 42.5 96.23 45.81 96.23 45.81 82.95 42.14 82.95 38.77 89.81"/>
      <rect class="cls-5" x="26.74" y="82.95" width="3.31" height="3.16"/>
      <rect class="cls-5" x="26.76" y="89.31" width="3.3" height="6.89"/>
      <path class="cls-5" d="M73.53,86.58c.02-.09.03-.19.03-.28,0,0,0-.01,0-.02,0,0,0,0,0,0,0,0,0,0,0,0,0,0,0,0,0,0,0-1.76-1.38-3.19-3.11-3.3-.03,0-.12-.01-.14-.01-.59-.01-1.51,0-1.9,0h-5.99v13.26h6.21c.38,0,.84,0,1.24,0,.17,0,.33,0,.47,0,.09,0,.16,0,.22-.01,1.68-.16,3-1.57,3-3.3s-1.43-3.25-3.21-3.31c0,0,.02,0,.03-.01,1.67-.07,3.01-1.37,3.16-3.01ZM68.86,93.64h-3.11v-2.76h2.53c.15,0,.53,0,.58,0,.76,0,1.38.62,1.38,1.38s-.62,1.38-1.38,1.38ZM68.87,88.27h-3.12v-2.73h3.12c.75,0,1.36.61,1.36,1.36s-.61,1.36-1.36,1.36Z"/>
    </g>
  </g>
  <g>
    <g class="cls-11">
      <rect class="cls-1" x="63.94" y="15.4" width="4.98" height="12.23"/>
    </g>
    <g class="cls-4">
      <rect class="cls-8" x="63.94" y="7.39" width="4.98" height="4.83"/>
    </g>
    <g class="cls-9">
      <rect class="cls-10" x="21.19" y="6.02" width="57.93" height="55.3"/>
    </g>
    <g class="cls-6">
      <rect class="cls-7" x="37.94" y="22.09" width="22.34" height="24.79"/>
    </g>
  </g>
</svg>